{
.appVersion = "1286";
copyright = "Copyright \\(c\\) 2017 by Ricky Rinaldi | Aiyari. All rights reserved.";
customParameters = (
{
name = description;
value = "Copyright (c) 2017 by Ricky Rinaldi | Aiyari. All rights reserved.";
},
{
name = trademark;
value = "Winter is Coming Serif Shadow is a trademark of Ricky Rinaldi | Aiyari.";
},
{
name = panose;
value = (
0,
0,
0,
0,
0,
0,
0,
0,
0,
0
);
},
{
name = unicodeRanges;
value = (
0,
1,
2,
5,
31,
33,
62
);
},
{
name = fsType;
value = (
2
);
},
{
name = glyphOrder;
value = (
.notdef,
A,
B,
C,
D,
E,
F,
G,
H,
I,
J,
K,
L,
M,
N,
O,
P,
Q,
R,
S,
T,
U,
V,
W,
X,
Y,
Z,
a,
b,
c,
d,
e,
f,
g,
h,
i,
j,
k,
l,
m,
n,
o,
p,
q,
r,
s,
t,
u,
v,
w,
x,
y,
z,
one,
two,
three,
four,
five,
six,
seven,
eight,
nine,
zero,
exclam,
at,
numbersign,
dollar,
percent,
ampersand,
quotesingle,
parenleft,
parenright,
asterisk,
plus,
equal,
hyphen,
comma,
period,
slash,
fraction,
colon,
semicolon,
less,
greater,
question,
bracketleft,
bracketright,
backslash,
asciicircum,
underscore,
grave,
braceleft,
braceright,
bar,
asciitilde,
Euro,
quotesinglbase,
quotedblbase,
ellipsis,
circumflex,
guilsinglleft,
quoteleft,
quoteright,
quotedblleft,
quotedblright,
bullet,
endash,
emdash,
tilde,
guilsinglright,
cent,
yen,
sterling,
dieresis,
acute,
mu,
cedilla,
ogonek,
caron,
hungarumlaut,
dotaccent,
breve,
quotedbl,
space,
thorn,
Thorn,
odieresis,
a_a,
b_b,
c_c,
d_d,
e_e,
f_f,
g_g,
h_h,
i_i,
j_j,
k_k,
l_l,
m_m,
n_n,
o_o,
p_p,
q_q,
r_r,
s_s,
t_t,
x_x,
y_y,
z_z,
Agrave,
Aacute,
Acircumflex,
Atilde,
Adieresis,
Ccedilla,
Egrave,
Eacute,
Ecircumflex,
Edieresis,
Igrave,
Iacute,
Icircumflex,
Idieresis,
Eth,
Ntilde,
Ograve,
Oacute,
Ocircumflex,
Otilde,
Odieresis,
Oslash,
Ugrave,
Uacute,
Ucircumflex,
Udieresis,
Yacute,
agrave,
aacute,
acircumflex,
atilde,
adieresis,
aring,
ccedilla,
egrave,
eacute,
ecircumflex,
edieresis,
igrave,
iacute,
icircumflex,
idieresis,
ntilde,
ograve,
oacute,
ocircumflex,
otilde,
oslash,
ugrave,
uacute,
ucircumflex,
udieresis,
yacute,
ydieresis,

glyphs = (
{
glyphname = A;
layers = (
{
hints = (
{
horizontal = 1;
place = "{-91, 27}";
type = Stem;
},
{
horizontal = 1;
place = "{-13, 21}";
target = up;
type = BottomGhost;
},
{
horizontal = 1;
place = "{29, 12}";
type = Stem;
},
{
horizontal = 1;
place = "{130, 27}";
type = Stem;
},
{
horizontal = 1;
place = "{192, 10}";
type = Stem;
},
{
horizontal = 1;
place = "{611, 10}";
type = Stem;
},
{
place = "{-15, 10}";
type = Stem;
},
{
place = "{100, 10}";
type = Stem;
},
{
place = "{198, 10}";
type = Stem;
},
{
place = "{367, 27}";
type = Stem;
},
{
horizontal = 1;
place = "{-44, 9}";
type = Stem;
},
{
place = "{202, 27}";
type = Stem;
},
{
horizontal = 1;
place = "{579, 10}";
type = Stem;
},
{
horizontal = 1;
place = "{-18, 27}";
type = Stem;
},
{
place = "{125, 27}";
type = Stem;
},
{
horizontal = 1;
place = "{29, 9}";
type = Stem;
}
);
layerId = "6055A463-9BF1-4E1B-8033-BCCEA0F196EB";
paths = (
{
closed = 1;
nodes = (
"204 202 LINE",
"131 202 LINE",
"168 401 LINE"
);
},
{
closed = 1;
nodes = (
"198 -43 LINE",
"198 -85 LINE",
"221 -101 LINE",
"221 -101 OFFCURVE",
"275 -91 OFFCURVE",
"307 -91 CURVE SMOOTH",
"340 -91 OFFCURVE",
"394 -101 OFFCURVE",
"394 -101 CURVE",
"394 -58 LINE",
"377 -35 LINE",
"377 -35 OFFCURVE",
"354 -34 OFFCURVE",
"338 -31 CURVE",
"229 585 LINE",
"229 607 LINE",
"212 631 LINE",
"212 631 OFFCURVE",
"169 621 OFFCURVE",
"156 621 CURVE SMOOTH",
"143 621 OFFCURVE",
"100 631 OFFCURVE",
"100 631 CURVE",
"100 579 LINE",
"125 562 LINE",
"34 52 LINE",
"30 40 OFFCURVE",
"-15 41 OFFCURVE",
"-15 41 CURVE",
"-15 -13 LINE",
"8 -29 LINE",
"8 -29 OFFCURVE",
"58 -18 OFFCURVE",
"80 -18 CURVE SMOOTH",
"105 -18 OFFCURVE",
"152 -26 OFFCURVE",
"152 -26 CURVE",
"152 15 LINE",
"135 38 LINE",
"135 38 OFFCURVE",
"118 39 OFFCURVE",
"103 42 CURVE",
"120 130 LINE",
"217 130 LINE",
"245 -20 LINE",
"243 -34 OFFCURVE",
"198 -35 OFFCURVE",
"198 -35 CURVE"
);
},
{
closed = 1;
nodes = (
"158 520 LINE",
"100 192 LINE",
"217 192 LINE"
);
},
{
closed = 1;
nodes = (
"208 -44 LINE",
"208 -44 OFFCURVE",
"254 -40 OFFCURVE",
"256 -27 CURVE SMOOTH",
"256 -26 LINE",
"223 157 LINE",
"94 157 LINE",
"74 45 LINE",
"77 33 OFFCURVE",
"125 29 OFFCURVE",
"125 29 CURVE",
"125 2 LINE",
"125 2 OFFCURVE",
"84 9 OFFCURVE",
"60 9 CURVE SMOOTH",
"36 9 OFFCURVE",
"-5 0 OFFCURVE",
"-5 0 CURVE",
"-5 29 LINE",
"-5 29 OFFCURVE",
"39 32 OFFCURVE",
"43 44 CURVE",
"140 589 LINE",
"110 589 LINE",
"110 618 LINE",
"110 618 OFFCURVE",
"140 611 OFFCURVE",
"156 611 CURVE SMOOTH",
"172 611 OFFCURVE",
"202 618 OFFCURVE",
"202 618 CURVE",
"202 604 LINE",
"315 -29 LINE",
"319 -40 OFFCURVE",
"367 -44 OFFCURVE",
"367 -44 CURVE",
"367 -73 LINE",
"367 -73 OFFCURVE",
"318 -64 OFFCURVE",
"287 -64 CURVE SMOOTH",
"257 -64 OFFCURVE",
"208 -73 OFFCURVE",
"208 -73 CURVE"
);
}
);
width = 336;
}
);
leftKerningGroup = Agrave;
note = A;
rightKerningGroup = Agrave;
unicode = 0041;
},
{
glyphname = B;
layers = (
{
layerId = "6055A463-9BF1-4E1B-8033-BCCEA0F196EB";
paths = (
{
closed = 1;
nodes = (
"216 538 LINE",
"217 538 OFFCURVE",
"217 538 OFFCURVE",
"217 537 CURVE"
);
},
{
closed = 1;
nodes = (
"153 163 LINE",
"159 163 LINE SMOOTH",
"203 161 OFFCURVE",
"231 157 OFFCURVE",
"248 149 CURVE",
"254 140 OFFCURVE",
"255 130 OFFCURVE",
"255 118 CURVE SMOOTH",
"255 68 OFFCURVE",
"221 43 OFFCURVE",
"154 43 CURVE SMOOTH",
"153 43 LINE"
);
},
{
closed = 1;
nodes = (
"153 558 LINE",
"173 557 OFFCURVE",
"190 554 OFFCURVE",
"203 547 CURVE",
"229 515 OFFCURVE",
"230 456 OFFCURVE",
"230 373 CURVE SMOOTH",
"230 297 OFFCURVE",
"215 247 OFFCURVE",
"153 233 CURVE"
);
},
{
closed = 1;
nodes = (
"5 -12 LINE",
"28 -28 LINE",
"28 -28 OFFCURVE",
"79 -19 OFFCURVE",
"108 -19 CURVE SMOOTH",
"113 -19 OFFCURVE",
"189 -21 OFFCURVE",
"196 -21 CURVE SMOOTH",
"231 -21 OFFCURVE",
"273 -21 OFFCURVE",
"301 -1 CURVE SMOOTH",
"323 16 OFFCURVE",
"348 50 OFFCURVE",
"348 98 CURVE SMOOTH",
"348 132 OFFCURVE",
"337 192 OFFCURVE",
"283 209 CURVE",
"311 239 OFFCURVE",
"323 286 OFFCURVE",
"323 353 CURVE SMOOTH",
"323 440 OFFCURVE",
"320 512 OFFCURVE",
"278 554 CURVE",
"254 596 OFFCURVE",
"207 620 OFFCURVE",
"120 620 CURVE SMOOTH",
"70 620 OFFCURVE",
"11 627 OFFCURVE",
"11 627 CURVE",
"11 579 LINE",
"34 562 LINE",
"34 562 OFFCURVE",
"46 561 OFFCURVE",
"58 559 CURVE",
"58 51 LINE",
"55 40 OFFCURVE",
"5 38 OFFCURVE",
"5 38 CURVE"
);
},
{
closed = 1;
nodes = (
"126 220 LINE",
"221 222 OFFCURVE",
"240 280 OFFCURVE",
"240 373 CURVE SMOOTH",
"240 510 OFFCURVE",
"235 584 OFFCURVE",
"126 585 CURVE"
);
},
{
closed = 1;
nodes = (
"135 33 OFFCURVE",
"144 33 OFFCURVE",
"154 33 CURVE SMOOTH",
"228 33 OFFCURVE",
"265 61 OFFCURVE",
"265 118 CURVE SMOOTH",
"265 159 OFFCURVE",
"256 187 OFFCURVE",
"139 190 CURVE SMOOTH",
"126 190 LINE",
"126 34 LINE",
"127 34 OFFCURVE",
"128 34 OFFCURVE",
"128 34 CURVE"
);
},
{
closed = 1;
nodes = (
"15 29 LINE",
"15 29 OFFCURVE",
"65 33 OFFCURVE",
"68 44 CURVE",
"68 573 LINE",
"64 586 OFFCURVE",
"21 589 OFFCURVE",
"21 589 CURVE",
"21 616 LINE",
"21 616 OFFCURVE",
"72 610 OFFCURVE",
"120 610 CURVE SMOOTH",
"289 610 OFFCURVE",
"296 514 OFFCURVE",
"296 373 CURVE SMOOTH",
"296 292 OFFCURVE",
"276 240 OFFCURVE",
"232 214 CURVE",
"277 206 OFFCURVE",
"321 185 OFFCURVE",
"321 118 CURVE SMOOTH",
"321 73 OFFCURVE",
"307 42 OFFCURVE",
"277 25 CURVE SMOOTH",
"248 8 OFFCURVE",
"210 6 OFFCURVE",
"176 6 CURVE SMOOTH",
"162 6 OFFCURVE",
"102 8 OFFCURVE",
"88 8 CURVE SMOOTH",
"60 8 OFFCURVE",
"15 0 OFFCURVE",
"15 0 CURVE"
);
}
);
width = 336;
}
);
note = B;
unicode = 0042;
},
{
glyphname = C;
layers = (
{
hints = (
{
horizontal = 1;
place = "{-13, 10}";
type = Stem;
},
{
horizontal = 1;
place = "{218, 10}";
type = Stem;
},
{
horizontal = 1;
place = "{336, 27}";
type = Stem;
},
{
horizontal = 1;
place = "{557, 27}";
type = Stem;
},
{
horizontal = 1;
place = "{616, 10}";
type = Stem;
},
{
place = "{-5, 10}";
type = Stem;
},
{
place = "{66, 27}";
type = Stem;
},
{
place = "{205, 10}";
type = Stem;
},
{
place = "{251, 27}";
type = Stem;
},
{
horizontal = 1;
place = "{620, 10}";
type = Stem;
},
{
place = "{202, 10}";
type = Stem;
},
{
place = "{218, 10}";
type = Stem;
},
{
horizontal = 1;
place = "{-68, 27}";
type = Stem;
},
{
horizontal = 1;
place = "{-27, 27}";
type = Stem;
}
);
layerId = "6055A463-9BF1-4E1B-8033-BCCEA0F196EB";
paths = (
{
closed = 1;
nodes = (
"93 464 OFFCURVE",
"113 557 OFFCURVE",
"151 557 CURVE SMOOTH",
"156 557 OFFCURVE",
"161 556 OFFCURVE",
"166 554 CURVE",
"207 499 OFFCURVE",
"202 348 OFFCURVE",
"202 348 CURVE",
"225 332 LINE",
"225 332 OFFCURVE",
"249 336 OFFCURVE",
"254 336 CURVE SMOOTH",
"260 336 OFFCURVE",
"285 332 OFFCURVE",
"285 332 CURVE",
"285 332 OFFCURVE",
"278 411 OFFCURVE",
"278 454 CURVE SMOOTH",
"278 501 OFFCURVE",
"284 607 OFFCURVE",
"284 607 CURVE",
"267 630 LINE",
"218 630 LINE",
"218 577 LINE",
"218 577 OFFCURVE",
"194 626 OFFCURVE",
"129 626 CURVE SMOOTH",
"44 626 OFFCURVE",
"-5 507 OFFCURVE",
"-5 300 CURVE SMOOTH",
"-5 154 OFFCURVE",
"21 -2 OFFCURVE",
"89 -41 CURVE",
"93 -45 LINE SMOOTH",
"108 -60 OFFCURVE",
"125 -68 OFFCURVE",
"145 -68 CURVE SMOOTH",
"183 -68 OFFCURVE",
"212 -52 OFFCURVE",
"232 -18 CURVE",
"241 -27 LINE",
"284 -27 LINE",
"283 -13 LINE SMOOTH",
"282 1 OFFCURVE",
"278 45 OFFCURVE",
"278 85 CURVE SMOOTH",
"278 129 OFFCURVE",
"285 211 OFFCURVE",
"285 211 CURVE",
"268 235 LINE",
"268 235 OFFCURVE",
"240 228 OFFCURVE",
"235 228 CURVE SMOOTH",
"234 228 OFFCURVE",
"205 229 OFFCURVE",
"205 229 CURVE",
"205 229 OFFCURVE",
"213 -3 OFFCURVE",
"125 -3 CURVE SMOOTH",
"102 -3 OFFCURVE",
"93 113 OFFCURVE",
"93 280 CURVE SMOOTH"
);
},
{
closed = 1;
nodes = (
"37 -41 OFFCURVE",
"5 135 OFFCURVE",
"5 300 CURVE SMOOTH",
"5 501 OFFCURVE",
"50 616 OFFCURVE",
"129 616 CURVE SMOOTH",
"178 616 OFFCURVE",
"210 586 OFFCURVE",
"228 525 CURVE",
"228 620 LINE",
"257 620 LINE",
"256 612 LINE",
"256 612 OFFCURVE",
"251 521 OFFCURVE",
"251 474 CURVE SMOOTH",
"251 428 OFFCURVE",
"257 360 OFFCURVE",
"257 360 CURVE",
"257 360 OFFCURVE",
"238 363 OFFCURVE",
"234 363 CURVE SMOOTH",
"230 363 OFFCURVE",
"212 360 OFFCURVE",
"212 360 CURVE",
"212 360 OFFCURVE",
"220 584 OFFCURVE",
"131 584 CURVE SMOOTH",
"88 584 OFFCURVE",
"66 489 OFFCURVE",
"66 300 CURVE SMOOTH",
"66 41 OFFCURVE",
"98 -13 OFFCURVE",
"125 -13 CURVE SMOOTH",
"223 -13 OFFCURVE",
"215 219 OFFCURVE",
"215 219 CURVE",
"215 219 OFFCURVE",
"234 218 OFFCURVE",
"235 218 CURVE SMOOTH",
"241 218 OFFCURVE",
"257 222 OFFCURVE",
"257 222 CURVE",
"257 222 OFFCURVE",
"251 152 OFFCURVE",
"251 105 CURVE SMOOTH",
"251 59 OFFCURVE",
"256 8 OFFCURVE",
"256 7 CURVE SMOOTH",
"257 0 LINE",
"228 0 LINE",
"228 57 LINE",
"209 -8 OFFCURVE",
"175 -41 OFFCURVE",
"125 -41 CURVE SMOOTH"
);
}
);
width = 272;
}
);
leftKerningGroup = C;
note = C;
rightKerningGroup = C;
unicode = 0043;
},
{
glyphname = D;
layers = (
{
hints = (
{
horizontal = 1;
place = "{-13, 20}";
type = Stem;
},
{
horizontal = 1;
place = "{611, 10}";
type = Stem;
},
{
place = "{5, 10}";
type = Stem;
},
{
place = "{58, 10}";
type = Stem;
},
{
place = "{127, 27}";
type = Stem;
},
{
place = "{231, 10}";
type = Stem;
},
{
place = "{297, 27}";
type = Stem;
},
{
horizontal = 1;
place = "{30, 20}";
type = Stem;
},
{
horizontal = 1;
place = "{563, 27}";
type = Stem;
},
{
horizontal = 1;
place = "{-20, 27}";
type = Stem;
},
{
place = "{11, 10}";
type = Stem;
},
{
horizontal = 1;
place = "{29, 11}";
type = Stem;
}
);
layerId = "6055A463-9BF1-4E1B-8033-BCCEA0F196EB";
paths = (
{
closed = 1;
nodes = (
"154 563 LINE",
"168 561 OFFCURVE",
"181 558 OFFCURVE",
"192 553 CURVE",
"228 510 OFFCURVE",
"231 418 OFFCURVE",
"231 290 CURVE SMOOTH",
"231 162 OFFCURVE",
"203 78 OFFCURVE",
"154 50 CURVE"
);
},
{
closed = 1;
nodes = (
"5 30 LINE",
"5 -13 LINE",
"28 -29 LINE",
"28 -29 OFFCURVE",
"83 -18 OFFCURVE",
"108 -18 CURVE SMOOTH",
"115 -18 OFFCURVE",
"122 -18 OFFCURVE",
"131 -19 CURVE SMOOTH",
"133 -19 OFFCURVE",
"137 -20 OFFCURVE",
"140 -20 CURVE SMOOTH",
"259 -20 OFFCURVE",
"324 82 OFFCURVE",
"324 270 CURVE SMOOTH",
"324 388 OFFCURVE",
"323 490 OFFCURVE",
"267 547 CURVE",
"237 593 OFFCURVE",
"184 621 OFFCURVE",
"92 621 CURVE SMOOTH",
"62 621 OFFCURVE",
"11 629 OFFCURVE",
"11 629 CURVE",
"11 580 LINE",
"34 563 LINE",
"34 563 OFFCURVE",
"46 562 OFFCURVE",
"58 560 CURVE",
"58 53 LINE",
"55 41 OFFCURVE",
"5 40 OFFCURVE",
"5 40 CURVE"
);
},
{
closed = 1;
nodes = (
"127 30 LINE",
"199 35 OFFCURVE",
"241 129 OFFCURVE",
"241 290 CURVE SMOOTH",
"241 474 OFFCURVE",
"230 586 OFFCURVE",
"127 590 CURVE"
);
},
{
closed = 1;
nodes = (
"15 29 LINE",
"15 29 OFFCURVE",
"65 33 OFFCURVE",
"68 45 CURVE",
"68 575 LINE",
"65 587 OFFCURVE",
"21 590 OFFCURVE",
"21 590 CURVE",
"21 618 LINE",
"21 618 OFFCURVE",
"66 611 OFFCURVE",
"92 611 CURVE SMOOTH",
"295 611 OFFCURVE",
"297 470 OFFCURVE",
"297 290 CURVE SMOOTH",
"297 107 OFFCURVE",
"234 7 OFFCURVE",
"120 7 CURVE SMOOTH",
"107 8 OFFCURVE",
"97 9 OFFCURVE",
"88 9 CURVE SMOOTH",
"60 9 OFFCURVE",
"15 0 OFFCURVE",
"15 0 CURVE"
);
}
);
width = 312;
}
);
leftKerningGroup = D;
note = D;
rightKerningGroup = D;
unicode = 0044;
},
{
glyphname = E;
layers = (
{
hints = (
{
horizontal = 1;
place = "{-86, 27}";
type = Stem;
},
{
horizontal = 1;
place = "{-6, 10}";
type = Stem;
},
{
horizontal = 1;
place = "{126, 25}";
type = Stem;
},
{
horizontal = 1;
place = "{184, 27}";
type = Stem;
},
{
horizontal = 1;
place = "{246, 10}";
type = Stem;
},
{
horizontal = 1;
place = "{310, 10}";
type = Stem;
},
{
horizontal = 1;
place = "{370, 27}";
type = Stem;
},
{
horizontal = 1;
place = "{609, 10}";
type = Stem;
},
{
horizontal = 1;
place = "{663, 10}";
type = Stem;
},
{
place = "{5, 10}";
type = Stem;
},
{
place = "{58, 10}";
type = Stem;
},
{
place = "{126, 27}";
type = Stem;
},
{
place = "{205, 9}";
type = Stem;
},
{
place = "{251, 10}";
type = Stem;
},
{
place = "{294, 27}";
type = Stem;
},
{
horizontal = 1;
place = "{172, 10}";
type = Stem;
},
{
place = "{235, 27}";
type = Stem;
},
{
horizontal = 1;
place = "{555, 27}";
type = Stem;
},
{
place = "{285, 27}";
type = Stem;
},
{
place = "{11, 10}";
type = Stem;
},
{
horizontal = 1;
place = "{-13, 10}";
type = Stem;
},
{
horizontal = 1;
place = "{578, 10}";
type = Stem;
},
{
horizontal = 1;
place = "{-61, 27}";
type = Stem;
}
);
layerId = "6055A463-9BF1-4E1B-8033-BCCEA0F196EB";
paths = (
{
closed = 1;
nodes = (
"153 184 LINE",
"204 184 LINE",
"207 167 OFFCURVE",
"208 145 OFFCURVE",
"208 145 CURVE",
"230 127 LINE",
"251 125 LINE",
"251 4 LINE",
"153 4 LINE"
);
},
{
closed = 1;
nodes = (
"251 -69 LINE",
"274 -86 LINE",
"327 -86 LINE",
"327 -86 OFFCURVE",
"321 -11 OFFCURVE",
"321 36 CURVE SMOOTH",
"321 83 OFFCURVE",
"327 159 OFFCURVE",
"327 159 CURVE",
"310 182 LINE",
"262 182 LINE",
"262 211 LINE SMOOTH",
"262 242 OFFCURVE",
"271 297 OFFCURVE",
"271 297 CURVE",
"254 320 LINE",
"205 320 LINE",
"205 320 OFFCURVE",
"200 266 OFFCURVE",
"195 256 CURVE",
"153 256 LINE",
"153 555 LINE",
"251 555 LINE",
"251 387 LINE",
"274 370 LINE",
"319 370 LINE",
"319 370 OFFCURVE",
"312 451 OFFCURVE",
"312 493 CURVE SMOOTH",
"312 540 OFFCURVE",
"318 650 OFFCURVE",
"318 650 CURVE",
"301 673 LINE",
"251 673 LINE",
"251 625 LINE",
"251 625 OFFCURVE",
"192 619 OFFCURVE",
"160 619 CURVE SMOOTH",
"110 619 OFFCURVE",
"11 627 OFFCURVE",
"11 627 CURVE",
"11 578 LINE",
"34 561 LINE",
"34 561 OFFCURVE",
"46 560 OFFCURVE",
"58 558 CURVE",
"58 10 LINE",
"55 -2 OFFCURVE",
"5 -3 OFFCURVE",
"5 -3 CURVE",
"5 -52 LINE",
"28 -69 LINE",
"28 -69 OFFCURVE",
"117 -61 OFFCURVE",
"169 -61 CURVE SMOOTH",
"197 -61 OFFCURVE",
"227 -61 OFFCURVE",
"251 -63 CURVE"
);
},
{
closed = 1;
nodes = (
"261 -40 LINE",
"240 -38 OFFCURVE",
"192 -34 OFFCURVE",
"149 -34 CURVE SMOOTH",
"93 -34 OFFCURVE",
"15 -41 OFFCURVE",
"15 -41 CURVE",
"15 -13 LINE",
"15 -13 OFFCURVE",
"65 -9 OFFCURVE",
"68 3 CURVE",
"68 573 LINE",
"64 586 OFFCURVE",
"21 588 OFFCURVE",
"21 588 CURVE",
"21 616 LINE",
"21 616 OFFCURVE",
"108 609 OFFCURVE",
"160 609 CURVE SMOOTH",
"203 609 OFFCURVE",
"246 614 OFFCURVE",
"261 615 CURVE",
"261 663 LINE",
"291 663 LINE",
"291 663 OFFCURVE",
"285 560 OFFCURVE",
"285 513 CURVE SMOOTH",
"285 466 OFFCURVE",
"291 397 OFFCURVE",
"291 397 CURVE",
"261 397 LINE",
"261 582 LINE",
"126 582 LINE",
"126 246 LINE",
"198 246 LINE",
"208 249 OFFCURVE",
"214 310 OFFCURVE",
"214 310 CURVE",
"243 310 LINE",
"243 310 OFFCURVE",
"235 261 OFFCURVE",
"235 231 CURVE SMOOTH",
"235 200 OFFCURVE",
"243 151 OFFCURVE",
"243 151 CURVE",
"214 151 LINE",
"214 151 OFFCURVE",
"208 209 OFFCURVE",
"197 211 CURVE",
"126 211 LINE",
"126 -6 LINE",
"261 -6 LINE",
"261 172 LINE",
"299 172 LINE",
"299 172 OFFCURVE",
"294 103 OFFCURVE",
"294 56 CURVE SMOOTH",
"294 9 OFFCURVE",
"299 -59 OFFCURVE",
"299 -59 CURVE",
"261 -59 LINE"
);
}
);
width = 314;
}
);
leftKerningGroup = E;
note = E;
rightKerningGroup = E;
unicode = 0045;
},
{
glyphname = F;
layers = (
{
hints = (
{
horizontal = 1;
place = "{0, 21}";
target = up;
type = BottomGhost;
},
{
horizontal = 1;
place = "{126, 25}";
type = Stem;
},
{
horizontal = 1;
place = "{185, 27}";
type = Stem;
},
{
horizontal = 1;
place = "{246, 10}";
type = Stem;
},
{
horizontal = 1;
place = "{310, 10}";
type = Stem;
},
{
horizontal = 1;
place = "{370, 27}";
type = Stem;
},
{
horizontal = 1;
place = "{609, 10}";
type = Stem;
},
{
horizontal = 1;
place = "{663, 10}";
type = Stem;
},
{
place = "{5, 10}";
type = Stem;
},
{
place = "{58, 10}";
type = Stem;
},
{
place = "{126, 27}";
type = Stem;
},
{
place = "{261, 10}";
type = Stem;
},
{
place = "{209, 21}";
type = Stem;
},
{
place = "{252, 27}";
type = Stem;
},
{
horizontal = 1;
place = "{555, 27}";
type = Stem;
},
{
place = "{217, 14}";
type = Stem;
},
{
place = "{294, 27}";
type = Stem;
},
{
place = "{11, 10}";
type = Stem;
},
{
horizontal = 1;
place = "{29, 8}";
type = Stem;
},
{
horizontal = 1;
place = "{579, 10}";
type = Stem;
},
{
horizontal = 1;
place = "{-12, 21}";
target = up;
type = BottomGhost;
},
{
horizontal = 1;
place = "{-18, 27}";
type = Stem;
},
{
place = "{179, 27}";
type = Stem;
}
);
layerId = "6055A463-9BF1-4E1B-8033-BCCEA0F196EB";
paths = (
{
closed = 1;
nodes = (
"153 185 LINE",
"205 185 LINE",
"209 168 OFFCURVE",
"210 145 OFFCURVE",
"210 145 CURVE",
"209 127 LINE",
"288 125 LINE",
"288 125 OFFCURVE",
"279 179 OFFCURVE",
"279 211 CURVE SMOOTH",
"279 243 OFFCURVE",
"288 297 OFFCURVE",
"288 297 CURVE",
"271 320 LINE",
"217 320 LINE",
"217 320 OFFCURVE",
"211 266 OFFCURVE",
"206 256 CURVE",
"153 256 LINE",
"153 555 LINE",
"261 555 LINE",
"261 387 LINE",
"284 370 LINE",
"327 370 LINE",
"327 370 OFFCURVE",
"321 446 OFFCURVE",
"321 493 CURVE SMOOTH",
"321 540 OFFCURVE",
"326 650 OFFCURVE",
"326 650 CURVE",
"309 673 LINE",
"261 673 LINE",
"261 625 LINE",
"240 623 OFFCURVE",
"199 619 OFFCURVE",
"160 619 CURVE SMOOTH",
"110 619 OFFCURVE",
"11 627 OFFCURVE",
"11 627 CURVE",
"11 579 LINE",
"34 562 LINE",
"34 562 OFFCURVE",
"46 561 OFFCURVE",
"58 559 CURVE",
"58 50 LINE",
"55 38 OFFCURVE",
"5 37 OFFCURVE",
"5 37 CURVE",
"5 -12 LINE",
"28 -28 LINE",
"28 -28 OFFCURVE",
"84 -18 OFFCURVE",
"117 -18 CURVE SMOOTH",
"150 -18 OFFCURVE",
"206 -28 OFFCURVE",
"206 -28 CURVE",
"206 16 LINE",
"189 39 LINE",
"189 39 OFFCURVE",
"169 41 OFFCURVE",
"153 43 CURVE"
);
},
{
closed = 1;
nodes = (
"65 9 OFFCURVE",
"15 0 OFFCURVE",
"15 0 CURVE",
"15 29 LINE",
"15 29 OFFCURVE",
"65 33 OFFCURVE",
"68 45 CURVE",
"68 573 LINE",
"64 586 OFFCURVE",
"21 589 OFFCURVE",
"21 589 CURVE",
"21 616 LINE",
"21 616 OFFCURVE",
"108 609 OFFCURVE",
"160 609 CURVE SMOOTH",
"203 609 OFFCURVE",
"253 614 OFFCURVE",
"271 616 CURVE",
"271 663 LINE",
"299 663 LINE",
"299 663 OFFCURVE",
"294 560 OFFCURVE",
"294 513 CURVE SMOOTH",
"294 466 OFFCURVE",
"299 397 OFFCURVE",
"299 397 CURVE",
"271 397 LINE",
"271 582 LINE",
"126 582 LINE",
"126 246 LINE",
"215 246 LINE",
"225 249 OFFCURVE",
"231 310 OFFCURVE",
"231 310 CURVE",
"260 310 LINE",
"260 310 OFFCURVE",
"252 262 OFFCURVE",
"252 231 CURVE SMOOTH",
"252 200 OFFCURVE",
"260 152 OFFCURVE",
"260 152 CURVE",
"231 151 LINE",
"231 151 OFFCURVE",
"225 209 OFFCURVE",
"214 212 CURVE",
"126 212 LINE",
"126 46 LINE",
"129 33 OFFCURVE",
"179 29 OFFCURVE",
"179 29 CURVE",
"179 0 LINE",
"179 0 OFFCURVE",
"129 9 OFFCURVE",
"97 9 CURVE SMOOTH"
);
}
);
width = 314;
}
);
note = F;
unicode = 0046;
},
{
glyphname = G;
layers = (
{
hints = (
{
horizontal = 1;
place = "{13, 10}";
type = Stem;
},
{
horizontal = 1;
place = "{257, 10}";
type = Stem;
},
{
horizontal = 1;
place = "{333, 27}";
type = Stem;
},
{
horizontal = 1;
place = "{557, 27}";
type = Stem;
},
{
horizontal = 1;
place = "{616, 10}";
type = Stem;
},
{
place = "{-5, 10}";
type = Stem;
},
{
place = "{66, 27}";
type = Stem;
},
{
place = "{219, 10}";
type = Stem;
},
{
place = "{268, 27}";
type = Stem;
},
{
horizontal = 1;
place = "{205, 27}";
type = Stem;
},
{
place = "{203, 11}";
type = Stem;
},
{
place = "{252, 27}";
type = Stem;
},
{
horizontal = 1;
place = "{-42, 27}";
type = Stem;
},
{
place = "{246, 27}";
type = Stem;
},
{
place = "{99, 10}";
type = Stem;
}
);
layerId = "6055A463-9BF1-4E1B-8033-BCCEA0F196EB";
paths = (
{
closed = 1;
nodes = (
"122 205 LINE",
"203 205 LINE",
"194 82 OFFCURVE",
"169 23 OFFCURVE",
"126 23 CURVE SMOOTH",
"122 23 OFFCURVE",
"119 24 OFFCURVE",
"116 25 CURVE",
"94 75 OFFCURVE",
"93 186 OFFCURVE",
"93 276 CURVE SMOOTH",
"93 462 OFFCURVE",
"113 557 OFFCURVE",
"151 557 CURVE SMOOTH",
"190 557 OFFCURVE",
"203 439 OFFCURVE",
"203 394 CURVE SMOOTH",
"203 368 OFFCURVE",
"201 345 OFFCURVE",
"201 345 CURVE",
"224 329 LINE",
"224 329 OFFCURVE",
"248 333 OFFCURVE",
"254 333 CURVE SMOOTH",
"260 333 OFFCURVE",
"285 329 OFFCURVE",
"285 329 CURVE",
"285 329 OFFCURVE",
"279 405 OFFCURVE",
"279 453 CURVE SMOOTH",
"279 499 OFFCURVE",
"283 585 OFFCURVE",
"284 586 CURVE",
"284 603 LINE",
"267 626 LINE",
"219 626 LINE",
"219 575 LINE",
"198 608 OFFCURVE",
"167 626 OFFCURVE",
"130 626 CURVE SMOOTH",
"45 626 OFFCURVE",
"-5 506 OFFCURVE",
"-5 296 CURVE SMOOTH",
"-5 127 OFFCURVE",
"25 22 OFFCURVE",
"81 -12 CURVE",
"85 -16 LINE SMOOTH",
"102 -33 OFFCURVE",
"123 -42 OFFCURVE",
"146 -42 CURVE SMOOTH",
"227 -42 OFFCURVE",
"270 42 OFFCURVE",
"273 205 CURVE",
"296 205 LINE",
"295 248 LINE",
"278 271 LINE",
"278 271 OFFCURVE",
"229 267 OFFCURVE",
"197 267 CURVE SMOOTH",
"162 267 OFFCURVE",
"99 270 OFFCURVE",
"99 270 CURVE",
"99 222 LINE"
);
},
{
closed = 1;
nodes = (
"48 -15 OFFCURVE",
"5 95 OFFCURVE",
"5 296 CURVE SMOOTH",
"5 500 OFFCURVE",
"51 616 OFFCURVE",
"130 616 CURVE SMOOTH",
"178 616 OFFCURVE",
"211 586 OFFCURVE",
"229 524 CURVE",
"229 616 LINE",
"257 616 LINE",
"257 609 LINE",
"256 608 OFFCURVE",
"252 520 OFFCURVE",
"252 473 CURVE SMOOTH",
"252 425 OFFCURVE",
"257 357 OFFCURVE",
"257 357 CURVE",
"257 357 OFFCURVE",
"238 360 OFFCURVE",
"234 360 CURVE SMOOTH",
"230 360 OFFCURVE",
"212 357 OFFCURVE",
"212 357 CURVE",
"212 357 OFFCURVE",
"229 584 OFFCURVE",
"131 584 CURVE SMOOTH",
"88 584 OFFCURVE",
"66 487 OFFCURVE",
"66 296 CURVE SMOOTH",
"66 174 OFFCURVE",
"72 13 OFFCURVE",
"126 13 CURVE SMOOTH",
"179 13 OFFCURVE",
"207 82 OFFCURVE",
"214 232 CURVE",
"109 232 LINE",
"109 260 LINE",
"109 260 OFFCURVE",
"162 257 OFFCURVE",
"197 257 CURVE SMOOTH",
"231 257 OFFCURVE",
"268 260 OFFCURVE",
"268 260 CURVE",
"269 232 LINE",
"246 232 LINE",
"245 68 OFFCURVE",
"204 -15 OFFCURVE",
"126 -15 CURVE SMOOTH"
);
}
);
width = 274;
}
);
note = G;
unicode = 0047;
},
{
glyphname = H;
layers = (
{
hints = (
{
horizontal = 1;
place = "{-102, 27}";
type = Stem;
},
{
horizontal = 1;
place = "{0, 21}";
target = up;
type = BottomGhost;
},
{
horizontal = 1;
place = "{235, 27}";
type = Stem;
},
{
horizontal = 1;
place = "{297, 10}";
type = Stem;
},
{
horizontal = 1;
place = "{581, 10}";
type = Stem;
},
{
horizontal = 1;
place = "{655, 10}";
type = Stem;
},
{
place = "{5, 10}";
type = Stem;
},
{
place = "{58, 10}";
type = Stem;
},
{
place = "{126, 27}";
type = Stem;
},
{
place = "{204, 10}";
type = Stem;
},
{
place = "{257, 10}";
type = Stem;
},
{
place = "{326, 27}";
type = Stem;
},
{
horizontal = 1;
place = "{-54, 10}";
type = Stem;
},
{
place = "{379, 27}";
type = Stem;
},
{
horizontal = 1;
place = "{-54, 15}";
type = Stem;
},
{
horizontal = 1;
place = "{29, 14}";
type = Stem;
},
{
place = "{179, 27}";
type = Stem;
},
{
horizontal = 1;
place = "{-18, 27}";
type = Stem;
},
{
horizontal = 1;
place = "{624, 10}";
type = Stem;
},
{
place = "{11, 10}";
type = Stem;
},
{
place = "{173, 25}";
type = Stem;
},
{
horizontal = 1;
place = "{610, 24}";
type = Stem;
},
{
horizontal = 1;
place = "{550, 10}";
type = Stem;
},
{
place = "{211, 10}";
type = Stem;
},
{
place = "{373, 25}";
type = Stem;
},
{
horizontal = 1;
place = "{536, 24}";
type = Stem;
},
{
horizontal = 1;
place = "{-12, 21}";
target = up;
type = BottomGhost;
}
);
layerId = "6055A463-9BF1-4E1B-8033-BCCEA0F196EB";
paths = (
{
closed = 1;
nodes = (
"379 -83 LINE",
"379 -83 OFFCURVE",
"329 -75 OFFCURVE",
"297 -75 CURVE SMOOTH",
"265 -75 OFFCURVE",
"215 -83 OFFCURVE",
"215 -83 CURVE",
"215 -54 LINE",
"215 -54 OFFCURVE",
"264 -50 OFFCURVE",
"267 -38 CURVE",
"267 262 LINE",
"126 262 LINE",
"126 46 LINE",
"129 33 OFFCURVE",
"179 29 OFFCURVE",
"179 29 CURVE",
"179 0 LINE",
"179 0 OFFCURVE",
"129 9 OFFCURVE",
"97 9 CURVE SMOOTH",
"65 9 OFFCURVE",
"15 0 OFFCURVE",
"15 0 CURVE",
"15 29 LINE",
"15 29 OFFCURVE",
"65 33 OFFCURVE",
"68 45 CURVE",
"68 618 LINE",
"64 631 OFFCURVE",
"21 634 OFFCURVE",
"21 634 CURVE",
"21 661 LINE",
"21 661 OFFCURVE",
"73 655 OFFCURVE",
"101 655 CURVE SMOOTH",
"130 655 OFFCURVE",
"173 663 OFFCURVE",
"173 663 CURVE",
"173 634 LINE",
"173 634 OFFCURVE",
"129 631 OFFCURVE",
"126 618 CURVE",
"126 297 LINE",
"267 297 LINE",
"267 545 LINE",
"264 558 OFFCURVE",
"221 560 OFFCURVE",
"221 560 CURVE",
"221 589 LINE",
"221 589 OFFCURVE",
"272 581 OFFCURVE",
"301 581 CURVE SMOOTH",
"329 581 OFFCURVE",
"373 590 OFFCURVE",
"373 590 CURVE",
"373 560 LINE",
"373 560 OFFCURVE",
"329 558 OFFCURVE",
"326 545 CURVE",
"326 -38 LINE",
"328 -50 OFFCURVE",
"379 -54 OFFCURVE",
"379 -54 CURVE"
);
},
{
closed = 1;
nodes = (
"389 -44 LINE",
"389 -44 OFFCURVE",
"368 -43 OFFCURVE",
"353 -40 CURVE",
"353 524 LINE",
"356 537 OFFCURVE",
"396 536 OFFCURVE",
"396 536 CURVE",
"400 579 LINE",
"383 603 LINE",
"383 603 OFFCURVE",
"324 591 OFFCURVE",
"301 591 CURVE SMOOTH",
"268 591 OFFCURVE",
"211 600 OFFCURVE",
"211 600 CURVE",
"211 550 LINE",
"234 533 LINE",
"234 533 OFFCURVE",
"245 532 OFFCURVE",
"257 530 CURVE",
"257 307 LINE",
"153 307 LINE",
"153 597 LINE",
"156 610 OFFCURVE",
"196 610 OFFCURVE",
"196 610 CURVE",
"200 651 LINE",
"183 675 LINE",
"183 675 OFFCURVE",
"130 665 OFFCURVE",
"101 665 CURVE SMOOTH",
"72 665 OFFCURVE",
"11 672 OFFCURVE",
"11 672 CURVE",
"11 624 LINE",
"34 607 LINE",
"34 607 OFFCURVE",
"46 606 OFFCURVE",
"58 604 CURVE",
"58 56 LINE",
"55 44 OFFCURVE",
"5 43 OFFCURVE",
"5 43 CURVE",
"5 -12 LINE",
"28 -28 LINE",
"28 -28 OFFCURVE",
"84 -18 OFFCURVE",
"117 -18 CURVE SMOOTH",
"150 -18 OFFCURVE",
"206 -28 OFFCURVE",
"206 -28 CURVE",
"206 16 LINE",
"189 39 LINE",
"189 39 OFFCURVE",
"169 41 OFFCURVE",
"153 43 CURVE",
"153 235 LINE",
"257 235 LINE",
"257 -26 LINE",
"254 -38 OFFCURVE",
"204 -39 OFFCURVE",
"204 -39 CURVE",
"205 -95 LINE",
"228 -111 LINE",
"228 -111 OFFCURVE",
"284 -102 OFFCURVE",
"317 -102 CURVE SMOOTH",
"350 -102 OFFCURVE",
"406 -111 OFFCURVE",
"406 -111 CURVE",
"406 -67 LINE"
);
}
);
width = 355;
}
);
note = H;
unicode = 0048;
},
{
glyphname = I;
layers = (
{
hints = (
{
horizontal = 1;
place = "{0, 21}";
target = up;
type = BottomGhost;
},
{
horizontal = 1;
place = "{609, 10}";
type = Stem;
},
{
place = "{-5, 10}";
type = Stem;
},
{
place = "{48, 10}";
type = Stem;
},
{
place = "{116, 27}";
type = Stem;
},
{
horizontal = 1;
place = "{-12, 21}";
target = up;
type = BottomGhost;
},
{
horizontal = 1;
place = "{29, 7}";
type = Stem;
},
{
horizontal = 1;
place = "{-18, 27}";
type = Stem;
},
{
place = "{169, 27}";
type = Stem;
},
{
horizontal = 1;
place = "{29, 10}";
type = Stem;
},
{
horizontal = 1;
place = "{565, 24}";
type = Stem;
},
{
place = "{163, 25}";
type = Stem;
},
{
place = "{1, 10}";
type = Stem;
},
{
horizontal = 1;
place = "{579, 10}";
type = Stem;
}
);
layerId = "6055A463-9BF1-4E1B-8033-BCCEA0F196EB";
paths = (
{
closed = 1;
nodes = (
"48 52 LINE",
"45 40 OFFCURVE",
"-5 36 OFFCURVE",
"-5 36 CURVE",
"-5 -12 LINE",
"18 -28 LINE",
"18 -28 OFFCURVE",
"74 -18 OFFCURVE",
"107 -18 CURVE SMOOTH",
"140 -18 OFFCURVE",
"196 -28 OFFCURVE",
"196 -28 CURVE",
"196 16 LINE",
"179 39 LINE",
"179 39 OFFCURVE",
"159 40 OFFCURVE",
"143 43 CURVE",
"143 552 LINE",
"146 565 OFFCURVE",
"186 565 OFFCURVE",
"186 565 CURVE",
"190 607 LINE",
"173 631 LINE",
"173 631 OFFCURVE",
"115 619 OFFCURVE",
"91 619 CURVE SMOOTH",
"60 619 OFFCURVE",
"1 627 OFFCURVE",
"1 627 CURVE",
"1 579 LINE",
"24 562 LINE",
"24 562 OFFCURVE",
"36 561 OFFCURVE",
"48 559 CURVE"
);
},
{
closed = 1;
nodes = (
"5 29 LINE",
"5 29 OFFCURVE",
"55 33 OFFCURVE",
"58 45 CURVE",
"58 573 LINE",
"54 586 OFFCURVE",
"11 589 OFFCURVE",
"11 589 CURVE",
"11 616 LINE",
"11 616 OFFCURVE",
"63 609 OFFCURVE",
"91 609 CURVE SMOOTH",
"120 609 OFFCURVE",
"163 618 OFFCURVE",
"163 618 CURVE",
"163 589 LINE",
"163 589 OFFCURVE",
"119 586 OFFCURVE",
"116 573 CURVE",
"116 46 LINE",
"118 33 OFFCURVE",
"169 29 OFFCURVE",
"169 29 CURVE",
"169 0 LINE",
"169 0 OFFCURVE",
"119 9 OFFCURVE",
"87 9 CURVE SMOOTH",
"55 9 OFFCURVE",
"5 0 OFFCURVE",
"5 0 CURVE"
);
}
);
width = 174;
}
);
note = I;
rightKerningGroup = I;
unicode = 0049;
},
{
glyphname = J;
layers = (
{
hints = (
{
horizontal = 1;
place = "{-223, 24}";
type = Stem;
},
{
horizontal = 1;
place = "{-88, 10}";
type = Stem;
},
{
horizontal = 1;
place = "{609, 10}";
type = Stem;
},
{
place = "{-104, 10}";
type = Stem;
},
{
place = "{-12, 10}";
type = Stem;
},
{
place = "{34, 10}";
type = Stem;
},
{
place = "{103, 27}";
type = Stem;
},
{
horizontal = 1;
place = "{-272, 27}";
type = Stem;
},
{
place = "{-71, 27}";
type = Stem;
},
{
horizontal = 1;
place = "{-226, 27}";
type = Stem;
},
{
horizontal = 1;
place = "{565, 24}";
type = Stem;
},
{
place = "{150, 25}";
type = Stem;
},
{
horizontal = 1;
place = "{-174, 10}";
type = Stem;
},
{
horizontal = 1;
place = "{579, 10}";
type = Stem;
}
);
layerId = "6055A463-9BF1-4E1B-8033-BCCEA0F196EB";
paths = (
{
closed = 1;
nodes = (
"-80 -272 LINE",
"-44 -272 LINE",
"-44 -223 LINE",
"-37 -225 OFFCURVE",
"-30 -226 OFFCURVE",
"-24 -226 CURVE SMOOTH",
"81 -226 OFFCURVE",
"130 -140 OFFCURVE",
"130 45 CURVE SMOOTH",
"130 553 LINE",
"134 565 OFFCURVE",
"173 565 OFFCURVE",
"173 565 CURVE",
"177 607 LINE",
"160 631 LINE",
"160 631 OFFCURVE",
"102 619 OFFCURVE",
"78 619 CURVE SMOOTH",
"46 619 OFFCURVE",
"-12 627 OFFCURVE",
"-12 627 CURVE",
"-12 579 LINE",
"11 562 LINE",
"11 562 OFFCURVE",
"22 561 OFFCURVE",
"34 559 CURVE",
"34 68 LINE SMOOTH",
"32 -89 OFFCURVE",
"7 -160 OFFCURVE",
"-44 -164 CURVE",
"-44 -101 LINE",
"-61 -78 LINE",
"-112 -78 LINE",
"-112 -78 OFFCURVE",
"-104 -123 OFFCURVE",
"-104 -156 CURVE SMOOTH",
"-104 -192 OFFCURVE",
"-112 -256 OFFCURVE",
"-112 -256 CURVE"
);
},
{
closed = 1;
nodes = (
"-100 -245 LINE",
"-100 -245 OFFCURVE",
"-94 -192 OFFCURVE",
"-94 -156 CURVE SMOOTH",
"-94 -121 OFFCURVE",
"-100 -88 OFFCURVE",
"-100 -88 CURVE",
"-71 -88 LINE",
"-71 -169 LINE",
"-65 -172 OFFCURVE",
"-57 -174 OFFCURVE",
"-48 -174 CURVE SMOOTH",
"13 -174 OFFCURVE",
"42 -100 OFFCURVE",
"44 68 CURVE SMOOTH",
"44 573 LINE",
"41 586 OFFCURVE",
"-2 589 OFFCURVE",
"-2 589 CURVE",
"-2 616 LINE",
"-2 616 OFFCURVE",
"49 609 OFFCURVE",
"78 609 CURVE SMOOTH",
"107 609 OFFCURVE",
"150 618 OFFCURVE",
"150 618 CURVE",
"150 589 LINE",
"150 589 OFFCURVE",
"107 586 OFFCURVE",
"103 574 CURVE",
"103 572 OFFCURVE",
"103 65 OFFCURVE",
"103 65 CURVE",
"103 -115 OFFCURVE",
"56 -199 OFFCURVE",
"-44 -199 CURVE SMOOTH",
"-53 -199 OFFCURVE",
"-62 -197 OFFCURVE",
"-71 -193 CURVE",
"-71 -245 LINE"
);
}
);
width = 165;
}
);
note = J;
unicode = 004A;
},
{
glyphname = K;
layers = (
{
hints = (
{
horizontal = 1;
place = "{-46, 9}";
type = Stem;
},
{
horizontal = 1;
place = "{0, 21}";
target = up;
type = BottomGhost;
},
{
horizontal = 1;
place = "{609, 10}";
type = Stem;
},
{
horizontal = 1;
place = "{655, 10}";
type = Stem;
},
{
place = "{-5, 10}";
type = Stem;
},
{
place = "{48, 10}";
type = Stem;
},
{
place = "{116, 27}";
type = Stem;
},
{
place = "{189, 7}";
type = Stem;
},
{
place = "{357, 27}";
type = Stem;
},
{
horizontal = 1;
place = "{-94, 27}";
type = Stem;
},
{
horizontal = 1;
place = "{560, 28}";
type = Stem;
},
{
place = "{213, 10}";
type = Stem;
},
{
horizontal = 1;
place = "{610, 24}";
type = Stem;
},
{
place = "{163, 25}";
type = Stem;
},
{
place = "{1, 10}";
type = Stem;
},
{
horizontal = 1;
place = "{29, 13}";
type = Stem;
},
{
horizontal = 1;
place = "{624, 10}";
type = Stem;
},
{
horizontal = 1;
place = "{-12, 21}";
target = up;
type = BottomGhost;
},
{
horizontal = 1;
place = "{-18, 27}";
type = Stem;
},
{
horizontal = 1;
place = "{29, 10}";
type = Stem;
}
);
layerId = "6055A463-9BF1-4E1B-8033-BCCEA0F196EB";
paths = (
{
closed = 1;
nodes = (
"189 -87 LINE",
"212 -103 LINE",
"212 -103 OFFCURVE",
"266 -94 OFFCURVE",
"298 -94 CURVE SMOOTH",
"330 -94 OFFCURVE",
"384 -103 OFFCURVE",
"384 -103 CURVE",
"384 -59 LINE",
"367 -36 LINE",
"367 -36 OFFCURVE",
"328 -34 OFFCURVE",
"310 -30 CURVE",
"185 240 LINE",
"330 548 LINE SMOOTH",
"334 558 OFFCURVE",
"384 561 OFFCURVE",
"384 561 CURVE",
"384 607 LINE",
"367 631 LINE",
"367 631 OFFCURVE",
"312 619 OFFCURVE",
"290 619 CURVE SMOOTH",
"261 619 OFFCURVE",
"213 627 OFFCURVE",
"213 627 CURVE",
"213 578 LINE",
"236 561 LINE",
"257 559 LINE",
"143 318 LINE",
"143 597 LINE",
"147 610 OFFCURVE",
"186 610 OFFCURVE",
"186 610 CURVE",
"190 651 LINE",
"173 675 LINE",
"173 675 OFFCURVE",
"120 665 OFFCURVE",
"92 665 CURVE SMOOTH",
"62 665 OFFCURVE",
"1 672 OFFCURVE",
"1 672 CURVE",
"1 624 LINE",
"24 607 LINE",
"24 607 OFFCURVE",
"36 606 OFFCURVE",
"48 604 CURVE",
"48 55 LINE",
"45 43 OFFCURVE",
"-5 42 OFFCURVE",
"-5 42 CURVE",
"-5 -12 LINE",
"18 -28 LINE",
"18 -28 OFFCURVE",
"74 -18 OFFCURVE",
"107 -18 CURVE SMOOTH",
"140 -18 OFFCURVE",
"196 -28 OFFCURVE",
"196 -28 CURVE",
"196 16 LINE",
"179 39 LINE",
"179 39 OFFCURVE",
"159 41 OFFCURVE",
"143 43 CURVE",
"143 143 LINE",
"170 85 LINE SMOOTH",
"188 45 OFFCURVE",
"206 8 OFFCURVE",
"224 -33 CURVE",
"213 -39 OFFCURVE",
"189 -37 OFFCURVE",
"189 -37 CURVE"
);
},
{
closed = 1;
nodes = (
"199 -46 LINE",
"199 -46 OFFCURVE",
"226 -45 OFFCURVE",
"237 -39 CURVE",
"130 199 LINE",
"116 171 LINE",
"116 46 LINE",
"119 33 OFFCURVE",
"169 29 OFFCURVE",
"169 29 CURVE",
"169 0 LINE",
"169 0 OFFCURVE",
"119 9 OFFCURVE",
"87 9 CURVE SMOOTH",
"55 9 OFFCURVE",
"5 0 OFFCURVE",
"5 0 CURVE",
"5 29 LINE",
"5 29 OFFCURVE",
"55 33 OFFCURVE",
"58 45 CURVE",
"58 618 LINE",
"54 631 OFFCURVE",
"11 634 OFFCURVE",
"11 634 CURVE",
"11 661 LINE",
"11 661 OFFCURVE",
"63 655 OFFCURVE",
"92 655 CURVE SMOOTH",
"120 655 OFFCURVE",
"163 663 OFFCURVE",
"163 663 CURVE",
"163 634 LINE",
"163 634 OFFCURVE",
"120 631 OFFCURVE",
"116 618 CURVE",
"116 238 LINE",
"275 575 LINE",
"273 584 OFFCURVE",
"223 588 OFFCURVE",
"223 588 CURVE",
"223 616 LINE",
"223 616 OFFCURVE",
"265 609 OFFCURVE",
"290 609 CURVE SMOOTH",
"316 609 OFFCURVE",
"357 618 OFFCURVE",
"357 618 CURVE",
"357 588 LINE",
"357 588 OFFCURVE",
"310 585 OFFCURVE",
"304 571 CURVE SMOOTH",
"158 260 LINE",
"293 -33 LINE",
"300 -42 OFFCURVE",
"357 -46 OFFCURVE",
"357 -46 CURVE",
"357 -75 LINE",
"357 -75 OFFCURVE",
"309 -67 OFFCURVE",
"278 -67 CURVE SMOOTH",
"247 -67 OFFCURVE",
"199 -75 OFFCURVE",
"199 -75 CURVE"
);
}
);
width = 292;
}
);
note = K;
unicode = 004B;
},
{
glyphname = L;
layers = (
{
hints = (
{
horizontal = 1;
place = "{-11, 21}";
target = up;
type = BottomGhost;
},
{
horizontal = 1;
place = "{35, 10}";
type = Stem;
},
{
horizontal = 1;
place = "{213, 10}";
type = Stem;
},
{
horizontal = 1;
place = "{655, 10}";
type = Stem;
},
{
place = "{-12, 10}";
type = Stem;
},
{
place = "{42, 10}";
type = Stem;
},
{
place = "{110, 27}";
type = Stem;
},
{
place = "{208, 10}";
type = Stem;
},
{
horizontal = 1;
place = "{-45, 27}";
type = Stem;
},
{
place = "{240, 27}";
type = Stem;
},
{
horizontal = 1;
place = "{610, 24}";
type = Stem;
},
{
place = "{157, 25}";
type = Stem;
},
{
place = "{-5, 10}";
type = Stem;
},
{
horizontal = 1;
place = "{28, 14}";
type = Stem;
},
{
horizontal = 1;
place = "{607, 27}";
type = Stem;
},
{
horizontal = 1;
place = "{-20, 27}";
type = Stem;
}
);
layerId = "6055A463-9BF1-4E1B-8033-BCCEA0F196EB";
paths = (
{
closed = 1;
nodes = (
"208 -28 LINE",
"214 -28 LINE",
"231 -45 LINE",
"273 -45 LINE",
"273 -45 OFFCURVE",
"267 30 OFFCURVE",
"267 77 CURVE SMOOTH",
"267 124 OFFCURVE",
"273 200 OFFCURVE",
"273 200 CURVE",
"256 223 LINE",
"208 223 LINE",
"208 45 LINE",
"137 45 LINE",
"137 597 LINE",
"141 610 OFFCURVE",
"180 610 OFFCURVE",
"180 610 CURVE",
"184 651 LINE",
"167 675 LINE",
"167 675 OFFCURVE",
"114 665 OFFCURVE",
"86 665 CURVE SMOOTH",
"56 665 OFFCURVE",
"-5 672 OFFCURVE",
"-5 672 CURVE",
"-5 624 LINE",
"18 607 LINE",
"34 607 OFFCURVE",
"38 607 OFFCURVE",
"42 606 CURVE",
"42 55 LINE",
"39 43 OFFCURVE",
"-12 42 OFFCURVE",
"-12 42 CURVE",
"-11 -11 LINE",
"12 -28 LINE",
"12 -28 OFFCURVE",
"91 -20 OFFCURVE",
"136 -20 CURVE SMOOTH",
"158 -20 OFFCURVE",
"185 -20 OFFCURVE",
"208 -22 CURVE"
);
},
{
closed = 1;
nodes = (
"218 1 LINE",
"201 3 OFFCURVE",
"154 7 OFFCURVE",
"116 7 CURVE SMOOTH",
"68 7 OFFCURVE",
"-1 0 OFFCURVE",
"-1 0 CURVE",
"-1 28 LINE",
"-1 28 OFFCURVE",
"49 32 OFFCURVE",
"52 44 CURVE",
"52 618 LINE",
"48 631 OFFCURVE",
"22 634 OFFCURVE",
"12 634 CURVE SMOOTH",
"5 634 LINE",
"5 661 LINE",
"5 661 OFFCURVE",
"57 655 OFFCURVE",
"86 655 CURVE SMOOTH",
"114 655 OFFCURVE",
"157 663 OFFCURVE",
"157 663 CURVE",
"157 634 LINE",
"157 634 OFFCURVE",
"114 631 OFFCURVE",
"110 618 CURVE",
"110 35 LINE",
"218 35 LINE",
"218 213 LINE",
"245 213 LINE",
"245 213 OFFCURVE",
"240 144 OFFCURVE",
"240 97 CURVE SMOOTH",
"240 50 OFFCURVE",
"245 -18 OFFCURVE",
"245 -18 CURVE",
"218 -18 LINE"
);
}
);
width = 260;
}
);
note = L;
unicode = 004C;
},
{
glyphname = M;
layers = (
{
hints = (
{
horizontal = 1;
place = "{-54, 12}";
type = Stem;
},
{
horizontal = 1;
place = "{-11, 20}";
type = Stem;
},
{
horizontal = 1;
place = "{43, 27}";
type = Stem;
},
{
horizontal = 1;
place = "{608, 10}";
type = Stem;
},
{
horizontal = 1;
place = "{654, 10}";
type = Stem;
},
{
place = "{-26, 10}";
type = Stem;
},
{
place = "{27, 10}";
type = Stem;
},
{
place = "{73, 27}";
type = Stem;
},
{
place = "{217, 10}";
type = Stem;
},
{
place = "{270, 10}";
type = Stem;
},
{
place = "{339, 27}";
type = Stem;
},
{
horizontal = 1;
place = "{30, 12}";
type = Stem;
},
{
horizontal = 1;
place = "{623, 10}";
type = Stem;
},
{
place = "{386, 25}";
type = Stem;
},
{
horizontal = 1;
place = "{563, 24}";
type = Stem;
},
{
place = "{392, 27}";
type = Stem;
},
{
horizontal = 1;
place = "{-102, 27}";
type = Stem;
},
{
horizontal = 1;
place = "{91, 10}";
type = Stem;
},
{
place = "{126, 27}";
type = Stem;
},
{
place = "{107, 11}";
type = Stem;
},
{
horizontal = 1;
place = "{-18, 27}";
type = Stem;
}
);
layerId = "6055A463-9BF1-4E1B-8033-BCCEA0F196EB";
paths = (
{
closed = 1;
nodes = (
"258 101 LINE",
"258 101 OFFCURVE",
"249 101 OFFCURVE",
"238 102 CURVE",
"270 253 LINE",
"270 83 LINE"
);
},
{
closed = 1;
nodes = (
"100 306 LINE",
"113 240 OFFCURVE",
"125 186 OFFCURVE",
"140 112 CURVE",
"133 104 OFFCURVE",
"106 99 OFFCURVE",
"106 99 CURVE",
"109 51 LINE",
"126 40 LINE",
"119 41 OFFCURVE",
"109 45 OFFCURVE",
"100 47 CURVE"
);
},
{
closed = 1;
nodes = (
"240 -111 LINE",
"240 -111 OFFCURVE",
"296 -102 OFFCURVE",
"330 -102 CURVE SMOOTH",
"363 -102 OFFCURVE",
"419 -111 OFFCURVE",
"419 -111 CURVE",
"419 -67 LINE",
"402 -44 LINE",
"402 -44 OFFCURVE",
"381 -43 OFFCURVE",
"366 -40 CURVE",
"366 550 LINE",
"369 563 OFFCURVE",
"409 563 OFFCURVE",
"409 563 CURVE",
"413 607 LINE",
"396 631 LINE",
"396 631 OFFCURVE",
"349 618 OFFCURVE",
"335 618 CURVE SMOOTH",
"322 618 OFFCURVE",
"273 630 OFFCURVE",
"273 630 CURVE",
"196 234 LINE",
"112 651 LINE",
"94 675 LINE",
"94 675 OFFCURVE",
"49 664 OFFCURVE",
"37 664 CURVE SMOOTH",
"20 664 OFFCURVE",
"-26 676 OFFCURVE",
"-26 676 CURVE",
"-26 623 LINE",
"-3 606 LINE",
"27 602 LINE",
"27 54 LINE",
"24 43 OFFCURVE",
"-26 42 OFFCURVE",
"-26 42 CURVE",
"-26 -11 LINE",
"-3 -27 LINE",
"-3 -27 OFFCURVE",
"47 -18 OFFCURVE",
"75 -18 CURVE SMOOTH",
"96 -18 OFFCURVE",
"153 -26 OFFCURVE",
"153 -26 CURVE",
"153 17 LINE",
"136 33 LINE",
"136 35 LINE",
"148 38 OFFCURVE",
"182 43 OFFCURVE",
"204 43 CURVE SMOOTH",
"222 43 OFFCURVE",
"258 36 OFFCURVE",
"270 33 CURVE",
"270 -29 LINE",
"267 -41 OFFCURVE",
"217 -42 OFFCURVE",
"217 -42 CURVE",
"217 -95 LINE"
);
},
{
closed = 1;
nodes = (
"118 2 LINE SMOOTH",
"117 2 OFFCURVE",
"82 9 OFFCURVE",
"55 9 CURVE SMOOTH",
"28 9 OFFCURVE",
"-16 1 OFFCURVE",
"-16 1 CURVE",
"-16 30 LINE",
"-16 30 OFFCURVE",
"34 34 OFFCURVE",
"37 45 CURVE",
"37 618 LINE",
"34 629 OFFCURVE",
"-16 633 OFFCURVE",
"-16 633 CURVE",
"-16 663 LINE",
"-16 663 OFFCURVE",
"18 654 OFFCURVE",
"37 654 CURVE SMOOTH",
"54 654 OFFCURVE",
"87 662 OFFCURVE",
"87 662 CURVE",
"190 147 LINE",
"280 617 LINE",
"280 617 OFFCURVE",
"317 608 OFFCURVE",
"335 608 CURVE SMOOTH",
"354 608 OFFCURVE",
"386 617 OFFCURVE",
"386 617 CURVE",
"386 587 LINE",
"386 587 OFFCURVE",
"342 584 OFFCURVE",
"339 571 CURVE",
"339 -38 LINE",
"341 -50 OFFCURVE",
"392 -54 OFFCURVE",
"392 -54 CURVE",
"392 -83 LINE",
"392 -83 OFFCURVE",
"342 -75 OFFCURVE",
"310 -75 CURVE SMOOTH",
"277 -75 OFFCURVE",
"227 -83 OFFCURVE",
"227 -83 CURVE",
"227 -54 LINE",
"227 -54 OFFCURVE",
"277 -50 OFFCURVE",
"280 -38 CURVE",
"280 458 LINE",
"207 99 LINE",
"217 92 OFFCURVE",
"248 91 OFFCURVE",
"248 91 CURVE",
"248 61 LINE",
"248 61 OFFCURVE",
"208 70 OFFCURVE",
"184 70 CURVE SMOOTH",
"159 70 OFFCURVE",
"119 63 OFFCURVE",
"119 63 CURVE",
"118 90 LINE",
"118 90 OFFCURVE",
"145 95 OFFCURVE",
"152 103 CURVE",
"73 495 LINE",
"73 46 LINE",
"76 34 OFFCURVE",
"126 30 OFFCURVE",
"126 30 CURVE",
"126 1 LINE"
);
}
);
width = 383;
}
);
note = M;
unicode = 004D;
},
{
glyphname = N;
layers = (
{
hints = (
{
horizontal = 1;
place = "{-102, 27}";
type = Stem;
},
{
horizontal = 1;
place = "{-12, 20}";
type = Stem;
},
{
horizontal = 1;
place = "{580, 10}";
type = Stem;
},
{
horizontal = 1;
place = "{654, 10}";
type = Stem;
},
{
place = "{-26, 10}";
type = Stem;
},
{
place = "{27, 10}";
type = Stem;
},
{
place = "{73, 27}";
type = Stem;
},
{
place = "{164, 10}";
type = Stem;
},
{
place = "{217, 10}";
type = Stem;
},
{
place = "{263, 27}";
type = Stem;
},
{
horizontal = 1;
place = "{29, 10}";
type = Stem;
},
{
horizontal = 1;
place = "{-19, 27}";
type = Stem;
},
{
place = "{126, 27}";
type = Stem;
},
{
horizontal = 1;
place = "{-55, 10}";
type = Stem;
},
{
place = "{305, 27}";
type = Stem;
},
{
horizontal = 1;
place = "{536, 24}";
type = Stem;
},
{
place = "{316, 25}";
type = Stem;
},
{
horizontal = 1;
place = "{550, 10}";
type = Stem;
},
{
horizontal = 1;
place = "{623, 10}";
type = Stem;
}
);
layerId = "6055A463-9BF1-4E1B-8033-BCCEA0F196EB";
paths = (
{
closed = 1;
nodes = (
"27 54 LINE",
"24 43 OFFCURVE",
"-26 39 OFFCURVE",
"-26 39 CURVE",
"-26 -12 LINE",
"-3 -28 LINE",
"-3 -28 OFFCURVE",
"45 -19 OFFCURVE",
"75 -19 CURVE SMOOTH",
"103 -19 OFFCURVE",
"153 -28 OFFCURVE",
"153 -28 CURVE",
"153 16 LINE",
"136 39 LINE",
"136 39 OFFCURVE",
"116 40 OFFCURVE",
"100 43 CURVE",
"100 373 LINE",
"194 -38 LINE",
"187 -45 OFFCURVE",
"164 -45 OFFCURVE",
"164 -45 CURVE",
"164 -94 LINE",
"187 -110 LINE",
"187 -110 OFFCURVE",
"235 -102 OFFCURVE",
"260 -102 CURVE SMOOTH",
"282 -102 OFFCURVE",
"332 -113 OFFCURVE",
"332 -113 CURVE",
"332 -68 LINE",
"315 -45 LINE",
"315 -45 OFFCURVE",
"302 -45 OFFCURVE",
"290 -44 CURVE",
"290 523 LINE",
"293 535 OFFCURVE",
"340 536 OFFCURVE",
"340 536 CURVE",
"343 575 LINE",
"326 599 LINE",
"326 599 OFFCURVE",
"269 590 OFFCURVE",
"245 590 CURVE SMOOTH",
"215 590 OFFCURVE",
"164 598 OFFCURVE",
"164 598 CURVE",
"165 550 LINE",
"188 533 LINE",
"188 533 OFFCURVE",
"203 531 OFFCURVE",
"217 529 CURVE",
"217 224 LINE",
"112 651 LINE",
"94 675 LINE",
"94 675 OFFCURVE",
"49 664 OFFCURVE",
"37 664 CURVE SMOOTH",
"20 664 OFFCURVE",
"-26 676 OFFCURVE",
"-26 676 CURVE",
"-26 623 LINE",
"-3 606 LINE",
"27 602 LINE"
);
},
{
closed = 1;
nodes = (
"-16 29 LINE",
"-16 29 OFFCURVE",
"34 33 OFFCURVE",
"37 44 CURVE",
"37 618 LINE",
"34 629 OFFCURVE",
"-16 633 OFFCURVE",
"-16 633 CURVE",
"-16 663 LINE",
"-16 663 OFFCURVE",
"18 654 OFFCURVE",
"37 654 CURVE SMOOTH",
"54 654 OFFCURVE",
"87 662 OFFCURVE",
"87 662 CURVE",
"227 90 LINE",
"227 544 LINE",
"224 556 OFFCURVE",
"175 560 OFFCURVE",
"175 560 CURVE",
"174 587 LINE",
"174 587 OFFCURVE",
"219 580 OFFCURVE",
"245 580 CURVE SMOOTH",
"271 580 OFFCURVE",
"316 587 OFFCURVE",
"316 587 CURVE",
"316 560 LINE",
"316 560 OFFCURVE",
"266 556 OFFCURVE",
"263 544 CURVE",
"263 -47 LINE",
"273 -53 OFFCURVE",
"305 -55 OFFCURVE",
"305 -55 CURVE",
"305 -84 LINE",
"305 -84 OFFCURVE",
"264 -75 OFFCURVE",
"240 -75 CURVE SMOOTH",
"216 -75 OFFCURVE",
"174 -82 OFFCURVE",
"174 -82 CURVE",
"175 -55 LINE",
"175 -55 OFFCURVE",
"198 -51 OFFCURVE",
"206 -45 CURVE",
"73 540 LINE",
"73 45 LINE",
"76 33 OFFCURVE",
"126 29 OFFCURVE",
"126 29 CURVE",
"126 0 LINE",
"126 0 OFFCURVE",
"82 8 OFFCURVE",
"55 8 CURVE SMOOTH",
"27 8 OFFCURVE",
"-16 0 OFFCURVE",
"-16 0 CURVE"
);
}
);
width = 305;
}
);
leftKerningGroup = N;
note = N;
rightKerningGroup = N;
unicode = 004E;
},
{
glyphname = O;
layers = (
{
hints = (
{
horizontal = 1;
place = "{29, 10}";
type = Stem;
},
{
horizontal = 1;
place = "{533, 27}";
type = Stem;
},
{
horizontal = 1;
place = "{592, 10}";
type = Stem;
},
{
place = "{-5, 10}";
type = Stem;
},
{
place = "{63, 27}";
type = Stem;
},
{
place = "{243, 10}";
type = Stem;
},
{
place = "{311, 27}";
type = Stem;
},
{
horizontal = 1;
place = "{-25, 27}";
type = Stem;
}
);
layerId = "6055A463-9BF1-4E1B-8033-BCCEA0F196EB";
paths = (
{
closed = 1;
nodes = (
"90 442 OFFCURVE",
"131 533 OFFCURVE",
"174 533 CURVE SMOOTH",
"204 533 OFFCURVE",
"243 410 OFFCURVE",
"243 287 CURVE SMOOTH",
"243 106 OFFCURVE",
"190 39 OFFCURVE",
"156 39 CURVE SMOOTH",
"111 39 OFFCURVE",
"90 163 OFFCURVE",
"90 267 CURVE SMOOTH"
);
},
{
closed = 1;
nodes = (
"288 -25 OFFCURVE",
"338 127 OFFCURVE",
"338 267 CURVE SMOOTH",
"338 389 OFFCURVE",
"307 487 OFFCURVE",
"258 539 CURVE",
"231 579 OFFCURVE",
"196 602 OFFCURVE",
"156 602 CURVE SMOOTH",
"61 602 OFFCURVE",
"-5 472 OFFCURVE",
"-5 287 CURVE SMOOTH",
"-5 136 OFFCURVE",
"39 47 OFFCURVE",
"94 11 CURVE",
"119 -13 OFFCURVE",
"148 -25 OFFCURVE",
"176 -25 CURVE SMOOTH"
);
},
{
closed = 1;
nodes = (
"110 560 OFFCURVE",
"63 467 OFFCURVE",
"63 287 CURVE SMOOTH",
"63 118 OFFCURVE",
"110 29 OFFCURVE",
"156 29 CURVE SMOOTH",
"194 29 OFFCURVE",
"253 99 OFFCURVE",
"253 287 CURVE SMOOTH",
"253 465 OFFCURVE",
"203 560 OFFCURVE",
"156 560 CURVE SMOOTH"
);
},
{
closed = 1;
nodes = (
"81 2 OFFCURVE",
"5 90 OFFCURVE",
"5 287 CURVE SMOOTH",
"5 466 OFFCURVE",
"67 592 OFFCURVE",
"156 592 CURVE SMOOTH",
"246 592 OFFCURVE",
"311 464 OFFCURVE",
"311 287 CURVE SMOOTH",
"311 150 OFFCURVE",
"263 2 OFFCURVE",
"156 2 CURVE SMOOTH"
);
}
);
width = 316;
}
);
leftKerningGroup = O;
note = O;
rightKerningGroup = O;
unicode = 004F;
},
{
glyphname = P;
layers = (
{
hints = (
{
horizontal = 1;
place = "{0, 21}";
target = up;
type = BottomGhost;
},
{
horizontal = 1;
place = "{248, 16}";
type = Stem;
},
{
horizontal = 1;
place = "{658, 10}";
type = Stem;
},
{
place = "{-20, 10}";
type = Stem;
},
{
place = "{33, 10}";
type = Stem;
},
{
place = "{102, 27}";
type = Stem;
},
{
place = "{206, 10}";
type = Stem;
},
{
place = "{272, 27}";
type = Stem;
},
{
horizontal = 1;
place = "{-18, 27}";
type = Stem;
},
{
horizontal = 1;
place = "{608, 27}";
type = Stem;
},
{
horizontal = 1;
place = "{29, 13}";
type = Stem;
},
{
place = "{-14, 10}";
type = Stem;
},
{
place = "{155, 27}";
type = Stem;
},
{
horizontal = 1;
place = "{-12, 21}";
target = up;
type = BottomGhost;
}
);
layerId = "6055A463-9BF1-4E1B-8033-BCCEA0F196EB";
paths = (
{
closed = 1;
nodes = (
"129 608 LINE",
"149 606 OFFCURVE",
"166 603 OFFCURVE",
"179 598 CURVE",
"200 572 OFFCURVE",
"206 526 OFFCURVE",
"206 448 CURVE SMOOTH",
"206 371 OFFCURVE",
"190 288 OFFCURVE",
"129 264 CURVE"
);
},
{
closed = 1;
nodes = (
"129 192 LINE",
"221 195 OFFCURVE",
"299 268 OFFCURVE",
"299 428 CURVE SMOOTH",
"299 513 OFFCURVE",
"291 571 OFFCURVE",
"256 605 CURVE",
"255 605 LINE",
"231 647 OFFCURVE",
"185 667 OFFCURVE",
"101 668 CURVE",
"101 668 OFFCURVE",
"75 666 OFFCURVE",
"67 666 CURVE SMOOTH",
"37 666 OFFCURVE",
"-14 674 OFFCURVE",
"-14 674 CURVE",
"-14 625 LINE",
"9 608 LINE",
"9 608 OFFCURVE",
"21 607 OFFCURVE",
"33 605 CURVE",
"33 55 LINE",
"30 43 OFFCURVE",
"-20 42 OFFCURVE",
"-20 42 CURVE",
"-20 -12 LINE",
"3 -28 LINE",
"3 -28 OFFCURVE",
"59 -18 OFFCURVE",
"92 -18 CURVE SMOOTH",
"126 -18 OFFCURVE",
"182 -28 OFFCURVE",
"182 -28 CURVE",
"182 16 LINE",
"165 39 LINE",
"165 39 OFFCURVE",
"144 40 OFFCURVE",
"129 42 CURVE"
);
},
{
closed = 1;
nodes = (
"102 248 LINE",
"196 251 OFFCURVE",
"216 355 OFFCURVE",
"216 448 CURVE SMOOTH",
"216 594 OFFCURVE",
"204 634 OFFCURVE",
"102 635 CURVE"
);
},
{
closed = 1;
nodes = (
"40 9 OFFCURVE",
"-10 0 OFFCURVE",
"-10 0 CURVE",
"-10 29 LINE",
"-10 29 OFFCURVE",
"40 33 OFFCURVE",
"43 45 CURVE",
"43 620 LINE",
"40 632 OFFCURVE",
"-4 635 OFFCURVE",
"-4 635 CURVE",
"-4 663 LINE",
"-4 663 OFFCURVE",
"41 656 OFFCURVE",
"67 656 CURVE SMOOTH",
"75 656 OFFCURVE",
"102 658 OFFCURVE",
"102 658 CURVE",
"248 656 OFFCURVE",
"272 593 OFFCURVE",
"272 448 CURVE SMOOTH",
"272 291 OFFCURVE",
"191 220 OFFCURVE",
"102 219 CURVE",
"102 45 LINE",
"104 33 OFFCURVE",
"155 29 OFFCURVE",
"155 29 CURVE",
"155 0 LINE",
"155 0 OFFCURVE",
"105 9 OFFCURVE",
"72 9 CURVE SMOOTH"
);
}
);
width = 287;
}
);
note = P;
unicode = 0050;
},
{
glyphname = Q;
layers = (
{
hints = (
{
horizontal = 1;
place = "{-37, 10}";
type = Stem;
},
{
horizontal = 1;
place = "{29, 10}";
type = Stem;
},
{
horizontal = 1;
place = "{561, 27}";
type = Stem;
},
{
horizontal = 1;
place = "{619, 10}";
type = Stem;
},
{
place = "{-5, 10}";
type = Stem;
},
{
place = "{63, 27}";
type = Stem;
},
{
place = "{243, 10}";
type = Stem;
},
{
place = "{311, 27}";
type = Stem;
},
{
place = "{11, 10}";
type = Stem;
},
{
horizontal = 1;
place = "{-8, 10}";
type = Stem;
},
{
horizontal = 1;
place = "{-92, 27}";
type = Stem;
},
{
horizontal = 1;
place = "{-25, 27}";
type = Stem;
},
{
place = "{341, 27}";
type = Stem;
}
);
layerId = "6055A463-9BF1-4E1B-8033-BCCEA0F196EB";
paths = (
{
closed = 1;
nodes = (
"90 443 OFFCURVE",
"134 561 OFFCURVE",
"176 561 CURVE SMOOTH",
"179 561 OFFCURVE",
"183 560 OFFCURVE",
"186 558 CURVE",
"217 518 OFFCURVE",
"243 419 OFFCURVE",
"243 287 CURVE SMOOTH",
"243 106 OFFCURVE",
"190 39 OFFCURVE",
"156 39 CURVE SMOOTH",
"147 39 OFFCURVE",
"138 43 OFFCURVE",
"129 50 CURVE",
"106 91 OFFCURVE",
"90 163 OFFCURVE",
"90 267 CURVE SMOOTH"
);
},
{
closed = 1;
nodes = (
"338 400 OFFCURVE",
"302 514 OFFCURVE",
"250 569 CURVE",
"224 607 OFFCURVE",
"191 629 OFFCURVE",
"156 629 CURVE SMOOTH",
"65 629 OFFCURVE",
"-5 479 OFFCURVE",
"-5 287 CURVE SMOOTH",
"-5 180 OFFCURVE",
"21 91 OFFCURVE",
"63 39 CURVE",
"11 39 LINE",
"11 -8 LINE",
"34 -25 LINE",
"83 -25 OFFCURVE",
"136 -42 OFFCURVE",
"188 -59 CURVE SMOOTH",
"238 -75 OFFCURVE",
"288 -92 OFFCURVE",
"330 -92 CURVE SMOOTH",
"368 -92 LINE",
"368 -50 LINE",
"351 -27 LINE",
"319 -27 LINE SMOOTH",
"287 -27 OFFCURVE",
"259 -19 OFFCURVE",
"234 -8 CURVE",
"291 25 OFFCURVE",
"338 114 OFFCURVE",
"338 267 CURVE SMOOTH"
);
},
{
closed = 1;
nodes = (
"111 588 OFFCURVE",
"63 467 OFFCURVE",
"63 287 CURVE SMOOTH",
"63 118 OFFCURVE",
"110 29 OFFCURVE",
"156 29 CURVE SMOOTH",
"194 29 OFFCURVE",
"253 99 OFFCURVE",
"253 287 CURVE SMOOTH",
"253 467 OFFCURVE",
"203 588 OFFCURVE",
"156 588 CURVE SMOOTH"
);
},
{
closed = 1;
nodes = (
"310 -65 LINE SMOOTH",
"229 -65 OFFCURVE",
"108 2 OFFCURVE",
"21 2 CURVE",
"21 29 LINE",
"86 29 LINE",
"35 74 OFFCURVE",
"5 168 OFFCURVE",
"5 287 CURVE SMOOTH",
"5 473 OFFCURVE",
"71 619 OFFCURVE",
"156 619 CURVE SMOOTH",
"243 619 OFFCURVE",
"311 473 OFFCURVE",
"311 287 CURVE SMOOTH",
"311 115 OFFCURVE",
"251 25 OFFCURVE",
"184 6 CURVE",
"199 -2 LINE SMOOTH",
"234 -19 OFFCURVE",
"270 -37 OFFCURVE",
"319 -37 CURVE SMOOTH",
"337 -37 OFFCURVE",
"341 -37 OFFCURVE",
"341 -37 CURVE",
"341 -65 LINE"
);
}
);
width = 311;
}
);
leftKerningGroup = O;
note = Q;
rightKerningGroup = O;
unicode = 0051;
},
{
glyphname = R;
layers = (
{
hints = (
{
horizontal = 1;
place = "{-97, 27}";
type = Stem;
},
{
horizontal = 1;
place = "{0, 21}";
target = up;
type = BottomGhost;
},
{
horizontal = 1;
place = "{612, 10}";
type = Stem;
},
{
place = "{-22, 10}";
type = Stem;
},
{
place = "{31, 10}";
type = Stem;
},
{
place = "{99, 27}";
type = Stem;
},
{
place = "{203, 10}";
type = Stem;
},
{
place = "{269, 27}";
type = Stem;
},
{
place = "{342, 27}";
type = Stem;
},
{
horizontal = 1;
place = "{205, 15}";
type = Stem;
},
{
horizontal = 1;
place = "{562, 27}";
type = Stem;
},
{
place = "{173, 10}";
type = Stem;
},
{
horizontal = 1;
place = "{-49, 9}";
type = Stem;
},
{
horizontal = 1;
place = "{29, 10}";
type = Stem;
},
{
place = "{152, 27}";
type = Stem;
},
{
horizontal = 1;
place = "{-18, 27}";
type = Stem;
},
{
horizontal = 1;
place = "{29, 13}";
type = Stem;
},
{
horizontal = 1;
place = "{580, 10}";
type = Stem;
},
{
place = "{-16, 10}";
type = Stem;
},
{
horizontal = 1;
place = "{-12, 21}";
target = up;
type = BottomGhost;
}
);
layerId = "6055A463-9BF1-4E1B-8033-BCCEA0F196EB";
paths = (
{
closed = 1;
nodes = (
"126 562 LINE",
"148 561 OFFCURVE",
"165 558 OFFCURVE",
"179 552 CURVE",
"198 528 OFFCURVE",
"203 485 OFFCURVE",
"203 412 CURVE SMOOTH",
"203 320 OFFCURVE",
"175 240 OFFCURVE",
"126 220 CURVE"
);
},
{
closed = 1;
nodes = (
"296 476 OFFCURVE",
"289 529 OFFCURVE",
"257 561 CURVE SMOOTH",
"255 563 LINE",
"231 604 OFFCURVE",
"184 621 OFFCURVE",
"98 622 CURVE",
"98 622 OFFCURVE",
"73 620 OFFCURVE",
"65 620 CURVE SMOOTH",
"34 620 OFFCURVE",
"-16 628 OFFCURVE",
"-16 628 CURVE",
"-16 580 LINE",
"7 563 LINE",
"7 563 OFFCURVE",
"19 562 OFFCURVE",
"31 560 CURVE",
"31 55 LINE",
"28 43 OFFCURVE",
"-22 42 OFFCURVE",
"-22 42 CURVE",
"-22 -12 LINE",
"1 -28 LINE",
"1 -28 OFFCURVE",
"57 -18 OFFCURVE",
"90 -18 CURVE SMOOTH",
"123 -18 OFFCURVE",
"179 -28 OFFCURVE",
"179 -28 CURVE",
"179 16 LINE",
"162 39 LINE",
"162 39 OFFCURVE",
"142 40 OFFCURVE",
"126 43 CURVE",
"126 146 LINE",
"206 -34 LINE",
"195 -39 OFFCURVE",
"173 -41 OFFCURVE",
"173 -41 CURVE",
"174 -90 LINE",
"197 -106 LINE",
"197 -106 OFFCURVE",
"251 -97 OFFCURVE",
"283 -97 CURVE SMOOTH",
"315 -97 OFFCURVE",
"369 -106 OFFCURVE",
"369 -106 CURVE",
"369 -63 LINE",
"352 -40 LINE",
"352 -40 OFFCURVE",
"313 -36 OFFCURVE",
"294 -32 CURVE",
"203 167 LINE",
"264 200 OFFCURVE",
"296 294 OFFCURVE",
"296 392 CURVE SMOOTH"
);
},
{
closed = 1;
nodes = (
"99 205 LINE",
"103 205 OFFCURVE",
"120 207 OFFCURVE",
"120 207 CURVE",
"182 220 OFFCURVE",
"213 308 OFFCURVE",
"213 412 CURVE SMOOTH",
"213 555 OFFCURVE",
"203 588 OFFCURVE",
"99 589 CURVE"
);
},
{
closed = 1;
nodes = (
"232 -70 OFFCURVE",
"184 -78 OFFCURVE",
"184 -78 CURVE",
"184 -49 LINE",
"184 -49 OFFCURVE",
"211 -48 OFFCURVE",
"222 -43 CURVE",
"123 177 LINE",
"115 176 OFFCURVE",
"107 175 OFFCURVE",
"99 175 CURVE",
"99 45 LINE",
"102 33 OFFCURVE",
"152 29 OFFCURVE",
"152 29 CURVE",
"152 0 LINE",
"152 0 OFFCURVE",
"102 9 OFFCURVE",
"70 9 CURVE SMOOTH",
"38 9 OFFCURVE",
"-12 0 OFFCURVE",
"-12 0 CURVE",
"-12 29 LINE",
"-12 29 OFFCURVE",
"38 33 OFFCURVE",
"41 45 CURVE",
"41 574 LINE",
"37 587 OFFCURVE",
"-6 590 OFFCURVE",
"-6 590 CURVE",
"-6 617 LINE",
"-6 617 OFFCURVE",
"38 610 OFFCURVE",
"65 610 CURVE SMOOTH",
"73 610 OFFCURVE",
"99 612 OFFCURVE",
"99 612 CURVE",
"245 610 OFFCURVE",
"269 560 OFFCURVE",
"269 412 CURVE SMOOTH",
"269 312 OFFCURVE",
"237 218 OFFCURVE",
"174 190 CURVE",
"278 -36 LINE",
"286 -45 OFFCURVE",
"342 -49 OFFCURVE",
"342 -49 CURVE",
"342 -78 LINE",
"342 -78 OFFCURVE",
"294 -70 OFFCURVE",
"263 -70 CURVE SMOOTH"
);
}
);
width = 277;
}
);
note = R;
unicode = 0052;
},
{
glyphname = S;
layers = (
{
hints = (
{
horizontal = 1;
place = "{-8, 10}";
type = Stem;
},
{
horizontal = 1;
place = "{233, 10}";
type = Stem;
},
{
horizontal = 1;
place = "{400, 27}";
type = Stem;
},
{
horizontal = 1;
place = "{563, 27}";
type = Stem;
},
{
horizontal = 1;
place = "{649, 10}";
type = Stem;
},
{
place = "{11, 10}";
type = Stem;
},
{
place = "{79, 27}";
type = Stem;
},
{
place = "{206, 27}";
type = Stem;
},
{
place = "{173, 10}";
type = Stem;
},
{
horizontal = 1;
place = "{618, 10}";
type = Stem;
},
{
place = "{25, 10}";
type = Stem;
},
{
horizontal = 1;
place = "{29, 10}";
type = Stem;
},
{
place = "{43, 27}";
type = Stem;
},
{
place = "{167, 10}";
type = Stem;
},
{
horizontal = 1;
place = "{-25, 27}";
type = Stem;
},
{
horizontal = 1;
place = "{-4, 21}";
target = up;
type = BottomGhost;
},
{
place = "{239, 27}";
type = Stem;
}
);
layerId = "6055A463-9BF1-4E1B-8033-BCCEA0F196EB";
paths = (
{
closed = 1;
nodes = (
"195 400 LINE",
"239 400 LINE",
"239 400 OFFCURVE",
"233 475 OFFCURVE",
"233 522 CURVE SMOOTH",
"233 564 OFFCURVE",
"239 636 OFFCURVE",
"239 636 CURVE",
"222 659 LINE",
"173 659 LINE",
"173 614 LINE",
"159 623 OFFCURVE",
"143 628 OFFCURVE",
"124 628 CURVE SMOOTH",
"87 628 OFFCURVE",
"25 610 OFFCURVE",
"25 489 CURVE SMOOTH",
"25 418 OFFCURVE",
"64 336 OFFCURVE",
"101 284 CURVE SMOOTH",
"135 238 OFFCURVE",
"167 192 OFFCURVE",
"167 137 CURVE SMOOTH",
"167 70 OFFCURVE",
"150 39 OFFCURVE",
"113 39 CURVE SMOOTH",
"102 39 OFFCURVE",
"92 42 OFFCURVE",
"84 49 CURVE",
"74 69 OFFCURVE",
"70 97 OFFCURVE",
"70 133 CURVE SMOOTH",
"70 220 LINE",
"53 243 LINE",
"4 243 LINE",
"4 243 OFFCURVE",
"11 162 OFFCURVE",
"11 117 CURVE SMOOTH",
"11 71 OFFCURVE",
"4 -8 OFFCURVE",
"4 -8 CURVE",
"27 -25 LINE",
"70 -25 LINE",
"70 -4 LINE",
"85 -18 OFFCURVE",
"106 -25 OFFCURVE",
"132 -25 CURVE SMOOTH",
"197 -25 OFFCURVE",
"266 30 OFFCURVE",
"266 121 CURVE SMOOTH",
"266 203 OFFCURVE",
"227 259 OFFCURVE",
"187 306 CURVE SMOOTH",
"178 318 OFFCURVE",
"169 329 OFFCURVE",
"159 340 CURVE",
"131 379 OFFCURVE",
"108 432 OFFCURVE",
"106 469 CURVE SMOOTH",
"103 510 OFFCURVE",
"110 540 OFFCURVE",
"122 554 CURVE SMOOTH",
"128 560 OFFCURVE",
"135 563 OFFCURVE",
"144 563 CURVE SMOOTH",
"148 563 OFFCURVE",
"151 562 OFFCURVE",
"154 561 CURVE",
"171 535 OFFCURVE",
"174 488 OFFCURVE",
"174 458 CURVE SMOOTH",
"174 437 OFFCURVE",
"172 417 OFFCURVE",
"172 417 CURVE"
);
},
{
closed = 1;
nodes = (
"81 2 OFFCURVE",
"58 13 OFFCURVE",
"43 36 CURVE",
"43 2 LINE",
"15 2 LINE",
"15 2 OFFCURVE",
"21 70 OFFCURVE",
"21 117 CURVE SMOOTH",
"21 164 OFFCURVE",
"15 233 OFFCURVE",
"15 233 CURVE",
"43 233 LINE",
"43 153 LINE SMOOTH",
"43 76 OFFCURVE",
"70 29 OFFCURVE",
"113 29 CURVE SMOOTH",
"157 29 OFFCURVE",
"177 63 OFFCURVE",
"177 137 CURVE SMOOTH",
"177 196 OFFCURVE",
"144 242 OFFCURVE",
"109 290 CURVE SMOOTH",
"73 340 OFFCURVE",
"35 420 OFFCURVE",
"35 489 CURVE SMOOTH",
"35 601 OFFCURVE",
"91 618 OFFCURVE",
"124 618 CURVE SMOOTH",
"150 618 OFFCURVE",
"169 609 OFFCURVE",
"183 590 CURVE",
"183 649 LINE",
"211 649 LINE",
"211 649 OFFCURVE",
"206 589 OFFCURVE",
"206 542 CURVE SMOOTH",
"206 495 OFFCURVE",
"211 427 OFFCURVE",
"211 427 CURVE",
"183 427 LINE",
"183 427 OFFCURVE",
"197 590 OFFCURVE",
"124 590 CURVE SMOOTH",
"113 590 OFFCURVE",
"104 586 OFFCURVE",
"97 579 CURVE SMOOTH",
"83 563 OFFCURVE",
"76 531 OFFCURVE",
"79 489 CURVE SMOOTH",
"82 445 OFFCURVE",
"112 381 OFFCURVE",
"146 341 CURVE SMOOTH",
"189 290 OFFCURVE",
"239 233 OFFCURVE",
"239 141 CURVE SMOOTH",
"239 54 OFFCURVE",
"174 2 OFFCURVE",
"112 2 CURVE SMOOTH"
);
}
);
width = 240;
}
);
leftKerningGroup = S;
note = S;
rightKerningGroup = S;
unicode = 0053;
},
{
glyphname = T;
layers = (
{
hints = (
{
horizontal = 1;
place = "{-12, 21}";
target = up;
type = BottomGhost;
},
{
horizontal = 1;
place = "{27, 13}";
type = Stem;
},
{
horizontal = 1;
place = "{434, 27}";
type = Stem;
},
{
horizontal = 1;
place = "{493, 27}";
type = Stem;
},
{
horizontal = 1;
place = "{553, 10}";
type = Stem;
},
{
place = "{-3, 10}";
type = Stem;
},
{
place = "{59, 10}";
type = Stem;
},
{
place = "{112, 10}";
type = Stem;
},
{
place = "{180, 27}";
type = Stem;
},
{
place = "{262, 10}";
type = Stem;
},
{
horizontal = 1;
place = "{451, 10}";
type = Stem;
},
{
horizontal = 1;
place = "{587, 10}";
type = Stem;
},
{
place = "{295, 27}";
type = Stem;
},
{
place = "{29, 23}";
type = Stem;
},
{
place = "{29, 27}";
type = Stem;
},
{
horizontal = 1;
place = "{-21, 27}";
type = Stem;
},
{
place = "{233, 27}";
type = Stem;
}
);
layerId = "6055A463-9BF1-4E1B-8033-BCCEA0F196EB";
paths = (
{
closed = 1;
nodes = (
"207 493 LINE",
"260 493 LINE",
"261 483 OFFCURVE",
"262 470 OFFCURVE",
"262 451 CURVE",
"285 434 LINE",
"330 434 LINE",
"330 434 OFFCURVE",
"322 474 OFFCURVE",
"322 498 CURVE SMOOTH",
"322 525 OFFCURVE",
"329 574 OFFCURVE",
"329 574 CURVE",
"312 597 LINE",
"262 597 LINE",
"262 597 OFFCURVE",
"260 572 OFFCURVE",
"255 563 CURVE",
"52 563 LINE",
"52 570 LINE",
"33 597 LINE",
"-10 597 LINE",
"-10 597 OFFCURVE",
"-3 548 OFFCURVE",
"-3 518 CURVE SMOOTH",
"-3 496 OFFCURVE",
"-12 451 OFFCURVE",
"-12 451 CURVE",
"12 434 LINE",
"56 434 LINE",
"56 473 OFFCURVE",
"59 489 OFFCURVE",
"66 493 CURVE",
"112 493 LINE",
"112 52 LINE",
"109 41 OFFCURVE",
"59 40 OFFCURVE",
"59 40 CURVE",
"59 -12 LINE",
"82 -29 LINE",
"82 -29 OFFCURVE",
"140 -21 OFFCURVE",
"171 -21 CURVE SMOOTH",
"202 -21 OFFCURVE",
"260 -29 OFFCURVE",
"260 -29 CURVE",
"260 14 LINE",
"243 37 LINE",
"243 37 OFFCURVE",
"222 38 OFFCURVE",
"207 40 CURVE"
);
},
{
closed = 1;
nodes = (
"120 6 OFFCURVE",
"69 -1 OFFCURVE",
"69 -1 CURVE",
"69 27 LINE",
"69 27 OFFCURVE",
"119 31 OFFCURVE",
"122 42 CURVE",
"122 520 LINE",
"45 520 LINE",
"33 517 OFFCURVE",
"29 503 OFFCURVE",
"29 461 CURVE",
"1 461 LINE",
"1 461 OFFCURVE",
"7 491 OFFCURVE",
"7 518 CURVE SMOOTH",
"7 545 OFFCURVE",
"1 587 OFFCURVE",
"1 587 CURVE",
"29 587 LINE",
"29 587 OFFCURVE",
"30 557 OFFCURVE",
"45 553 CURVE",
"257 553 LINE",
"272 557 OFFCURVE",
"272 587 OFFCURVE",
"272 587 CURVE",
"279 587 LINE",
"301 587 LINE",
"301 587 OFFCURVE",
"295 545 OFFCURVE",
"295 518 CURVE SMOOTH",
"295 491 OFFCURVE",
"301 461 OFFCURVE",
"301 461 CURVE",
"272 461 LINE",
"272 503 OFFCURVE",
"269 517 OFFCURVE",
"257 520 CURVE",
"180 520 LINE",
"180 43 LINE",
"182 31 OFFCURVE",
"233 27 OFFCURVE",
"233 27 CURVE",
"233 -1 LINE",
"233 -1 OFFCURVE",
"182 6 OFFCURVE",
"151 6 CURVE SMOOTH"
);
}
);
width = 301;
}
);
note = T;
unicode = 0054;
},
{
glyphname = U;
layers = (
{
hints = (
{
horizontal = 1;
place = "{29, 10}";
type = Stem;
},
{
horizontal = 1;
place = "{583, 10}";
type = Stem;
},
{
horizontal = 1;
place = "{653, 10}";
type = Stem;
},
{
place = "{-14, 10}";
type = Stem;
},
{
place = "{31, 10}";
type = Stem;
},
{
place = "{101, 26}";
type = Stem;
},
{
place = "{206, 10}";
type = Stem;
},
{
place = "{253, 26}";
type = Stem;
},
{
horizontal = 1;
place = "{538, 24}";
type = Stem;
},
{
horizontal = 1;
place = "{621, 10}";
type = Stem;
},
{
place = "{148, 24}";
type = Stem;
},
{
horizontal = 1;
place = "{-25, 27}";
type = Stem;
},
{
horizontal = 1;
place = "{552, 10}";
type = Stem;
},
{
horizontal = 1;
place = "{608, 24}";
type = Stem;
},
{
place = "{305, 26}";
type = Stem;
},
{
place = "{153, 11}";
type = Stem;
}
);
layerId = "6055A463-9BF1-4E1B-8033-BCCEA0F196EB";
paths = (
{
closed = 1;
nodes = (
"177 604 LINE",
"177 604 OFFCURVE",
"191 603 OFFCURVE",
"206 601 CURVE",
"206 160 LINE SMOOTH",
"206 78 OFFCURVE",
"188 39 OFFCURVE",
"152 39 CURVE SMOOTH",
"126 39 OFFCURVE",
"127 104 OFFCURVE",
"127 140 CURVE SMOOTH",
"127 525 LINE",
"130 538 OFFCURVE",
"171 538 OFFCURVE",
"171 538 CURVE",
"174 579 LINE",
"158 603 LINE",
"158 603 OFFCURVE",
"104 593 OFFCURVE",
"76 593 CURVE SMOOTH",
"44 593 OFFCURVE",
"-14 601 OFFCURVE",
"-14 601 CURVE",
"-14 552 LINE",
"9 535 LINE",
"9 535 OFFCURVE",
"19 534 OFFCURVE",
"31 532 CURVE",
"31 160 LINE SMOOTH",
"31 100 OFFCURVE",
"37 35 OFFCURVE",
"86 7 CURVE",
"91 3 LINE",
"107 -14 OFFCURVE",
"133 -25 OFFCURVE",
"171 -25 CURVE SMOOTH",
"267 -25 OFFCURVE",
"279 54 OFFCURVE",
"279 140 CURVE SMOOTH",
"279 595 LINE",
"283 607 OFFCURVE",
"330 608 OFFCURVE",
"330 608 CURVE",
"333 649 LINE",
"315 673 LINE",
"315 673 OFFCURVE",
"260 663 OFFCURVE",
"235 663 CURVE SMOOTH",
"207 663 OFFCURVE",
"153 673 OFFCURVE",
"153 673 CURVE",
"153 621 LINE"
);
},
{
closed = 1;
nodes = (
"50 2 OFFCURVE",
"41 84 OFFCURVE",
"41 160 CURVE SMOOTH",
"41 548 LINE",
"37 559 OFFCURVE",
"-4 562 OFFCURVE",
"-4 562 CURVE",
"-4 590 LINE",
"-4 590 OFFCURVE",
"47 583 OFFCURVE",
"76 583 CURVE SMOOTH",
"104 583 OFFCURVE",
"148 591 OFFCURVE",
"148 591 CURVE",
"148 562 LINE",
"148 562 OFFCURVE",
"104 559 OFFCURVE",
"101 546 CURVE",
"101 160 LINE SMOOTH",
"101 100 OFFCURVE",
"110 29 OFFCURVE",
"152 29 CURVE SMOOTH",
"196 29 OFFCURVE",
"216 71 OFFCURVE",
"216 160 CURVE SMOOTH",
"216 616 LINE",
"213 628 OFFCURVE",
"164 631 OFFCURVE",
"164 631 CURVE",
"164 661 LINE",
"164 661 OFFCURVE",
"207 653 OFFCURVE",
"235 653 CURVE SMOOTH",
"261 653 OFFCURVE",
"305 661 OFFCURVE",
"305 661 CURVE",
"305 632 LINE",
"305 632 OFFCURVE",
"255 628 OFFCURVE",
"253 616 CURVE",
"253 160 LINE SMOOTH",
"253 78 OFFCURVE",
"241 2 OFFCURVE",
"152 2 CURVE SMOOTH"
);
}
);
width = 281;
}
);
leftKerningGroup = U;
note = U;
rightKerningGroup = U;
unicode = 0055;
},
{
glyphname = V;
layers = (
{
hints = (
{
horizontal = 1;
place = "{-13, 10}";
type = Stem;
},
{
horizontal = 1;
place = "{582, 10}";
type = Stem;
},
{
horizontal = 1;
place = "{654, 10}";
type = Stem;
},
{
place = "{-62, 10}";
type = Stem;
},
{
place = "{41, 10}";
type = Stem;
},
{
place = "{106, 25}";
type = Stem;
},
{
place = "{194, 10}";
type = Stem;
},
{
place = "{334, 27}";
type = Stem;
},
{
horizontal = 1;
place = "{-61, 27}";
type = Stem;
},
{
place = "{216, 27}";
type = Stem;
},
{
horizontal = 1;
place = "{0, 21}";
target = up;
type = BottomGhost;
},
{
horizontal = 1;
place = "{607, 27}";
type = Stem;
},
{
horizontal = 1;
place = "{536, 24}";
type = Stem;
},
{
horizontal = 1;
place = "{-13, 16}";
type = Stem;
},
{
horizontal = 1;
place = "{551, 10}";
type = Stem;
}
);
layerId = "6055A463-9BF1-4E1B-8033-BCCEA0F196EB";
paths = (
{
closed = 1;
nodes = (
"41 -53 LINE",
"64 -70 LINE",
"64 -70 OFFCURVE",
"120 -61 OFFCURVE",
"154 -61 CURVE SMOOTH",
"187 -61 OFFCURVE",
"243 -70 OFFCURVE",
"243 -70 CURVE",
"243 -26 LINE",
"226 -3 LINE",
"226 -3 OFFCURVE",
"212 -2 OFFCURVE",
"198 0 CURVE",
"313 596 LINE SMOOTH",
"314 604 OFFCURVE",
"361 608 OFFCURVE",
"361 608 CURVE",
"361 652 LINE",
"344 676 LINE",
"344 676 OFFCURVE",
"291 664 OFFCURVE",
"270 664 CURVE SMOOTH",
"247 664 OFFCURVE",
"194 673 OFFCURVE",
"194 673 CURVE",
"194 624 LINE",
"217 607 LINE",
"217 607 OFFCURVE",
"239 606 OFFCURVE",
"244 605 CURVE",
"196 358 LINE SMOOTH",
"182 288 OFFCURVE",
"169 217 OFFCURVE",
"156 148 CURVE",
"85 524 LINE",
"89 536 OFFCURVE",
"129 536 OFFCURVE",
"129 536 CURVE",
"133 578 LINE",
"116 602 LINE",
"116 602 OFFCURVE",
"56 592 OFFCURVE",
"27 592 CURVE SMOOTH",
"-8 592 OFFCURVE",
"-62 601 OFFCURVE",
"-62 601 CURVE",
"-62 551 LINE",
"-39 534 LINE",
"-39 534 OFFCURVE",
"-23 532 OFFCURVE",
"-8 530 CURVE",
"88 10 LINE",
"85 -1 OFFCURVE",
"41 3 OFFCURVE",
"41 3 CURVE"
);
},
{
closed = 1;
nodes = (
"51 -13 LINE",
"51 -13 OFFCURVE",
"98 -9 OFFCURVE",
"101 2 CURVE",
"-1 545 LINE SMOOTH",
"-3 557 OFFCURVE",
"-52 561 OFFCURVE",
"-52 561 CURVE",
"-52 590 LINE",
"-52 590 OFFCURVE",
"-4 582 OFFCURVE",
"27 582 CURVE SMOOTH",
"58 582 OFFCURVE",
"106 590 OFFCURVE",
"106 590 CURVE",
"106 560 LINE",
"106 560 OFFCURVE",
"62 557 OFFCURVE",
"58 545 CURVE",
"150 57 LINE",
"256 619 LINE",
"251 630 OFFCURVE",
"224 634 OFFCURVE",
"211 634 CURVE SMOOTH",
"204 634 LINE",
"204 661 LINE",
"204 661 OFFCURVE",
"245 654 OFFCURVE",
"270 654 CURVE SMOOTH",
"294 654 OFFCURVE",
"334 663 OFFCURVE",
"334 663 CURVE",
"334 634 LINE",
"334 634 OFFCURVE",
"288 630 OFFCURVE",
"286 617 CURVE SMOOTH",
"282 596 LINE",
"282 599 LINE",
"169 2 LINE",
"173 -10 OFFCURVE",
"216 -13 OFFCURVE",
"216 -13 CURVE",
"216 -42 LINE",
"216 -42 OFFCURVE",
"166 -34 OFFCURVE",
"134 -34 CURVE SMOOTH",
"101 -34 OFFCURVE",
"51 -42 OFFCURVE",
"51 -42 CURVE"
);
}
);
width = 265;
}
);
note = V;
unicode = 0056;
},
{
glyphname = W;
layers = (
{
hints = (
{
horizontal = 1;
place = "{-50, 10}";
type = Stem;
},
{
horizontal = 1;
place = "{0, 21}";
target = up;
type = BottomGhost;
},
{
horizontal = 1;
place = "{536, 10}";
type = Stem;
},
{
horizontal = 1;
place = "{580, 10}";
type = Stem;
},
{
horizontal = 1;
place = "{654, 10}";
type = Stem;
},
{
place = "{-10, 9}";
type = Stem;
},
{
place = "{96, 12}";
type = Stem;
},
{
place = "{158, 27}";
type = Stem;
},
{
place = "{218, 10}";
type = Stem;
},
{
place = "{308, 10}";
type = Stem;
},
{
place = "{359, 24}";
type = Stem;
},
{
place = "{459, 10}";
type = Stem;
},
{
place = "{599, 27}";
type = Stem;
},
{
horizontal = 1;
place = "{-98, 27}";
type = Stem;
},
{
place = "{483, 28}";
type = Stem;
},
{
horizontal = 1;
place = "{608, 26}";
type = Stem;
},
{
horizontal = 1;
place = "{505, 10}";
type = Stem;
},
{
horizontal = 1;
place = "{539, 21}";
type = Stem;
},
{
horizontal = 1;
place = "{-12, 21}";
target = up;
type = BottomGhost;
},
{
horizontal = 1;
place = "{29, 11}";
type = Stem;
},
{
horizontal = 1;
place = "{549, 10}";
type = Stem;
},
{
horizontal = 1;
place = "{-18, 27}";
type = Stem;
},
{
place = "{272, 27}";
type = Stem;
},
{
horizontal = 1;
place = "{491, 24}";
type = Stem;
}
);
layerId = "6055A463-9BF1-4E1B-8033-BCCEA0F196EB";
paths = (
{
closed = 1;
nodes = (
"359 -28 LINE",
"356 -40 OFFCURVE",
"308 -40 OFFCURVE",
"308 -40 CURVE",
"308 -90 LINE",
"331 -107 LINE",
"331 -107 OFFCURVE",
"388 -98 OFFCURVE",
"421 -98 CURVE SMOOTH",
"454 -98 OFFCURVE",
"511 -107 OFFCURVE",
"511 -107 CURVE",
"511 -63 LINE",
"493 -40 LINE",
"493 -40 OFFCURVE",
"478 -39 OFFCURVE",
"465 -37 CURVE",
"577 596 LINE SMOOTH",
"578 604 OFFCURVE",
"626 608 OFFCURVE",
"626 608 CURVE",
"626 652 LINE",
"610 676 LINE",
"610 676 OFFCURVE",
"554 664 OFFCURVE",
"534 664 CURVE SMOOTH",
"512 664 OFFCURVE",
"459 673 OFFCURVE",
"459 673 CURVE",
"459 625 LINE",
"482 608 LINE",
"482 608 OFFCURVE",
"492 607 OFFCURVE",
"502 605 CURVE",
"417 124 LINE",
"360 487 LINE",
"370 489 OFFCURVE",
"381 491 OFFCURVE",
"381 491 CURVE",
"385 534 LINE",
"369 558 LINE",
"369 558 OFFCURVE",
"315 546 OFFCURVE",
"294 546 CURVE SMOOTH",
"271 546 OFFCURVE",
"218 555 OFFCURVE",
"218 555 CURVE",
"218 505 LINE",
"241 488 LINE",
"241 488 OFFCURVE",
"255 486 OFFCURVE",
"266 484 CURVE",
"236 318 LINE",
"210 183 LINE",
"186 300 OFFCURVE",
"162 399 OFFCURVE",
"137 523 CURVE",
"141 535 OFFCURVE",
"185 539 OFFCURVE",
"185 539 CURVE",
"185 577 LINE",
"168 601 LINE",
"168 601 OFFCURVE",
"109 590 OFFCURVE",
"78 590 CURVE SMOOTH",
"47 590 OFFCURVE",
"-10 601 OFFCURVE",
"-10 601 CURVE",
"-10 549 LINE",
"12 532 LINE",
"12 532 OFFCURVE",
"29 530 OFFCURVE",
"43 528 CURVE",
"59 449 OFFCURVE",
"77 371 OFFCURVE",
"94 292 CURVE SMOOTH",
"147 53 LINE",
"143 41 OFFCURVE",
"95 40 OFFCURVE",
"95 40 CURVE",
"97 -12 LINE",
"120 -28 LINE",
"120 -28 OFFCURVE",
"176 -18 OFFCURVE",
"210 -18 CURVE SMOOTH",
"243 -18 OFFCURVE",
"299 -28 OFFCURVE",
"299 -28 CURVE",
"299 16 LINE",
"282 39 LINE",
"282 39 OFFCURVE",
"269 40 OFFCURVE",
"255 42 CURVE",
"302 288 LINE"
);
},
{
closed = 1;
nodes = (
"318 -50 LINE",
"318 -50 OFFCURVE",
"366 -46 OFFCURVE",
"369 -34 CURVE",
"293 405 LINE",
"227 45 LINE",
"229 32 OFFCURVE",
"272 29 OFFCURVE",
"272 29 CURVE",
"272 0 LINE",
"272 0 OFFCURVE",
"222 9 OFFCURVE",
"190 9 CURVE SMOOTH",
"157 9 OFFCURVE",
"108 0 OFFCURVE",
"108 0 CURVE",
"108 29 LINE",
"108 29 OFFCURVE",
"154 33 OFFCURVE",
"158 44 CURVE",
"51 543 LINE SMOOTH",
"49 556 OFFCURVE",
"-1 559 OFFCURVE",
"-1 559 CURVE",
"-1 589 LINE",
"-1 589 OFFCURVE",
"47 580 OFFCURVE",
"78 580 CURVE SMOOTH",
"109 580 OFFCURVE",
"158 589 OFFCURVE",
"158 589 CURVE",
"158 566 LINE",
"157 560 LINE",
"157 560 OFFCURVE",
"114 556 OFFCURVE",
"110 544 CURVE",
"205 100 LINE",
"280 500 LINE",
"276 511 OFFCURVE",
"228 515 OFFCURVE",
"228 515 CURVE",
"228 543 LINE",
"228 543 OFFCURVE",
"269 536 OFFCURVE",
"294 536 CURVE SMOOTH",
"318 536 OFFCURVE",
"359 545 OFFCURVE",
"359 545 CURVE",
"359 515 LINE",
"359 515 OFFCURVE",
"342 515 OFFCURVE",
"332 513 CURVE",
"411 23 LINE",
"514 619 LINE",
"509 630 OFFCURVE",
"469 634 OFFCURVE",
"469 634 CURVE",
"469 661 LINE",
"469 661 OFFCURVE",
"511 654 OFFCURVE",
"534 654 CURVE SMOOTH",
"558 654 OFFCURVE",
"599 663 OFFCURVE",
"599 663 CURVE",
"599 634 LINE",
"599 634 OFFCURVE",
"552 630 OFFCURVE",
"550 617 CURVE SMOOTH",
"436 -35 LINE",
"440 -48 OFFCURVE",
"483 -50 OFFCURVE",
"483 -50 CURVE",
"483 -79 LINE",
"483 -79 OFFCURVE",
"433 -71 OFFCURVE",
"400 -71 CURVE SMOOTH",
"369 -71 OFFCURVE",
"318 -79 OFFCURVE",
"318 -79 CURVE"
);
}
);
width = 530;
}
);
note = W;
unicode = 0057;
},
{
glyphname = X;
layers = (
{
hints = (
{
horizontal = 1;
place = "{-84, 27}";
type = Stem;
},
{
horizontal = 1;
place = "{-13, 21}";
target = up;
type = BottomGhost;
},
{
horizontal = 1;
place = "{29, 11}";
type = Stem;
},
{
horizontal = 1;
place = "{581, 10}";
type = Stem;
},
{
horizontal = 1;
place = "{654, 10}";
type = Stem;
},
{
place = "{-7, 9}";
type = Stem;
},
{
place = "{133, 27}";
type = Stem;
},
{
place = "{196, 10}";
type = Stem;
},
{
place = "{353, 27}";
type = Stem;
},
{
horizontal = 1;
place = "{-19, 27}";
type = Stem;
},
{
horizontal = 1;
place = "{-37, 12}";
type = Stem;
},
{
place = "{177, 11}";
type = Stem;
},
{
horizontal = 1;
place = "{-37, 9}";
type = Stem;
},
{
horizontal = 1;
place = "{610, 24}";
type = Stem;
},
{
place = "{336, 25}";
type = Stem;
},
{
horizontal = 1;
place = "{624, 10}";
type = Stem;
},
{
horizontal = 1;
place = "{536, 24}";
type = Stem;
},
{
place = "{144, 25}";
type = Stem;
},
{
place = "{-18, 10}";
type = Stem;
},
{
horizontal = 1;
place = "{552, 9}";
type = Stem;
}
);
layerId = "6055A463-9BF1-4E1B-8033-BCCEA0F196EB";
paths = (
{
closed = 1;
nodes = (
"42 42 OFFCURVE",
"-6 40 OFFCURVE",
"-6 40 CURVE",
"-7 -13 LINE",
"16 -29 LINE",
"16 -29 OFFCURVE",
"67 -19 OFFCURVE",
"88 -19 CURVE SMOOTH",
"112 -19 OFFCURVE",
"160 -26 OFFCURVE",
"160 -26 CURVE",
"160 15 LINE",
"143 38 LINE",
"143 38 OFFCURVE",
"131 38 OFFCURVE",
"120 40 CURVE",
"163 161 LINE",
"175 124 LINE",
"218 -14 LINE",
"213 -25 OFFCURVE",
"176 -25 OFFCURVE",
"176 -25 CURVE",
"179 -78 LINE",
"202 -94 LINE",
"202 -94 OFFCURVE",
"256 -84 OFFCURVE",
"291 -84 CURVE SMOOTH",
"324 -84 OFFCURVE",
"380 -94 OFFCURVE",
"380 -94 CURVE",
"380 -51 LINE",
"363 -28 LINE",
"363 -28 OFFCURVE",
"329 -25 OFFCURVE",
"311 -21 CURVE",
"211 296 LINE",
"311 597 LINE",
"317 607 OFFCURVE",
"360 610 OFFCURVE",
"360 610 CURVE",
"363 652 LINE",
"346 676 LINE",
"346 676 OFFCURVE",
"293 664 OFFCURVE",
"272 664 CURVE SMOOTH",
"249 664 OFFCURVE",
"196 673 OFFCURVE",
"196 673 CURVE",
"196 624 LINE",
"219 607 LINE",
"219 607 OFFCURVE",
"227 607 OFFCURVE",
"236 605 CURVE",
"214 541 OFFCURVE",
"193 476 OFFCURVE",
"172 412 CURVE",
"135 526 LINE",
"140 540 OFFCURVE",
"167 536 OFFCURVE",
"167 536 CURVE",
"171 579 LINE",
"154 603 LINE",
"154 603 OFFCURVE",
"96 591 OFFCURVE",
"72 591 CURVE SMOOTH",
"41 591 OFFCURVE",
"-18 599 OFFCURVE",
"-18 599 CURVE",
"-18 552 LINE",
"5 535 LINE",
"5 535 OFFCURVE",
"26 532 OFFCURVE",
"43 529 CURVE",
"126 274 LINE",
"100 198 OFFCURVE",
"47 51 OFFCURVE",
"47 51 CURVE"
);
},
{
closed = 1;
nodes = (
"3 29 LINE",
"3 29 OFFCURVE",
"50 33 OFFCURVE",
"56 43 CURVE",
"137 274 LINE",
"49 544 LINE SMOOTH",
"45 555 OFFCURVE",
"-8 561 OFFCURVE",
"-8 561 CURVE",
"-8 588 LINE",
"-8 588 OFFCURVE",
"44 581 OFFCURVE",
"72 581 CURVE SMOOTH",
"101 581 OFFCURVE",
"144 590 OFFCURVE",
"144 590 CURVE",
"144 560 LINE",
"144 560 OFFCURVE",
"112 560 OFFCURVE",
"107 546 CURVE",
"167 362 LINE",
"253 619 LINE",
"249 631 OFFCURVE",
"206 634 OFFCURVE",
"206 634 CURVE",
"206 661 LINE",
"206 661 OFFCURVE",
"247 654 OFFCURVE",
"272 654 CURVE SMOOTH",
"296 654 OFFCURVE",
"336 663 OFFCURVE",
"336 663 CURVE",
"336 634 LINE",
"336 634 OFFCURVE",
"290 630 OFFCURVE",
"284 620 CURVE",
"183 316 LINE",
"290 -20 LINE SMOOTH",
"293 -31 OFFCURVE",
"353 -37 OFFCURVE",
"353 -37 CURVE",
"353 -66 LINE",
"353 -66 OFFCURVE",
"303 -57 OFFCURVE",
"271 -57 CURVE SMOOTH",
"238 -57 OFFCURVE",
"189 -66 OFFCURVE",
"189 -66 CURVE",
"189 -37 LINE",
"189 -37 OFFCURVE",
"227 -34 OFFCURVE",
"232 -23 CURVE",
"152 228 LINE",
"87 44 LINE",
"91 32 OFFCURVE",
"133 29 OFFCURVE",
"133 29 CURVE",
"133 2 LINE",
"133 2 OFFCURVE",
"92 8 OFFCURVE",
"68 8 CURVE SMOOTH",
"44 8 OFFCURVE",
"3 0 OFFCURVE",
"3 0 CURVE"
);
}
);
width = 351;
}
);
note = X;
unicode = 0058;
},
{
glyphname = Y;
layers = (
{
hints = (
{
horizontal = 1;
place = "{-12, 21}";
target = up;
type = BottomGhost;
},
{
horizontal = 1;
place = "{28, 10}";
type = Stem;
},
{
horizontal = 1;
place = "{581, 10}";
type = Stem;
},
{
horizontal = 1;
place = "{654, 10}";
type = Stem;
},
{
place = "{-85, 10}";
type = Stem;
},
{
place = "{-6, 10}";
type = Stem;
},
{
place = "{47, 10}";
type = Stem;
},
{
place = "{116, 27}";
type = Stem;
},
{
place = "{273, 27}";
type = Stem;
},
{
horizontal = 1;
place = "{-20, 27}";
type = Stem;
},
{
place = "{169, 27}";
type = Stem;
},
{
horizontal = 1;
place = "{606, 28}";
type = Stem;
},
{
place = "{133, 10}";
type = Stem;
},
{
horizontal = 1;
place = "{536, 24}";
type = Stem;
},
{
place = "{77, 25}";
type = Stem;
},
{
horizontal = 1;
place = "{28, 15}";
type = Stem;
},
{
horizontal = 1;
place = "{552, 9}";
type = Stem;
}
);
layerId = "6055A463-9BF1-4E1B-8033-BCCEA0F196EB";
paths = (
{
closed = 1;
nodes = (
"-6 -12 LINE",
"17 -29 LINE",
"17 -29 OFFCURVE",
"73 -20 OFFCURVE",
"106 -20 CURVE SMOOTH",
"140 -20 OFFCURVE",
"196 -29 OFFCURVE",
"196 -29 CURVE",
"196 15 LINE",
"179 38 LINE",
"179 38 OFFCURVE",
"158 39 OFFCURVE",
"143 41 CURVE",
"143 294 LINE",
"248 598 LINE",
"255 604 OFFCURVE",
"300 608 OFFCURVE",
"300 608 CURVE",
"300 652 LINE",
"283 676 LINE",
"283 676 OFFCURVE",
"228 664 OFFCURVE",
"208 664 CURVE SMOOTH",
"186 664 OFFCURVE",
"133 673 OFFCURVE",
"133 673 CURVE",
"133 624 LINE",
"156 607 LINE",
"172 605 LINE",
"138 502 LINE",
"106 409 LINE",
"68 525 LINE",
"73 539 OFFCURVE",
"100 536 OFFCURVE",
"100 536 CURVE",
"104 579 LINE",
"87 603 LINE",
"87 603 OFFCURVE",
"29 591 OFFCURVE",
"6 591 CURVE SMOOTH",
"-26 591 OFFCURVE",
"-85 599 OFFCURVE",
"-85 599 CURVE",
"-85 552 LINE",
"-62 535 LINE",
"-62 535 OFFCURVE",
"-40 532 OFFCURVE",
"-24 529 CURVE",
"47 312 LINE",
"47 51 LINE",
"44 39 OFFCURVE",
"-6 43 OFFCURVE",
"-6 43 CURVE"
);
},
{
closed = 1;
nodes = (
"4 28 LINE",
"4 28 OFFCURVE",
"54 32 OFFCURVE",
"57 44 CURVE",
"57 315 LINE",
"-18 544 LINE SMOOTH",
"-22 555 OFFCURVE",
"-75 561 OFFCURVE",
"-75 561 CURVE",
"-75 588 LINE",
"-75 588 OFFCURVE",
"-23 581 OFFCURVE",
"6 581 CURVE SMOOTH",
"34 581 OFFCURVE",
"77 590 OFFCURVE",
"77 590 CURVE",
"77 560 LINE",
"77 560 OFFCURVE",
"45 560 OFFCURVE",
"40 546 CURVE",
"101 362 LINE",
"189 619 LINE",
"185 631 OFFCURVE",
"143 634 OFFCURVE",
"143 634 CURVE",
"143 661 LINE",
"143 661 OFFCURVE",
"184 654 OFFCURVE",
"208 654 CURVE SMOOTH",
"232 654 OFFCURVE",
"273 663 OFFCURVE",
"273 663 CURVE",
"273 634 LINE",
"273 634 OFFCURVE",
"226 630 OFFCURVE",
"221 620 CURVE",
"116 316 LINE",
"116 44 LINE",
"118 32 OFFCURVE",
"169 28 OFFCURVE",
"169 28 CURVE",
"169 -1 LINE",
"169 -1 OFFCURVE",
"119 7 OFFCURVE",
"86 7 CURVE SMOOTH",
"54 7 OFFCURVE",
"4 -1 OFFCURVE",
"4 -1 CURVE"
);
}
);
width = 203;
}
);
leftKerningGroup = Y;
note = Y;
rightKerningGroup = Y;
unicode = 0059;
},
{
glyphname = Z;
layers = (
{
hints = (
{
horizontal = 1;
place = "{-44, 27}";
type = Stem;
},
{
horizontal = 1;
place = "{36, 10}";
type = Stem;
},
{
horizontal = 1;
place = "{213, 11}";
type = Stem;
},
{
horizontal = 1;
place = "{347, 27}";
type = Stem;
},
{
horizontal = 1;
place = "{585, 10}";
type = Stem;
},
{
place = "{33, 9}";
type = Stem;
},
{
place = "{261, 10}";
type = Stem;
},
{
place = "{319, 25}";
type = Stem;
},
{
horizontal = 1;
place = "{540, 25}";
type = Stem;
},
{
place = "{293, 27}";
type = Stem;
},
{
horizontal = 1;
place = "{-18, 27}";
type = Stem;
},
{
place = "{5, 10}";
type = Stem;
},
{
horizontal = 1;
place = "{29, 9}";
type = Stem;
},
{
horizontal = 1;
place = "{531, 27}";
type = Stem;
},
{
place = "{69, 27}";
type = Stem;
},
{
horizontal = 1;
place = "{617, 11}";
type = Stem;
},
{
horizontal = 1;
place = "{-11, 20}";
type = Stem;
}
);
layerId = "6055A463-9BF1-4E1B-8033-BCCEA0F196EB";
paths = (
{
closed = 1;
nodes = (
"232 585 OFFCURVE",
"319 593 OFFCURVE",
"319 593 CURVE",
"319 565 LINE",
"319 565 OFFCURVE",
"298 565 OFFCURVE",
"293 554 CURVE",
"123 36 LINE",
"271 36 LINE",
"271 213 LINE",
"298 213 LINE",
"298 206 LINE",
"298 206 OFFCURVE",
"293 145 OFFCURVE",
"293 97 CURVE SMOOTH",
"293 51 OFFCURVE",
"298 -17 OFFCURVE",
"298 -17 CURVE",
"271 -17 LINE",
"271 2 LINE",
"253 4 OFFCURVE",
"195 9 OFFCURVE",
"149 9 CURVE SMOOTH",
"92 9 OFFCURVE",
"15 1 OFFCURVE",
"15 1 CURVE",
"15 29 LINE",
"15 29 OFFCURVE",
"64 33 OFFCURVE",
"65 46 CURVE",
"235 558 LINE",
"69 558 LINE",
"69 374 LINE",
"37 374 LINE",
"37 374 OFFCURVE",
"42 441 OFFCURVE",
"42 490 CURVE SMOOTH",
"42 536 OFFCURVE",
"37 617 OFFCURVE",
"37 617 CURVE",
"69 617 LINE",
"69 592 LINE",
"87 590 OFFCURVE",
"136 585 OFFCURVE",
"180 585 CURVE SMOOTH"
);
},
{
closed = 1;
nodes = (
"153 595 OFFCURVE",
"119 598 OFFCURVE",
"96 599 CURVE",
"96 604 LINE",
"79 628 LINE",
"25 628 LINE",
"25 628 OFFCURVE",
"33 536 OFFCURVE",
"33 490 CURVE SMOOTH",
"33 442 OFFCURVE",
"25 364 OFFCURVE",
"25 364 CURVE",
"48 347 LINE",
"96 347 LINE",
"96 531 LINE",
"216 531 LINE",
"56 51 LINE",
"55 42 OFFCURVE",
"5 38 OFFCURVE",
"5 38 CURVE",
"5 -11 LINE",
"28 -27 LINE",
"28 -27 OFFCURVE",
"115 -18 OFFCURVE",
"168 -18 CURVE SMOOTH",
"198 -18 OFFCURVE",
"234 -20 OFFCURVE",
"261 -21 CURVE",
"261 -27 LINE",
"284 -44 LINE",
"326 -44 LINE",
"326 -44 OFFCURVE",
"320 34 OFFCURVE",
"320 78 CURVE SMOOTH",
"320 124 OFFCURVE",
"325 185 OFFCURVE",
"325 185 CURVE",
"325 200 LINE",
"308 224 LINE",
"261 224 LINE",
"261 46 LINE",
"159 46 LINE",
"320 532 LINE",
"325 543 OFFCURVE",
"342 540 OFFCURVE",
"342 540 CURVE",
"346 581 LINE",
"329 603 LINE",
"329 603 OFFCURVE",
"231 595 OFFCURVE",
"180 595 CURVE SMOOTH"
);
}
);
width = 334;
}
);
leftKerningGroup = Z;
note = Z;
rightKerningGroup = Z;
unicode = 005A;
},
{
glyphname = a;
layers = (
{
hints = (
{
horizontal = 1;
place = "{-12, 21}";
target = up;
type = BottomGhost;
},
{
horizontal = 1;
place = "{30, 10}";
type = Stem;
},
{
horizontal = 1;
place = "{270, 10}";
type = Stem;
},
{
horizontal = 1;
place = "{355, 27}";
type = Stem;
},
{
horizontal = 1;
place = "{413, 10}";
type = Stem;
},
{
place = "{-5, 10}";
type = Stem;
},
{
place = "{56, 27}";
type = Stem;
},
{
place = "{153, 11}";
type = Stem;
},
{
place = "{225, 27}";
type = Stem;
},
{
place = "{79, 27}";
type = Stem;
},
{
horizontal = 1;
place = "{-27, 27}";
type = Stem;
},
{
horizontal = 1;
place = "{278, 27}";
type = Stem;
},
{
place = "{157, 11}";
type = Stem;
},
{
horizontal = 1;
place = "{-60, 27}";
type = Stem;
},
{
place = "{246, 27}";
type = Stem;
},
{
place = "{68, 11}";
type = Stem;
},
{
horizontal = 1;
place = "{418, 10}";
type = Stem;
},
{
place = "{36, 11}";
type = Stem;
},
{
horizontal = 1;
place = "{213, 27}";
type = Stem;
}
);
layerId = "6055A463-9BF1-4E1B-8033-BCCEA0F196EB";
paths = (
{
closed = 1;
nodes = (
"157 339 OFFCURVE",
"160 315 OFFCURVE",
"160 296 CURVE SMOOTH",
"160 285 OFFCURVE",
"161 280 OFFCURVE",
"160 274 CURVE",
"147 279 OFFCURVE",
"134 280 OFFCURVE",
"115 280 CURVE SMOOTH",
"112 280 OFFCURVE",
"108 279 OFFCURVE",
"106 279 CURVE",
"106 284 OFFCURVE",
"103 354 OFFCURVE",
"151 355 CURVE"
);
},
{
closed = 1;
nodes = (
"83 196 OFFCURVE",
"113 213 OFFCURVE",
"134 213 CURVE SMOOTH",
"140 213 LINE",
"148 198 OFFCURVE",
"153 170 OFFCURVE",
"153 121 CURVE SMOOTH",
"153 67 OFFCURVE",
"139 40 OFFCURVE",
"112 40 CURVE SMOOTH",
"104 40 OFFCURVE",
"98 42 OFFCURVE",
"92 48 CURVE",
"85 61 OFFCURVE",
"83 79 OFFCURVE",
"83 101 CURVE SMOOTH"
);
},
{
closed = 1;
nodes = (
"50 278 LINE",
"89 278 LINE",
"27 267 OFFCURVE",
"-5 215 OFFCURVE",
"-5 121 CURVE SMOOTH",
"-5 76 OFFCURVE",
"11 29 OFFCURVE",
"50 5 CURVE SMOOTH",
"53 3 LINE",
"71 -15 OFFCURVE",
"98 -27 OFFCURVE",
"133 -27 CURVE SMOOTH",
"140 -27 OFFCURVE",
"150 -26 OFFCURVE",
"157 -24 CURVE",
"157 -52 LINE",
"180 -68 LINE",
"180 -68 OFFCURVE",
"210 -60 OFFCURVE",
"227 -60 CURVE SMOOTH",
"242 -60 OFFCURVE",
"273 -70 OFFCURVE",
"273 -70 CURVE",
"273 -25 LINE",
"252 -8 LINE",
"252 208 LINE SMOOTH",
"252 288 OFFCURVE",
"252 423 OFFCURVE",
"131 423 CURVE SMOOTH",
"116 423 OFFCURVE",
"101 418 OFFCURVE",
"88 412 CURVE",
"79 428 LINE",
"27 428 LINE",
"27 428 OFFCURVE",
"36 378 OFFCURVE",
"36 362 CURVE SMOOTH",
"36 346 OFFCURVE",
"27 295 OFFCURVE",
"27 295 CURVE"
);
},
{
closed = 1;
nodes = (
"90 240 OFFCURVE",
"56 222 OFFCURVE",
"56 121 CURVE SMOOTH",
"56 62 OFFCURVE",
"84 30 OFFCURVE",
"112 30 CURVE SMOOTH",
"147 30 OFFCURVE",
"164 60 OFFCURVE",
"164 121 CURVE SMOOTH",
"164 225 OFFCURVE",
"139 240 OFFCURVE",
"115 240 CURVE SMOOTH"
);
},
{
closed = 1;
nodes = (
"168 12 LINE",
"152 4 OFFCURVE",
"133 0 OFFCURVE",
"112 0 CURVE SMOOTH",
"34 0 OFFCURVE",
"5 62 OFFCURVE",
"5 121 CURVE SMOOTH",
"5 220 OFFCURVE",
"43 270 OFFCURVE",
"115 270 CURVE SMOOTH",
"135 270 OFFCURVE",
"152 266 OFFCURVE",
"168 258 CURVE",
"168 258 OFFCURVE",
"183 382 OFFCURVE",
"131 382 CURVE SMOOTH",
"76 382 OFFCURVE",
"79 305 OFFCURVE",
"79 305 CURVE",
"41 305 LINE",
"40 305 LINE",
"40 305 OFFCURVE",
"47 341 OFFCURVE",
"47 362 CURVE SMOOTH",
"47 383 OFFCURVE",
"40 418 OFFCURVE",
"40 418 CURVE",
"68 418 LINE",
"68 381 LINE",
"84 402 OFFCURVE",
"106 413 OFFCURVE",
"131 413 CURVE SMOOTH",
"222 413 OFFCURVE",
"225 343 OFFCURVE",
"225 228 CURVE SMOOTH",
"225 3 LINE",
"228 -12 OFFCURVE",
"246 -12 OFFCURVE",
"246 -12 CURVE",
"246 -40 LINE",
"246 -40 OFFCURVE",
"224 -33 OFFCURVE",
"206 -33 CURVE SMOOTH",
"189 -33 OFFCURVE",
"168 -39 OFFCURVE",
"168 -39 CURVE"
);
}
);
width = 240;
}
);
leftKerningGroup = a;
note = a;
rightKerningGroup = a;
unicode = 0061;
},
{
glyphname = b;
layers = (
{
hints = (
{
horizontal = 1;
place = "{-5, 20}";
type = Stem;
},
{
horizontal = 1;
place = "{356, 27}";
type = Stem;
},
{
horizontal = 1;
place = "{416, 10}";
type = Stem;
},
{
horizontal = 1;
place = "{605, 11}";
type = Stem;
},
{
place = "{32, 10}";
type = Stem;
},
{
place = "{102, 27}";
type = Stem;
},
{
place = "{194, 10}";
type = Stem;
},
{
place = "{264, 27}";
type = Stem;
},
{
horizontal = 1;
place = "{33, 10}";
type = Stem;
},
{
horizontal = 1;
place = "{558, 28}";
type = Stem;
},
{
place = "{129, 25}";
type = Stem;
},
{
place = "{5, 10}";
type = Stem;
},
{
horizontal = 1;
place = "{576, 10}";
type = Stem;
},
{
horizontal = 1;
place = "{25, 9}";
type = Stem;
},
{
horizontal = 1;
place = "{-29, 27}";
type = Stem;
}
);
layerId = "6055A463-9BF1-4E1B-8033-BCCEA0F196EB";
paths = (
{
closed = 1;
nodes = (
"131 291 OFFCURVE",
"144 351 OFFCURVE",
"171 356 CURVE",
"183 334 OFFCURVE",
"194 289 OFFCURVE",
"194 210 CURVE SMOOTH",
"194 101 OFFCURVE",
"180 43 OFFCURVE",
"154 43 CURVE SMOOTH",
"150 43 OFFCURVE",
"148 43 OFFCURVE",
"144 43 CURVE",
"135 69 OFFCURVE",
"131 114 OFFCURVE",
"131 191 CURVE SMOOTH"
);
},
{
closed = 1;
nodes = (
"129 549 LINE",
"131 563 OFFCURVE",
"152 562 OFFCURVE",
"152 562 CURVE",
"156 605 LINE",
"139 630 LINE",
"139 630 OFFCURVE",
"95 616 OFFCURVE",
"72 616 CURVE SMOOTH",
"50 616 OFFCURVE",
"5 630 OFFCURVE",
"5 630 CURVE",
"5 576 LINE",
"28 559 LINE",
"28 559 OFFCURVE",
"29 558 OFFCURVE",
"32 558 CURVE",
"32 48 LINE",
"29 33 OFFCURVE",
"5 34 OFFCURVE",
"5 34 CURVE",
"5 -20 LINE",
"28 -34 LINE",
"28 -34 OFFCURVE",
"64 -21 OFFCURVE",
"81 -21 CURVE SMOOTH",
"99 -21 OFFCURVE",
"129 -38 OFFCURVE",
"129 -38 CURVE",
"129 -19 LINE",
"143 -26 OFFCURVE",
"157 -29 OFFCURVE",
"175 -29 CURVE SMOOTH",
"252 -29 OFFCURVE",
"291 42 OFFCURVE",
"291 191 CURVE SMOOTH",
"291 282 OFFCURVE",
"274 345 OFFCURVE",
"239 379 CURVE",
"220 411 OFFCURVE",
"192 426 OFFCURVE",
"154 426 CURVE SMOOTH",
"144 426 OFFCURVE",
"135 426 OFFCURVE",
"129 424 CURVE"
);
},
{
closed = 1;
nodes = (
"122 383 OFFCURVE",
"104 321 OFFCURVE",
"104 210 CURVE SMOOTH",
"104 79 OFFCURVE",
"117 33 OFFCURVE",
"154 33 CURVE SMOOTH",
"188 33 OFFCURVE",
"204 93 OFFCURVE",
"204 210 CURVE SMOOTH",
"204 339 OFFCURVE",
"170 383 OFFCURVE",
"154 383 CURVE SMOOTH"
);
},
{
closed = 1;
nodes = (
"44 6 OFFCURVE",
"15 -5 OFFCURVE",
"15 -5 CURVE",
"15 25 LINE",
"15 25 OFFCURVE",
"40 26 OFFCURVE",
"42 42 CURVE",
"42 569 LINE",
"40 585 OFFCURVE",
"15 586 OFFCURVE",
"15 586 CURVE",
"15 616 LINE",
"15 616 OFFCURVE",
"47 605 OFFCURVE",
"72 605 CURVE SMOOTH",
"98 605 OFFCURVE",
"129 616 OFFCURVE",
"129 616 CURVE",
"129 586 LINE",
"129 586 OFFCURVE",
"104 585 OFFCURVE",
"102 569 CURVE",
"102 401 LINE",
"117 411 OFFCURVE",
"134 416 OFFCURVE",
"154 416 CURVE SMOOTH",
"226 416 OFFCURVE",
"264 348 OFFCURVE",
"264 210 CURVE SMOOTH",
"264 66 OFFCURVE",
"228 -2 OFFCURVE",
"154 -2 CURVE SMOOTH",
"134 -2 OFFCURVE",
"117 2 OFFCURVE",
"102 15 CURVE",
"102 -7 LINE",
"102 -7 OFFCURVE",
"80 6 OFFCURVE",
"62 6 CURVE SMOOTH"
);
}
);
width = 278;
}
);
leftKerningGroup = b;
note = b;
rightKerningGroup = b;
unicode = 0062;
},
{
glyphname = c;
layers = (
{
hints = (
{
horizontal = 1;
place = "{-50, 27}";
type = Stem;
},
{
horizontal = 1;
place = "{12, 10}";
type = Stem;
},
{
horizontal = 1;
place = "{96, 10}";
type = Stem;
},
{
horizontal = 1;
place = "{252, 27}";
type = Stem;
},
{
horizontal = 1;
place = "{376, 27}";
type = Stem;
},
{
horizontal = 1;
place = "{438, 10}";
type = Stem;
},
{
place = "{5, 10}";
type = Stem;
},
{
place = "{75, 27}";
type = Stem;
},
{
place = "{163, 10}";
type = Stem;
},
{
place = "{215, 27}";
type = Stem;
},
{
place = "{182, 10}";
type = Stem;
},
{
place = "{227, 11}";
type = Stem;
}
);
layerId = "6055A463-9BF1-4E1B-8033-BCCEA0F196EB";
paths = (
{
closed = 1;
nodes = (
"102 310 OFFCURVE",
"124 376 OFFCURVE",
"144 376 CURVE SMOOTH",
"145 376 OFFCURVE",
"147 376 OFFCURVE",
"149 375 CURVE",
"167 341 OFFCURVE",
"163 269 OFFCURVE",
"163 269 CURVE",
"186 252 LINE",
"249 252 LINE",
"249 252 OFFCURVE",
"242 308 OFFCURVE",
"242 338 CURVE SMOOTH",
"242 368 OFFCURVE",
"249 424 OFFCURVE",
"249 424 CURVE",
"232 447 LINE",
"182 447 LINE",
"182 427 LINE",
"168 442 OFFCURVE",
"152 448 OFFCURVE",
"124 448 CURVE SMOOTH",
"49 448 OFFCURVE",
"5 352 OFFCURVE",
"5 185 CURVE SMOOTH",
"5 75 OFFCURVE",
"28 7 OFFCURVE",
"73 -20 CURVE",
"77 -24 LINE SMOOTH",
"95 -42 OFFCURVE",
"117 -50 OFFCURVE",
"144 -50 CURVE SMOOTH",
"243 -50 OFFCURVE",
"255 83 OFFCURVE",
"255 83 CURVE",
"238 106 LINE",
"186 106 LINE",
"186 106 OFFCURVE",
"172 22 OFFCURVE",
"124 22 CURVE SMOOTH",
"122 22 OFFCURVE",
"120 22 OFFCURVE",
"118 23 CURVE",
"107 50 OFFCURVE",
"102 98 OFFCURVE",
"102 165 CURVE SMOOTH"
);
},
{
closed = 1;
nodes = (
"52 -23 OFFCURVE",
"15 47 OFFCURVE",
"15 185 CURVE SMOOTH",
"15 346 OFFCURVE",
"55 438 OFFCURVE",
"124 438 CURVE SMOOTH",
"161 438 OFFCURVE",
"181 420 OFFCURVE",
"192 395 CURVE",
"192 437 LINE",
"221 437 LINE",
"221 437 OFFCURVE",
"215 389 OFFCURVE",
"215 358 CURVE SMOOTH",
"215 327 OFFCURVE",
"221 279 OFFCURVE",
"221 279 CURVE",
"173 279 LINE",
"173 279 OFFCURVE",
"181 403 OFFCURVE",
"124 403 CURVE SMOOTH",
"101 403 OFFCURVE",
"75 335 OFFCURVE",
"75 185 CURVE SMOOTH",
"75 73 OFFCURVE",
"92 12 OFFCURVE",
"124 12 CURVE SMOOTH",
"181 12 OFFCURVE",
"195 96 OFFCURVE",
"195 96 CURVE",
"227 96 LINE",
"227 96 OFFCURVE",
"216 -23 OFFCURVE",
"124 -23 CURVE SMOOTH"
);
}
);
width = 242;
}
);
leftKerningGroup = c;
note = c;
rightKerningGroup = c;
unicode = 0063;
},
{
glyphname = d;
layers = (
{
hints = (
{
horizontal = 1;
place = "{-27, 27}";
type = Stem;
},
{
horizontal = 1;
place = "{35, 10}";
type = Stem;
},
{
horizontal = 1;
place = "{356, 27}";
type = Stem;
},
{
horizontal = 1;
place = "{417, 10}";
type = Stem;
},
{
horizontal = 1;
place = "{606, 10}";
type = Stem;
},
{
place = "{5, 10}";
type = Stem;
},
{
place = "{74, 27}";
type = Stem;
},
{
place = "{167, 10}";
type = Stem;
},
{
place = "{236, 27}";
type = Stem;
},
{
place = "{163, 10}";
type = Stem;
},
{
horizontal = 1;
place = "{558, 28}";
type = Stem;
},
{
place = "{263, 27}";
type = Stem;
},
{
place = "{140, 10}";
type = Stem;
},
{
horizontal = 1;
place = "{576, 10}";
type = Stem;
},
{
horizontal = 1;
place = "{-55, 27}";
type = Stem;
},
{
horizontal = 1;
place = "{-7, 10}";
type = Stem;
}
);
layerId = "6055A463-9BF1-4E1B-8033-BCCEA0F196EB";
paths = (
{
closed = 1;
nodes = (
"101 315 OFFCURVE",
"131 356 OFFCURVE",
"144 356 CURVE",
"156 332 OFFCURVE",
"163 282 OFFCURVE",
"163 211 CURVE SMOOTH",
"163 90 OFFCURVE",
"152 45 OFFCURVE",
"122 45 CURVE SMOOTH",
"120 45 OFFCURVE",
"118 45 OFFCURVE",
"116 46 CURVE",
"106 73 OFFCURVE",
"101 121 OFFCURVE",
"101 191 CURVE SMOOTH"
);
},
{
closed = 1;
nodes = (
"263 549 LINE",
"266 564 OFFCURVE",
"286 562 OFFCURVE",
"286 562 CURVE",
"290 606 LINE",
"273 630 LINE",
"273 630 OFFCURVE",
"228 616 OFFCURVE",
"206 616 CURVE SMOOTH",
"183 616 OFFCURVE",
"140 630 OFFCURVE",
"140 630 CURVE",
"140 576 LINE",
"167 558 LINE",
"167 419 LINE",
"154 424 OFFCURVE",
"139 427 OFFCURVE",
"124 427 CURVE SMOOTH",
"45 427 OFFCURVE",
"5 355 OFFCURVE",
"5 211 CURVE SMOOTH",
"5 97 OFFCURVE",
"12 -27 OFFCURVE",
"142 -27 CURVE SMOOTH",
"150 -27 OFFCURVE",
"159 -25 OFFCURVE",
"167 -23 CURVE",
"167 -55 LINE",
"190 -70 LINE",
"190 -70 OFFCURVE",
"220 -55 OFFCURVE",
"237 -55 CURVE SMOOTH",
"254 -55 OFFCURVE",
"290 -68 OFFCURVE",
"290 -68 CURVE",
"290 -20 LINE",
"273 3 LINE",
"273 3 OFFCURVE",
"268 3 OFFCURVE",
"263 4 CURVE"
);
},
{
closed = 1;
nodes = (
"109 383 OFFCURVE",
"74 340 OFFCURVE",
"74 211 CURVE SMOOTH",
"74 93 OFFCURVE",
"90 35 OFFCURVE",
"122 35 CURVE SMOOTH",
"159 35 OFFCURVE",
"173 83 OFFCURVE",
"173 211 CURVE SMOOTH",
"173 322 OFFCURVE",
"156 383 OFFCURVE",
"124 383 CURVE SMOOTH"
);
},
{
closed = 1;
nodes = (
"177 18 LINE",
"162 6 OFFCURVE",
"143 0 OFFCURVE",
"122 0 CURVE SMOOTH",
"49 0 OFFCURVE",
"15 67 OFFCURVE",
"15 211 CURVE SMOOTH",
"15 348 OFFCURVE",
"52 417 OFFCURVE",
"124 417 CURVE SMOOTH",
"144 417 OFFCURVE",
"162 412 OFFCURVE",
"177 401 CURVE",
"177 570 LINE",
"174 585 OFFCURVE",
"150 586 OFFCURVE",
"150 586 CURVE",
"150 616 LINE",
"150 616 OFFCURVE",
"181 606 OFFCURVE",
"206 606 CURVE SMOOTH",
"231 606 OFFCURVE",
"263 616 OFFCURVE",
"263 616 CURVE",
"263 586 LINE",
"263 586 OFFCURVE",
"239 585 OFFCURVE",
"236 570 CURVE",
"236 8 LINE",
"239 -7 OFFCURVE",
"263 -7 OFFCURVE",
"263 -7 CURVE",
"263 -38 LINE",
"263 -38 OFFCURVE",
"235 -28 OFFCURVE",
"217 -28 CURVE SMOOTH",
"199 -28 OFFCURVE",
"177 -39 OFFCURVE",
"177 -39 CURVE"
);
}
);
width = 266;
}
);
leftKerningGroup = d;
note = d;
rightKerningGroup = d;
unicode = 0064;
},
{
glyphname = e;
layers = (
{
hints = (
{
horizontal = 1;
place = "{-50, 27}";
type = Stem;
},
{
horizontal = 1;
place = "{12, 10}";
type = Stem;
},
{
horizontal = 1;
place = "{130, 27}";
type = Stem;
},
{
horizontal = 1;
place = "{192, 10}";
type = Stem;
},
{
horizontal = 1;
place = "{375, 27}";
type = Stem;
},
{
horizontal = 1;
place = "{438, 10}";
type = Stem;
},
{
place = "{-7, 10}";
type = Stem;
},
{
place = "{62, 27}";
type = Stem;
},
{
place = "{151, 10}";
type = Stem;
},
{
place = "{220, 27}";
type = Stem;
},
{
horizontal = 1;
place = "{98, 10}";
type = Stem;
},
{
place = "{173, 9}";
type = Stem;
}
);
layerId = "6055A463-9BF1-4E1B-8033-BCCEA0F196EB";
paths = (
{
closed = 1;
nodes = (
"132 375 OFFCURVE",
"132 374 OFFCURVE",
"133 374 CURVE",
"145 349 OFFCURVE",
"151 296 OFFCURVE",
"151 202 CURVE",
"89 202 LINE",
"90 313 OFFCURVE",
"105 375 OFFCURVE",
"132 375 CURVE"
);
},
{
closed = 1;
nodes = (
"245 130 LINE",
"245 130 OFFCURVE",
"247 180 OFFCURVE",
"247 199 CURVE SMOOTH",
"247 299 OFFCURVE",
"231 366 OFFCURVE",
"197 399 CURVE",
"195 400 LINE",
"175 432 OFFCURVE",
"147 448 OFFCURVE",
"111 448 CURVE SMOOTH",
"31 448 OFFCURVE",
"-7 373 OFFCURVE",
"-7 219 CURVE SMOOTH",
"-7 92 OFFCURVE",
"21 5 OFFCURVE",
"72 -23 CURVE",
"74 -25 LINE SMOOTH",
"90 -41 OFFCURVE",
"110 -50 OFFCURVE",
"132 -50 CURVE SMOOTH",
"227 -50 OFFCURVE",
"241 85 OFFCURVE",
"241 85 CURVE",
"224 108 LINE",
"173 108 LINE",
"173 108 OFFCURVE",
"164 22 OFFCURVE",
"111 22 CURVE SMOOTH",
"106 22 LINE",
"99 41 OFFCURVE",
"93 73 OFFCURVE",
"90 130 CURVE"
);
},
{
closed = 1;
nodes = (
"161 192 LINE",
"161 346 OFFCURVE",
"145 402 OFFCURVE",
"111 402 CURVE SMOOTH",
"79 402 OFFCURVE",
"62 326 OFFCURVE",
"62 192 CURVE"
);
},
{
closed = 1;
nodes = (
"43 -23 OFFCURVE",
"3 68 OFFCURVE",
"3 219 CURVE SMOOTH",
"3 366 OFFCURVE",
"38 438 OFFCURVE",
"111 438 CURVE SMOOTH",
"184 438 OFFCURVE",
"220 366 OFFCURVE",
"220 219 CURVE SMOOTH",
"220 200 OFFCURVE",
"218 157 OFFCURVE",
"218 157 CURVE",
"63 157 LINE",
"70 37 OFFCURVE",
"92 12 OFFCURVE",
"111 12 CURVE SMOOTH",
"173 12 OFFCURVE",
"182 98 OFFCURVE",
"182 98 CURVE",
"213 98 LINE",
"213 98 OFFCURVE",
"200 -23 OFFCURVE",
"111 -23 CURVE SMOOTH"
);
}
);
width = 236;
}
);
leftKerningGroup = e;
note = e;
rightKerningGroup = e;
unicode = 0065;
},
{
glyphname = f;
layers = (
{
hints = (
{
horizontal = 1;
place = "{-3, 21}";
target = up;
type = BottomGhost;
},
{
horizontal = 1;
place = "{356, 27}";
type = Stem;
},
{
horizontal = 1;
place = "{418, 10}";
type = Stem;
},
{
horizontal = 1;
place = "{478, 27}";
type = Stem;
},
{
horizontal = 1;
place = "{554, 28}";
type = Stem;
},
{
horizontal = 1;
place = "{613, 10}";
type = Stem;
},
{
horizontal = 1;
place = "{662, 10}";
type = Stem;
},
{
place = "{32, 10}";
type = Stem;
},
{
place = "{101, 27}";
type = Stem;
},
{
place = "{185, 27}";
type = Stem;
},
{
horizontal = 1;
place = "{26, 11}";
type = Stem;
},
{
place = "{5, 10}";
type = Stem;
},
{
horizontal = 1;
place = "{-21, 27}";
type = Stem;
},
{
place = "{128, 27}";
type = Stem;
},
{
place = "{139, 27}";
type = Stem;
},
{
place = "{152, 10}";
type = Stem;
},
{
place = "{9, 10}";
type = Stem;
}
);
layerId = "6055A463-9BF1-4E1B-8033-BCCEA0F196EB";
paths = (
{
closed = 1;
nodes = (
"32 47 LINE",
"29 32 OFFCURVE",
"5 37 OFFCURVE",
"5 37 CURVE",
"5 -18 LINE",
"28 -34 LINE",
"28 -34 OFFCURVE",
"63 -21 OFFCURVE",
"87 -21 CURVE SMOOTH",
"112 -21 OFFCURVE",
"155 -32 OFFCURVE",
"155 -32 CURVE",
"155 13 LINE",
"138 36 LINE",
"138 36 OFFCURVE",
"133 36 OFFCURVE",
"128 37 CURVE",
"128 356 LINE",
"166 356 LINE",
"166 405 LINE",
"149 428 LINE",
"128 428 LINE",
"126 505 OFFCURVE",
"133 548 OFFCURVE",
"148 554 CURVE",
"154 531 OFFCURVE",
"152 495 OFFCURVE",
"152 495 CURVE",
"175 478 LINE",
"219 478 LINE",
"219 478 OFFCURVE",
"212 534 OFFCURVE",
"212 564 CURVE SMOOTH",
"212 593 OFFCURVE",
"219 649 OFFCURVE",
"219 649 CURVE",
"202 672 LINE",
"152 672 LINE",
"152 621 LINE",
"146 623 OFFCURVE",
"140 623 OFFCURVE",
"131 623 CURVE SMOOTH",
"53 623 OFFCURVE",
"35 567 OFFCURVE",
"33 461 CURVE SMOOTH",
"33 455 OFFCURVE",
"32 428 OFFCURVE",
"32 428 CURVE",
"9 428 LINE",
"9 373 LINE",
"32 356 LINE"
);
},
{
closed = 1;
nodes = (
"15 26 LINE",
"15 26 OFFCURVE",
"39 27 OFFCURVE",
"42 42 CURVE",
"42 383 LINE",
"19 383 LINE",
"19 418 LINE",
"42 418 LINE",
"43 461 LINE SMOOTH",
"45 560 OFFCURVE",
"61 613 OFFCURVE",
"131 613 CURVE SMOOTH",
"143 613 OFFCURVE",
"154 610 OFFCURVE",
"162 604 CURVE",
"162 662 LINE",
"191 662 LINE",
"191 662 OFFCURVE",
"185 614 OFFCURVE",
"185 584 CURVE SMOOTH",
"185 553 OFFCURVE",
"191 505 OFFCURVE",
"191 505 CURVE",
"162 505 LINE",
"162 505 OFFCURVE",
"167 582 OFFCURVE",
"132 582 CURVE SMOOTH",
"111 582 OFFCURVE",
"99 534 OFFCURVE",
"101 439 CURVE SMOOTH",
"101 418 LINE",
"139 418 LINE",
"139 383 LINE",
"101 383 LINE",
"101 42 LINE",
"104 27 OFFCURVE",
"128 26 OFFCURVE",
"128 26 CURVE",
"128 -3 LINE",
"128 -3 OFFCURVE",
"93 6 OFFCURVE",
"67 6 CURVE SMOOTH",
"42 6 OFFCURVE",
"15 -4 OFFCURVE",
"15 -4 CURVE"
);
}
);
width = 187;
}
);
leftKerningGroup = f;
note = f;
rightKerningGroup = f;
unicode = 0066;
},
{
glyphname = g;
layers = (
{
hints = (
{
horizontal = 1;
place = "{-144, 10}";
type = Stem;
},
{
horizontal = 1;
place = "{94, 28}";
type = Stem;
},
{
horizontal = 1;
place = "{363, 27}";
type = Stem;
},
{
horizontal = 1;
place = "{451, 10}";
type = Stem;
},
{
place = "{1, 10}";
type = Stem;
},
{
place = "{46, 9}";
type = Stem;
},
{
place = "{110, 27}";
type = Stem;
},
{
place = "{188, 11}";
type = Stem;
},
{
place = "{230, 9}";
type = Stem;
},
{
place = "{289, 27}";
type = Stem;
},
{
horizontal = 1;
place = "{150, 10}";
type = Stem;
},
{
horizontal = 1;
place = "{37, 27}";
type = Stem;
},
{
place = "{66, 27}";
type = Stem;
},
{
place = "{253, 27}";
type = Stem;
},
{
place = "{244, 27}";
type = Stem;
},
{
place = "{212, 9}";
type = Stem;
},
{
horizontal = 1;
place = "{418, 10}";
type = Stem;
},
{
place = "{34, 10}";
type = Stem;
},
{
horizontal = 1;
place = "{-199, 27}";
type = Stem;
}
);
layerId = "6055A463-9BF1-4E1B-8033-BCCEA0F196EB";
paths = (
{
closed = 1;
nodes = (
"137 344 OFFCURVE",
"150 363 OFFCURVE",
"173 363 CURVE SMOOTH",
"176 363 LINE",
"183 348 OFFCURVE",
"188 319 OFFCURVE",
"188 268 CURVE SMOOTH",
"188 193 OFFCURVE",
"172 160 OFFCURVE",
"154 160 CURVE",
"154 160 OFFCURVE",
"152 160 OFFCURVE",
"149 161 CURVE",
"147 161 OFFCURVE",
"146 161 OFFCURVE",
"145 162 CURVE",
"141 177 OFFCURVE",
"137 203 OFFCURVE",
"137 248 CURVE SMOOTH"
);
},
{
closed = 1;
nodes = (
"93 25 OFFCURVE",
"141 37 OFFCURVE",
"170 37 CURVE SMOOTH",
"179 37 OFFCURVE",
"195 35 OFFCURVE",
"210 27 CURVE",
"221 13 OFFCURVE",
"230 -7 OFFCURVE",
"230 -38 CURVE SMOOTH",
"230 -132 OFFCURVE",
"154 -134 OFFCURVE",
"150 -134 CURVE SMOOTH",
"134 -134 OFFCURVE",
"118 -130 OFFCURVE",
"105 -119 CURVE",
"97 -104 OFFCURVE",
"93 -84 OFFCURVE",
"93 -58 CURVE SMOOTH"
);
},
{
closed = 1;
nodes = (
"280 263 OFFCURVE",
"279 277 OFFCURVE",
"277 289 CURVE",
"277 289 OFFCURVE",
"271 337 OFFCURVE",
"271 367 CURVE SMOOTH",
"271 398 OFFCURVE",
"279 438 OFFCURVE",
"279 438 CURVE",
"262 461 LINE",
"212 461 LINE",
"212 412 LINE",
"195 423 OFFCURVE",
"177 428 OFFCURVE",
"154 428 CURVE SMOOTH",
"80 428 OFFCURVE",
"46 376 OFFCURVE",
"46 268 CURVE SMOOTH",
"46 218 OFFCURVE",
"52 182 OFFCURVE",
"70 155 CURVE",
"37 145 OFFCURVE",
"34 123 OFFCURVE",
"34 109 CURVE SMOOTH",
"34 95 OFFCURVE",
"40 80 OFFCURVE",
"46 70 CURVE",
"21 51 OFFCURVE",
"1 16 OFFCURVE",
"1 -38 CURVE SMOOTH",
"1 -99 OFFCURVE",
"28 -136 OFFCURVE",
"61 -157 CURVE",
"92 -189 OFFCURVE",
"137 -199 OFFCURVE",
"170 -199 CURVE SMOOTH",
"230 -199 OFFCURVE",
"316 -162 OFFCURVE",
"316 -58 CURVE SMOOTH",
"316 -13 OFFCURVE",
"302 19 OFFCURVE",
"280 41 CURVE",
"277 42 LINE",
"259 71 OFFCURVE",
"231 89 OFFCURVE",
"199 97 CURVE",
"253 110 OFFCURVE",
"280 159 OFFCURVE",
"280 248 CURVE SMOOTH"
);
},
{
closed = 1;
nodes = (
"125 390 OFFCURVE",
"110 370 OFFCURVE",
"110 268 CURVE SMOOTH",
"110 170 OFFCURVE",
"131 154 OFFCURVE",
"146 151 CURVE SMOOTH",
"151 150 OFFCURVE",
"154 150 OFFCURVE",
"154 150 CURVE",
"176 150 OFFCURVE",
"199 186 OFFCURVE",
"199 268 CURVE SMOOTH",
"199 376 OFFCURVE",
"174 390 OFFCURVE",
"154 390 CURVE SMOOTH"
);
},
{
closed = 1;
nodes = (
"118 64 OFFCURVE",
"66 51 OFFCURVE",
"66 -38 CURVE SMOOTH",
"66 -125 OFFCURVE",
"113 -144 OFFCURVE",
"150 -144 CURVE SMOOTH",
"154 -144 OFFCURVE",
"239 -142 OFFCURVE",
"239 -38 CURVE SMOOTH",
"239 54 OFFCURVE",
"177 64 OFFCURVE",
"150 64 CURVE SMOOTH"
);
},
{
closed = 1;
nodes = (
"98 -172 OFFCURVE",
"11 -144 OFFCURVE",
"11 -38 CURVE SMOOTH",
"11 21 OFFCURVE",
"37 53 OFFCURVE",
"64 70 CURVE",
"51 75 OFFCURVE",
"44 91 OFFCURVE",
"44 109 CURVE SMOOTH",
"44 121 OFFCURVE",
"52 142 OFFCURVE",
"88 149 CURVE",
"66 172 OFFCURVE",
"55 212 OFFCURVE",
"55 268 CURVE SMOOTH",
"55 369 OFFCURVE",
"87 418 OFFCURVE",
"154 418 CURVE SMOOTH",
"182 418 OFFCURVE",
"205 408 OFFCURVE",
"221 389 CURVE",
"221 451 LINE",
"250 451 LINE",
"250 451 OFFCURVE",
"244 417 OFFCURVE",
"244 387 CURVE SMOOTH",
"244 356 OFFCURVE",
"250 308 OFFCURVE",
"250 308 CURVE",
"252 296 OFFCURVE",
"253 282 OFFCURVE",
"253 268 CURVE SMOOTH",
"253 171 OFFCURVE",
"219 122 OFFCURVE",
"154 122 CURVE SMOOTH",
"138 122 OFFCURVE",
"69 127 OFFCURVE",
"69 107 CURVE SMOOTH",
"69 87 OFFCURVE",
"136 94 OFFCURVE",
"150 94 CURVE SMOOTH",
"217 94 OFFCURVE",
"289 59 OFFCURVE",
"289 -38 CURVE SMOOTH",
"289 -137 OFFCURVE",
"206 -172 OFFCURVE",
"150 -172 CURVE SMOOTH"
);
}
);
width = 292;
}
);
leftKerningGroup = g;
note = g;
rightKerningGroup = g;
unicode = 0067;
},
{
glyphname = h;
layers = (
{
hints = (
{
horizontal = 1;
place = "{-3, 21}";
target = up;
type = BottomGhost;
},
{
horizontal = 1;
place = "{356, 27}";
type = Stem;
},
{
horizontal = 1;
place = "{417, 10}";
type = Stem;
},
{
horizontal = 1;
place = "{606, 10}";
type = Stem;
},
{
place = "{32, 10}";
type = Stem;
},
{
place = "{100, 27}";
type = Stem;
},
{
place = "{193, 10}";
type = Stem;
},
{
place = "{262, 27}";
type = Stem;
},
{
horizontal = 1;
place = "{-56, 27}";
type = Stem;
},
{
place = "{165, 10}";
type = Stem;
},
{
place = "{289, 27}";
type = Stem;
},
{
horizontal = 1;
place = "{-9, 12}";
type = Stem;
},
{
horizontal = 1;
place = "{558, 28}";
type = Stem;
},
{
place = "{128, 26}";
type = Stem;
},
{
place = "{4, 10}";
type = Stem;
},
{
horizontal = 1;
place = "{576, 10}";
type = Stem;
},
{
horizontal = 1;
place = "{26, 11}";
type = Stem;
},
{
horizontal = 1;
place = "{-21, 27}";
type = Stem;
}
);
layerId = "6055A463-9BF1-4E1B-8033-BCCEA0F196EB";
paths = (
{
closed = 1;
nodes = (
"166 -53 LINE",
"189 -69 LINE",
"189 -69 OFFCURVE",
"223 -56 OFFCURVE",
"248 -56 CURVE SMOOTH",
"272 -56 OFFCURVE",
"316 -67 OFFCURVE",
"316 -67 CURVE",
"316 -22 LINE",
"298 1 LINE",
"298 1 OFFCURVE",
"294 1 OFFCURVE",
"289 3 CURVE",
"289 193 LINE SMOOTH",
"289 278 OFFCURVE",
"280 343 OFFCURVE",
"245 377 CURVE",
"241 380 LINE",
"223 410 OFFCURVE",
"195 427 OFFCURVE",
"153 427 CURVE SMOOTH",
"142 427 OFFCURVE",
"133 426 OFFCURVE",
"127 425 CURVE",
"127 548 LINE",
"131 563 OFFCURVE",
"150 562 OFFCURVE",
"150 562 CURVE",
"154 606 LINE",
"137 630 LINE",
"137 630 OFFCURVE",
"92 616 OFFCURVE",
"70 616 CURVE SMOOTH",
"47 616 OFFCURVE",
"5 630 OFFCURVE",
"5 630 CURVE",
"5 576 LINE",
"28 559 LINE",
"28 559 OFFCURVE",
"29 558 OFFCURVE",
"32 558 CURVE",
"32 49 LINE",
"28 34 OFFCURVE",
"4 37 OFFCURVE",
"4 37 CURVE",
"5 -20 LINE",
"28 -35 LINE",
"28 -35 OFFCURVE",
"64 -21 OFFCURVE",
"87 -21 CURVE SMOOTH",
"111 -21 OFFCURVE",
"154 -32 OFFCURVE",
"154 -32 CURVE",
"154 13 LINE",
"137 36 LINE",
"137 36 OFFCURVE",
"132 36 OFFCURVE",
"127 38 CURVE",
"127 193 LINE SMOOTH",
"128 341 OFFCURVE",
"148 356 OFFCURVE",
"172 356 CURVE SMOOTH",
"176 356 LINE",
"186 333 OFFCURVE",
"193 288 OFFCURVE",
"193 213 CURVE SMOOTH",
"193 8 LINE",
"190 -6 OFFCURVE",
"165 0 OFFCURVE",
"165 0 CURVE"
);
},
{
closed = 1;
nodes = (
"176 -9 LINE",
"176 -9 OFFCURVE",
"199 -8 OFFCURVE",
"203 6 CURVE",
"203 213 LINE SMOOTH",
"203 334 OFFCURVE",
"187 383 OFFCURVE",
"153 383 CURVE SMOOTH",
"123 383 OFFCURVE",
"101 367 OFFCURVE",
"100 213 CURVE SMOOTH",
"100 42 LINE",
"104 27 OFFCURVE",
"128 26 OFFCURVE",
"128 26 CURVE",
"128 -3 LINE",
"128 -3 OFFCURVE",
"92 6 OFFCURVE",
"66 6 CURVE SMOOTH",
"41 6 OFFCURVE",
"15 -4 OFFCURVE",
"15 -4 CURVE",
"15 26 LINE",
"15 26 OFFCURVE",
"38 27 OFFCURVE",
"42 42 CURVE",
"42 570 LINE",
"38 585 OFFCURVE",
"15 586 OFFCURVE",
"15 586 CURVE",
"15 616 LINE",
"15 616 OFFCURVE",
"46 606 OFFCURVE",
"70 606 CURVE SMOOTH",
"96 606 OFFCURVE",
"128 616 OFFCURVE",
"128 616 CURVE",
"128 586 LINE",
"128 586 OFFCURVE",
"104 585 OFFCURVE",
"100 570 CURVE",
"100 401 LINE",
"114 412 OFFCURVE",
"132 417 OFFCURVE",
"153 417 CURVE SMOOTH",
"243 417 OFFCURVE",
"262 336 OFFCURVE",
"262 213 CURVE SMOOTH",
"262 6 LINE",
"266 -8 OFFCURVE",
"289 -9 OFFCURVE",
"289 -9 CURVE",
"289 -38 LINE",
"289 -38 OFFCURVE",
"253 -29 OFFCURVE",
"227 -29 CURVE SMOOTH",
"203 -29 OFFCURVE",
"176 -39 OFFCURVE",
"176 -39 CURVE"
);
}
);
width = 304;
}
);
leftKerningGroup = h;
note = h;
rightKerningGroup = h;
unicode = 0068;
},
{
glyphname = i;
layers = (
{
hints = (
{
horizontal = 1;
place = "{0, 21}";
target = up;
type = BottomGhost;
},
{
horizontal = 1;
place = "{410, 32}";
type = Stem;
},
{
horizontal = 1;
place = "{540, 10}";
type = Stem;
},
{
place = "{33, 9}";
type = Stem;
},
{
place = "{96, 27}";
type = Stem;
},
{
horizontal = 1;
place = "{-17, 27}";
type = Stem;
},
{
place = "{6, 9}";
type = Stem;
},
{
place = "{123, 27}";
type = Stem;
},
{
horizontal = 1;
place = "{30, 9}";
type = Stem;
},
{
place = "{21, 11}";
type = Stem;
},
{
place = "{108, 27}";
type = Stem;
},
{
horizontal = 1;
place = "{379, 10}";
type = Stem;
}
);
layerId = "6055A463-9BF1-4E1B-8033-BCCEA0F196EB";
paths = (
{
closed = 1;
nodes = (
"6 -16 LINE",
"28 -31 LINE",
"28 -31 OFFCURVE",
"64 -17 OFFCURVE",
"87 -17 CURVE SMOOTH",
"110 -17 OFFCURVE",
"150 -30 OFFCURVE",
"150 -30 CURVE",
"150 17 LINE",
"133 40 LINE",
"133 40 OFFCURVE",
"128 40 OFFCURVE",
"123 41 CURVE",
"124 397 LINE",
"108 414 LINE",
"108 419 LINE",
"123 428 OFFCURVE",
"135 448 OFFCURVE",
"135 471 CURVE SMOOTH",
"135 489 OFFCURVE",
"127 505 OFFCURVE",
"118 515 CURVE",
"110 521 LINE",
"103 539 OFFCURVE",
"87 550 OFFCURVE",
"69 550 CURVE SMOOTH",
"42 550 OFFCURVE",
"21 524 OFFCURVE",
"21 491 CURVE SMOOTH",
"21 465 OFFCURVE",
"34 443 OFFCURVE",
"52 435 CURVE",
"61 427 LINE SMOOTH",
"64 424 OFFCURVE",
"65 421 OFFCURVE",
"69 420 CURVE",
"43 422 OFFCURVE",
"6 432 OFFCURVE",
"6 432 CURVE",
"6 379 LINE",
"6 379 OFFCURVE",
"20 382 OFFCURVE",
"27 375 CURVE SMOOTH",
"33 370 OFFCURVE",
"33 362 OFFCURVE",
"33 362 CURVE",
"33 49 LINE",
"28 34 OFFCURVE",
"6 39 OFFCURVE",
"6 39 CURVE"
);
},
{
closed = 1;
nodes = (
"49 442 OFFCURVE",
"32 464 OFFCURVE",
"32 491 CURVE SMOOTH",
"32 518 OFFCURVE",
"49 540 OFFCURVE",
"69 540 CURVE SMOOTH",
"91 540 OFFCURVE",
"108 518 OFFCURVE",
"108 491 CURVE SMOOTH",
"108 464 OFFCURVE",
"91 442 OFFCURVE",
"69 442 CURVE SMOOTH"
);
},
{
closed = 1;
nodes = (
"15 30 LINE",
"15 30 OFFCURVE",
"38 31 OFFCURVE",
"42 46 CURVE",
"42 374 LINE",
"38 389 OFFCURVE",
"15 389 OFFCURVE",
"15 389 CURVE",
"15 419 LINE",
"15 419 OFFCURVE",
"51 410 OFFCURVE",
"77 410 CURVE SMOOTH",
"97 410 OFFCURVE",
"97 410 OFFCURVE",
"97 410 CURVE",
"96 46 LINE",
"100 31 OFFCURVE",
"123 30 OFFCURVE",
"123 30 CURVE",
"123 0 LINE",
"123 0 OFFCURVE",
"92 10 OFFCURVE",
"68 10 CURVE SMOOTH",
"42 10 OFFCURVE",
"15 0 OFFCURVE",
"15 0 CURVE"
);
}
);
width = 138;
}
);
leftKerningGroup = i;
note = i;
rightKerningGroup = i;
unicode = 0069;
},
{
glyphname = j;
layers = (
{
hints = (
{
horizontal = 1;
place = "{-232, 27}";
type = Stem;
},
{
horizontal = 1;
place = "{-92, 10}";
type = Stem;
},
{
horizontal = 1;
place = "{400, 29}";
type = Stem;
},
{
horizontal = 1;
place = "{527, 10}";
type = Stem;
},
{
place = "{-96, 11}";
type = Stem;
},
{
place = "{41, 10}";
type = Stem;
},
{
place = "{109, 26}";
type = Stem;
},
{
horizontal = 1;
place = "{355, 24}";
type = Stem;
},
{
place = "{-62, 27}";
type = Stem;
},
{
place = "{32, 10}";
type = Stem;
},
{
place = "{136, 25}";
type = Stem;
},
{
horizontal = 1;
place = "{369, 10}";
type = Stem;
},
{
place = "{14, 10}";
type = Stem;
}
);
layerId = "6055A463-9BF1-4E1B-8033-BCCEA0F196EB";
paths = (
{
closed = 1;
nodes = (
"-71 -232 LINE",
"-35 -232 LINE",
"-35 -201 LINE",
"34 -196 OFFCURVE",
"135 -147 OFFCURVE",
"136 86 CURVE SMOOTH",
"136 150 OFFCURVE",
"136 278 OFFCURVE",
"136 343 CURVE",
"140 358 OFFCURVE",
"159 355 OFFCURVE",
"159 355 CURVE",
"163 400 LINE",
"146 425 LINE",
"146 425 OFFCURVE",
"141 423 OFFCURVE",
"133 420 CURVE",
"141 431 OFFCURVE",
"145 443 OFFCURVE",
"145 458 CURVE SMOOTH",
"145 475 OFFCURVE",
"139 491 OFFCURVE",
"128 501 CURVE SMOOTH",
"122 507 LINE",
"114 525 OFFCURVE",
"97 537 OFFCURVE",
"79 537 CURVE SMOOTH",
"52 537 OFFCURVE",
"32 511 OFFCURVE",
"32 478 CURVE SMOOTH",
"32 452 OFFCURVE",
"45 430 OFFCURVE",
"63 422 CURVE",
"72 414 LINE",
"73 412 OFFCURVE",
"74 411 OFFCURVE",
"76 410 CURVE",
"51 412 OFFCURVE",
"14 422 OFFCURVE",
"14 422 CURVE",
"14 369 LINE",
"14 369 OFFCURVE",
"15 369 OFFCURVE",
"20 368 CURVE",
"41 352 LINE",
"41 106 LINE SMOOTH",
"40 -13 OFFCURVE",
"10 -93 OFFCURVE",
"-35 -123 CURVE",
"-35 -105 LINE",
"-52 -82 LINE",
"-105 -82 LINE",
"-105 -82 OFFCURVE",
"-96 -115 OFFCURVE",
"-96 -139 CURVE SMOOTH",
"-96 -165 OFFCURVE",
"-105 -216 OFFCURVE",
"-105 -216 CURVE"
);
},
{
closed = 1;
nodes = (
"59 429 OFFCURVE",
"42 451 OFFCURVE",
"42 478 CURVE SMOOTH",
"42 505 OFFCURVE",
"59 527 OFFCURVE",
"79 527 CURVE SMOOTH",
"101 527 OFFCURVE",
"118 505 OFFCURVE",
"118 478 CURVE SMOOTH",
"118 451 OFFCURVE",
"101 429 OFFCURVE",
"79 429 CURVE SMOOTH"
);
},
{
closed = 1;
nodes = (
"-92 -205 LINE",
"-92 -205 OFFCURVE",
"-85 -165 OFFCURVE",
"-85 -139 CURVE SMOOTH",
"-85 -114 OFFCURVE",
"-92 -92 OFFCURVE",
"-92 -92 CURVE",
"-62 -92 LINE",
"-62 -145 LINE",
"10 -139 OFFCURVE",
"50 -50 OFFCURVE",
"51 106 CURVE SMOOTH",
"51 364 LINE",
"47 379 OFFCURVE",
"24 379 OFFCURVE",
"24 379 CURVE",
"24 409 LINE",
"24 409 OFFCURVE",
"59 400 OFFCURVE",
"85 400 CURVE SMOOTH",
"110 400 OFFCURVE",
"136 410 OFFCURVE",
"136 410 CURVE",
"136 379 LINE",
"136 379 OFFCURVE",
"113 379 OFFCURVE",
"110 364 CURVE",
"109 106 LINE SMOOTH",
"108 -129 OFFCURVE",
"5 -171 OFFCURVE",
"-62 -174 CURVE",
"-62 -205 LINE"
);
}
);
width = 135;
}
);
leftKerningGroup = j;
note = j;
rightKerningGroup = j;
unicode = 006A;
},
{
glyphname = k;
layers = (
{
hints = (
{
horizontal = 1;
place = "{-9, 7}";
type = Stem;
},
{
horizontal = 1;
place = "{411, 10}";
type = Stem;
},
{
horizontal = 1;
place = "{606, 10}";
type = Stem;
},
{
place = "{16, 10}";
type = Stem;
},
{
place = "{85, 27}";
type = Stem;
},
{
place = "{244, 27}";
type = Stem;
},
{
horizontal = 1;
place = "{26, 10}";
type = Stem;
},
{
place = "{150, 11}";
type = Stem;
},
{
horizontal = 1;
place = "{380, 10}";
type = Stem;
},
{
place = "{112, 27}";
type = Stem;
},
{
place = "{134, 10}";
type = Stem;
},
{
horizontal = 1;
place = "{562, 24}";
type = Stem;
},
{
place = "{-11, 10}";
type = Stem;
},
{
horizontal = 1;
place = "{576, 10}";
type = Stem;
},
{
horizontal = 1;
place = "{26, 13}";
type = Stem;
},
{
horizontal = 1;
place = "{-21, 27}";
type = Stem;
},
{
place = "{121, 10}";
type = Stem;
},
{
horizontal = 1;
place = "{-56, 27}";
type = Stem;
},
{
place = "{255, 16}";
type = Stem;
},
{
horizontal = 1;
place = "{-3, 21}";
target = up;
type = BottomGhost;
}
);
layerId = "6055A463-9BF1-4E1B-8033-BCCEA0F196EB";
paths = (
{
closed = 1;
nodes = (
"122 36 LINE",
"122 36 OFFCURVE",
"117 36 OFFCURVE",
"112 37 CURVE",
"112 108 LINE",
"150 6 LINE",
"148 -1 OFFCURVE",
"143 -3 OFFCURVE",
"139 -2 CURVE",
"139 13 LINE"
);
},
{
closed = 1;
nodes = (
"235 346 LINE SMOOTH",
"247 362 OFFCURVE",
"271 363 OFFCURVE",
"271 363 CURVE",
"271 410 LINE",
"254 434 LINE",
"254 434 OFFCURVE",
"207 421 OFFCURVE",
"195 421 CURVE SMOOTH",
"181 421 OFFCURVE",
"134 431 OFFCURVE",
"134 431 CURVE",
"134 380 LINE",
"156 363 LINE",
"128 329 LINE SMOOTH",
"123 322 OFFCURVE",
"117 316 OFFCURVE",
"112 310 CURVE",
"112 549 LINE",
"115 564 OFFCURVE",
"135 562 OFFCURVE",
"135 562 CURVE",
"139 606 LINE",
"122 630 LINE",
"122 630 OFFCURVE",
"77 616 OFFCURVE",
"55 616 CURVE SMOOTH",
"35 616 OFFCURVE",
"-11 630 OFFCURVE",
"-11 630 CURVE",
"-11 576 LINE",
"-11 576 OFFCURVE",
"11 575 OFFCURVE",
"16 558 CURVE",
"16 53 LINE",
"13 38 OFFCURVE",
"-11 39 OFFCURVE",
"-11 39 CURVE",
"-11 -19 LINE",
"12 -34 LINE",
"12 -34 OFFCURVE",
"47 -21 OFFCURVE",
"71 -21 CURVE SMOOTH",
"86 -21 OFFCURVE",
"106 -24 OFFCURVE",
"121 -27 CURVE",
"121 -53 LINE",
"144 -69 LINE",
"144 -69 OFFCURVE",
"179 -56 OFFCURVE",
"203 -56 CURVE SMOOTH",
"228 -56 OFFCURVE",
"271 -67 OFFCURVE",
"271 -67 CURVE",
"272 -23 LINE",
"255 0 LINE",
"255 0 OFFCURVE",
"248 1 OFFCURVE",
"241 3 CURVE",
"211 82 OFFCURVE",
"178 163 OFFCURVE",
"148 243 CURVE"
);
},
{
closed = 1;
nodes = (
"131 -9 LINE",
"131 -9 OFFCURVE",
"157 -8 OFFCURVE",
"161 6 CURVE",
"85 212 LINE",
"85 42 LINE",
"88 27 OFFCURVE",
"112 26 OFFCURVE",
"112 26 CURVE",
"112 19 LINE",
"112 -3 LINE",
"112 -3 OFFCURVE",
"77 6 OFFCURVE",
"51 6 CURVE SMOOTH",
"26 6 OFFCURVE",
"-1 -4 OFFCURVE",
"-1 -4 CURVE",
"-1 26 LINE",
"-1 26 OFFCURVE",
"23 27 OFFCURVE",
"26 42 CURVE",
"26 570 LINE",
"23 585 OFFCURVE",
"-1 586 OFFCURVE",
"-1 586 CURVE",
"-1 616 LINE",
"-1 616 OFFCURVE",
"32 606 OFFCURVE",
"55 606 CURVE SMOOTH",
"80 606 OFFCURVE",
"112 616 OFFCURVE",
"112 616 CURVE",
"112 586 LINE",
"112 586 OFFCURVE",
"88 585 OFFCURVE",
"85 570 CURVE",
"85 263 LINE",
"181 378 LINE",
"178 390 OFFCURVE",
"144 390 OFFCURVE",
"144 390 CURVE",
"144 418 LINE",
"144 418 OFFCURVE",
"177 411 OFFCURVE",
"195 411 CURVE SMOOTH",
"212 411 OFFCURVE",
"244 420 OFFCURVE",
"244 420 CURVE",
"244 390 LINE",
"244 390 OFFCURVE",
"224 389 OFFCURVE",
"210 371 CURVE SMOOTH",
"119 264 LINE",
"222 0 LINE",
"229 -7 OFFCURVE",
"245 -9 OFFCURVE",
"245 -9 CURVE",
"244 -38 LINE",
"244 -38 OFFCURVE",
"209 -29 OFFCURVE",
"183 -29 CURVE SMOOTH",
"158 -29 OFFCURVE",
"131 -39 OFFCURVE",
"131 -39 CURVE"
);
}
);
width = 242;
}
);
leftKerningGroup = k;
note = k;
rightKerningGroup = k;
unicode = 006B;
},
{
glyphname = l;
layers = (
{
hints = (
{
horizontal = 1;
place = "{-3, 21}";
target = up;
type = BottomGhost;
},
{
horizontal = 1;
place = "{606, 10}";
type = Stem;
},
{
place = "{33, 10}";
type = Stem;
},
{
place = "{101, 27}";
type = Stem;
},
{
horizontal = 1;
place = "{26, 12}";
type = Stem;
},
{
place = "{4, 11}";
type = Stem;
},
{
horizontal = 1;
place = "{-21, 27}";
type = Stem;
},
{
place = "{128, 27}";
type = Stem;
},
{
horizontal = 1;
place = "{561, 24}";
type = Stem;
},
{
horizontal = 1;
place = "{575, 10}";
type = Stem;
}
);
layerId = "6055A463-9BF1-4E1B-8033-BCCEA0F196EB";
paths = (
{
closed = 1;
nodes = (
"33 50 LINE",
"29 35 OFFCURVE",
"4 38 OFFCURVE",
"4 38 CURVE",
"4 -18 LINE",
"27 -34 LINE",
"27 -34 OFFCURVE",
"62 -21 OFFCURVE",
"88 -21 CURVE SMOOTH",
"111 -21 OFFCURVE",
"155 -32 OFFCURVE",
"155 -32 CURVE",
"155 13 LINE",
"138 36 LINE",
"138 36 OFFCURVE",
"133 36 OFFCURVE",
"128 38 CURVE",
"128 548 LINE",
"132 563 OFFCURVE",
"151 561 OFFCURVE",
"151 561 CURVE",
"155 607 LINE",
"138 632 LINE",
"138 632 OFFCURVE",
"97 616 OFFCURVE",
"75 616 CURVE SMOOTH",
"52 616 OFFCURVE",
"4 628 OFFCURVE",
"4 628 CURVE",
"4 575 LINE",
"4 575 OFFCURVE",
"28 574 OFFCURVE",
"33 557 CURVE"
);
},
{
closed = 1;
nodes = (
"15 26 LINE",
"15 26 OFFCURVE",
"39 27 OFFCURVE",
"43 42 CURVE",
"43 570 LINE",
"39 585 OFFCURVE",
"15 585 OFFCURVE",
"15 585 CURVE",
"15 615 LINE",
"15 615 OFFCURVE",
"49 606 OFFCURVE",
"75 606 CURVE SMOOTH",
"102 606 OFFCURVE",
"128 616 OFFCURVE",
"128 616 CURVE",
"128 585 LINE",
"128 585 OFFCURVE",
"105 585 OFFCURVE",
"101 570 CURVE",
"101 42 LINE",
"105 27 OFFCURVE",
"128 26 OFFCURVE",
"128 26 CURVE",
"128 19 LINE",
"128 -3 LINE",
"128 -3 OFFCURVE",
"93 6 OFFCURVE",
"67 6 CURVE SMOOTH",
"42 6 OFFCURVE",
"15 -4 OFFCURVE",
"15 -4 CURVE"
);
}
);
width = 143;
}
);
leftKerningGroup = l;
note = l;
rightKerningGroup = l;
unicode = 006C;
},
{
glyphname = m;
layers = (
{
hints = (
{
horizontal = 1;
place = "{-9, 11}";
type = Stem;
},
{
horizontal = 1;
place = "{356, 27}";
type = Stem;
},
{
horizontal = 1;
place = "{417, 10}";
type = Stem;
},
{
place = "{19, 10}";
type = Stem;
},
{
place = "{88, 27}";
type = Stem;
},
{
place = "{181, 10}";
type = Stem;
},
{
place = "{249, 27}";
type = Stem;
},
{
place = "{342, 10}";
type = Stem;
},
{
place = "{411, 27}";
type = Stem;
},
{
place = "{154, 9}";
type = Stem;
},
{
horizontal = 1;
place = "{-56, 27}";
type = Stem;
},
{
place = "{276, 27}";
type = Stem;
},
{
horizontal = 1;
place = "{26, 12}";
type = Stem;
},
{
place = "{314, 10}";
type = Stem;
},
{
horizontal = 1;
place = "{-21, 27}";
type = Stem;
},
{
place = "{438, 27}";
type = Stem;
},
{
horizontal = 1;
place = "{448, 10}";
type = Stem;
},
{
place = "{-8, 10}";
type = Stem;
},
{
place = "{115, 28}";
type = Stem;
},
{
horizontal = 1;
place = "{-3, 21}";
target = up;
type = BottomGhost;
},
{
horizontal = 1;
place = "{-4, 21}";
target = up;
type = BottomGhost;
}
);
layerId = "6055A463-9BF1-4E1B-8033-BCCEA0F196EB";
paths = (
{
closed = 1;
nodes = (
"181 13 LINE",
"177 -1 OFFCURVE",
"154 2 OFFCURVE",
"154 2 CURVE",
"154 -53 LINE",
"176 -69 LINE",
"176 -69 OFFCURVE",
"212 -56 OFFCURVE",
"236 -56 CURVE SMOOTH",
"261 -56 OFFCURVE",
"303 -67 OFFCURVE",
"303 -67 CURVE",
"303 -22 LINE",
"287 1 LINE",
"287 1 OFFCURVE",
"281 1 OFFCURVE",
"276 3 CURVE",
"276 197 LINE SMOOTH",
"278 299 OFFCURVE",
"293 356 OFFCURVE",
"323 356 CURVE SMOOTH",
"325 356 LINE",
"338 333 OFFCURVE",
"342 288 OFFCURVE",
"342 213 CURVE SMOOTH",
"342 48 LINE",
"339 34 OFFCURVE",
"314 38 OFFCURVE",
"314 38 CURVE",
"315 -20 LINE",
"338 -35 LINE",
"338 -35 OFFCURVE",
"374 -22 OFFCURVE",
"397 -22 CURVE SMOOTH",
"423 -22 OFFCURVE",
"465 -33 OFFCURVE",
"465 -33 CURVE",
"465 13 LINE",
"449 36 LINE",
"449 36 OFFCURVE",
"444 36 OFFCURVE",
"438 37 CURVE",
"438 193 LINE SMOOTH",
"438 278 OFFCURVE",
"429 343 OFFCURVE",
"396 377 CURVE",
"392 380 LINE",
"374 410 OFFCURVE",
"346 427 OFFCURVE",
"302 427 CURVE SMOOTH",
"269 427 OFFCURVE",
"243 417 OFFCURVE",
"224 391 CURVE",
"204 417 OFFCURVE",
"177 427 OFFCURVE",
"140 427 CURVE SMOOTH",
"131 427 OFFCURVE",
"122 426 OFFCURVE",
"115 425 CURVE",
"115 450 LINE",
"99 475 LINE",
"99 475 OFFCURVE",
"61 458 OFFCURVE",
"46 458 CURVE SMOOTH",
"31 458 OFFCURVE",
"-8 472 OFFCURVE",
"-8 472 CURVE",
"-8 417 LINE",
"-8 417 OFFCURVE",
"5 418 OFFCURVE",
"10 414 CURVE",
"16 407 OFFCURVE",
"19 400 OFFCURVE",
"19 400 CURVE",
"19 52 LINE",
"16 37 OFFCURVE",
"-8 38 OFFCURVE",
"-8 38 CURVE",
"-8 -19 LINE",
"15 -34 LINE",
"15 -34 OFFCURVE",
"50 -21 OFFCURVE",
"74 -21 CURVE SMOOTH",
"100 -21 OFFCURVE",
"143 -32 OFFCURVE",
"143 -32 CURVE",
"143 13 LINE",
"126 40 LINE",
"126 40 OFFCURVE",
"121 40 OFFCURVE",
"115 41 CURVE",
"115 193 LINE SMOOTH",
"115 341 OFFCURVE",
"148 356 OFFCURVE",
"161 356 CURVE SMOOTH",
"162 356 OFFCURVE",
"163 356 OFFCURVE",
"164 355 CURVE",
"176 333 OFFCURVE",
"181 287 OFFCURVE",
"181 213 CURVE SMOOTH"
);
},
{
closed = 1;
nodes = (
"163 -9 LINE",
"163 -9 OFFCURVE",
"188 -8 OFFCURVE",
"191 6 CURVE",
"191 213 LINE SMOOTH",
"190 334 OFFCURVE",
"176 383 OFFCURVE",
"140 383 CURVE SMOOTH",
"126 383 OFFCURVE",
"88 367 OFFCURVE",
"88 213 CURVE SMOOTH",
"88 42 LINE",
"91 27 OFFCURVE",
"115 26 OFFCURVE",
"115 26 CURVE",
"115 -3 LINE",
"115 -3 OFFCURVE",
"81 6 OFFCURVE",
"55 6 CURVE SMOOTH",
"29 6 OFFCURVE",
"2 -4 OFFCURVE",
"2 -4 CURVE",
"2 26 LINE",
"2 26 OFFCURVE",
"27 27 OFFCURVE",
"29 42 CURVE",
"29 412 LINE",
"27 427 OFFCURVE",
"2 427 OFFCURVE",
"2 427 CURVE",
"2 458 LINE",
"2 458 OFFCURVE",
"29 448 OFFCURVE",
"46 448 CURVE SMOOTH",
"64 448 OFFCURVE",
"88 459 OFFCURVE",
"88 459 CURVE",
"88 401 LINE",
"103 412 OFFCURVE",
"121 417 OFFCURVE",
"140 417 CURVE SMOOTH",
"180 417 OFFCURVE",
"207 402 OFFCURVE",
"224 371 CURVE",
"242 402 OFFCURVE",
"269 417 OFFCURVE",
"302 417 CURVE SMOOTH",
"392 417 OFFCURVE",
"411 336 OFFCURVE",
"411 213 CURVE SMOOTH",
"411 40 LINE",
"415 26 OFFCURVE",
"438 26 OFFCURVE",
"438 26 CURVE",
"438 -4 LINE",
"438 -4 OFFCURVE",
"404 5 OFFCURVE",
"378 5 CURVE SMOOTH",
"352 5 OFFCURVE",
"325 -5 OFFCURVE",
"325 -5 CURVE",
"325 26 LINE",
"325 26 OFFCURVE",
"350 26 OFFCURVE",
"352 40 CURVE",
"352 213 LINE SMOOTH",
"352 334 OFFCURVE",
"338 383 OFFCURVE",
"302 383 CURVE SMOOTH",
"270 383 OFFCURVE",
"251 323 OFFCURVE",
"249 217 CURVE SMOOTH",
"249 213 LINE",
"249 6 LINE",
"253 -8 OFFCURVE",
"276 -9 OFFCURVE",
"276 -9 CURVE",
"276 -16 LINE",
"276 -38 LINE",
"276 -38 OFFCURVE",
"242 -29 OFFCURVE",
"217 -29 CURVE SMOOTH",
"190 -29 OFFCURVE",
"163 -39 OFFCURVE",
"163 -39 CURVE"
);
}
);
width = 446;
}
);
leftKerningGroup = m;
note = m;
rightKerningGroup = m;
unicode = 006D;
},
{
glyphname = n;
layers = (
{
hints = (
{
horizontal = 1;
place = "{-3, 21}";
target = up;
type = BottomGhost;
},
{
horizontal = 1;
place = "{356, 27}";
type = Stem;
},
{
horizontal = 1;
place = "{417, 10}";
type = Stem;
},
{
place = "{32, 10}";
type = Stem;
},
{
place = "{100, 27}";
type = Stem;
},
{
place = "{193, 10}";
type = Stem;
},
{
place = "{262, 27}";
type = Stem;
},
{
horizontal = 1;
place = "{-56, 27}";
type = Stem;
},
{
place = "{166, 10}";
type = Stem;
},
{
place = "{289, 27}";
type = Stem;
},
{
horizontal = 1;
place = "{-9, 9}";
type = Stem;
},
{
horizontal = 1;
place = "{448, 10}";
type = Stem;
},
{
place = "{5, 10}";
type = Stem;
},
{
horizontal = 1;
place = "{26, 11}";
type = Stem;
},
{
horizontal = 1;
place = "{-21, 27}";
type = Stem;
},
{
place = "{128, 27}";
type = Stem;
}
);
layerId = "6055A463-9BF1-4E1B-8033-BCCEA0F196EB";
paths = (
{
closed = 1;
nodes = (
"166 -53 LINE",
"189 -69 LINE",
"189 -69 OFFCURVE",
"224 -56 OFFCURVE",
"248 -56 CURVE SMOOTH",
"273 -56 OFFCURVE",
"316 -67 OFFCURVE",
"316 -67 CURVE",
"316 -22 LINE",
"299 1 LINE",
"299 1 OFFCURVE",
"294 1 OFFCURVE",
"289 3 CURVE",
"289 193 LINE SMOOTH",
"289 278 OFFCURVE",
"280 343 OFFCURVE",
"246 377 CURVE",
"242 380 LINE",
"224 410 OFFCURVE",
"196 427 OFFCURVE",
"153 427 CURVE SMOOTH",
"143 427 OFFCURVE",
"134 426 OFFCURVE",
"127 425 CURVE",
"127 450 LINE",
"110 475 LINE",
"110 475 OFFCURVE",
"75 458 OFFCURVE",
"59 458 CURVE SMOOTH",
"43 458 OFFCURVE",
"5 472 OFFCURVE",
"5 472 CURVE",
"5 417 LINE",
"5 417 OFFCURVE",
"23 416 OFFCURVE",
"26 413 CURVE SMOOTH",
"33 407 OFFCURVE",
"32 400 OFFCURVE",
"32 400 CURVE",
"32 51 LINE",
"28 37 OFFCURVE",
"5 37 OFFCURVE",
"5 37 CURVE",
"5 -20 LINE",
"28 -35 LINE",
"28 -35 OFFCURVE",
"64 -21 OFFCURVE",
"87 -21 CURVE SMOOTH",
"112 -21 OFFCURVE",
"155 -32 OFFCURVE",
"155 -32 CURVE",
"155 13 LINE",
"138 36 LINE",
"138 36 OFFCURVE",
"133 36 OFFCURVE",
"127 38 CURVE",
"127 193 LINE SMOOTH",
"128 341 OFFCURVE",
"159 356 OFFCURVE",
"173 356 CURVE SMOOTH",
"176 356 LINE",
"187 333 OFFCURVE",
"193 288 OFFCURVE",
"193 213 CURVE SMOOTH",
"193 8 LINE",
"190 -6 OFFCURVE",
"166 0 OFFCURVE",
"166 0 CURVE"
);
},
{
closed = 1;
nodes = (
"176 -9 LINE",
"176 -9 OFFCURVE",
"200 -8 OFFCURVE",
"203 6 CURVE",
"203 213 LINE SMOOTH",
"203 334 OFFCURVE",
"188 383 OFFCURVE",
"153 383 CURVE SMOOTH",
"137 383 OFFCURVE",
"101 367 OFFCURVE",
"100 213 CURVE SMOOTH",
"100 42 LINE",
"104 27 OFFCURVE",
"128 26 OFFCURVE",
"128 26 CURVE",
"128 -3 LINE",
"128 -3 OFFCURVE",
"93 6 OFFCURVE",
"67 6 CURVE SMOOTH",
"41 6 OFFCURVE",
"15 -4 OFFCURVE",
"15 -4 CURVE",
"15 26 LINE",
"15 26 OFFCURVE",
"38 27 OFFCURVE",
"42 42 CURVE",
"42 412 LINE",
"39 427 OFFCURVE",
"15 427 OFFCURVE",
"15 427 CURVE",
"15 458 LINE",
"15 458 OFFCURVE",
"42 448 OFFCURVE",
"59 448 CURVE SMOOTH",
"77 448 OFFCURVE",
"100 459 OFFCURVE",
"100 459 CURVE",
"100 401 LINE",
"115 412 OFFCURVE",
"133 417 OFFCURVE",
"153 417 CURVE SMOOTH",
"243 417 OFFCURVE",
"262 336 OFFCURVE",
"262 213 CURVE SMOOTH",
"262 6 LINE",
"266 -8 OFFCURVE",
"289 -9 OFFCURVE",
"289 -9 CURVE",
"289 -38 LINE",
"289 -38 OFFCURVE",
"254 -29 OFFCURVE",
"228 -29 CURVE SMOOTH",
"203 -29 OFFCURVE",
"176 -39 OFFCURVE",
"176 -39 CURVE"
);
}
);
width = 289;
}
);
leftKerningGroup = n;
note = n;
rightKerningGroup = n;
unicode = 006E;
},
{
glyphname = o;
layers = (
{
hints = (
{
horizontal = 1;
place = "{-48, 27}";
type = Stem;
},
{
horizontal = 1;
place = "{13, 10}";
type = Stem;
},
{
horizontal = 1;
place = "{377, 27}";
type = Stem;
},
{
horizontal = 1;
place = "{439, 10}";
type = Stem;
},
{
place = "{5, 10}";
type = Stem;
},
{
place = "{72, 27}";
type = Stem;
},
{
place = "{167, 10}";
type = Stem;
},
{
place = "{234, 27}";
type = Stem;
}
);
layerId = "6055A463-9BF1-4E1B-8033-BCCEA0F196EB";
paths = (
{
closed = 1;
nodes = (
"99 319 OFFCURVE",
"114 376 OFFCURVE",
"144 377 CURVE",
"157 352 OFFCURVE",
"167 299 OFFCURVE",
"167 205 CURVE SMOOTH",
"167 77 OFFCURVE",
"135 23 OFFCURVE",
"125 23 CURVE SMOOTH",
"122 23 OFFCURVE",
"122 23 OFFCURVE",
"121 24 CURVE",
"108 50 OFFCURVE",
"99 100 OFFCURVE",
"99 185 CURVE SMOOTH"
);
},
{
closed = 1;
nodes = (
"82 -22 LINE",
"99 -39 OFFCURVE",
"121 -48 OFFCURVE",
"144 -48 CURVE SMOOTH",
"217 -48 OFFCURVE",
"261 37 OFFCURVE",
"261 185 CURVE SMOOTH",
"261 291 OFFCURVE",
"242 365 OFFCURVE",
"206 401 CURVE",
"203 403 LINE",
"184 433 OFFCURVE",
"157 449 OFFCURVE",
"125 449 CURVE SMOOTH",
"49 449 OFFCURVE",
"5 363 OFFCURVE",
"5 205 CURVE SMOOTH",
"5 85 OFFCURVE",
"32 9 OFFCURVE",
"80 -19 CURVE"
);
},
{
closed = 1;
nodes = (
"90 404 OFFCURVE",
"72 345 OFFCURVE",
"72 205 CURVE SMOOTH",
"72 63 OFFCURVE",
"101 13 OFFCURVE",
"125 13 CURVE SMOOTH",
"139 13 OFFCURVE",
"177 70 OFFCURVE",
"177 205 CURVE SMOOTH",
"177 352 OFFCURVE",
"149 404 OFFCURVE",
"125 404 CURVE SMOOTH"
);
},
{
closed = 1;
nodes = (
"55 -21 OFFCURVE",
"15 59 OFFCURVE",
"15 205 CURVE SMOOTH",
"15 356 OFFCURVE",
"55 439 OFFCURVE",
"125 439 CURVE SMOOTH",
"194 439 OFFCURVE",
"234 356 OFFCURVE",
"234 205 CURVE SMOOTH",
"234 61 OFFCURVE",
"194 -21 OFFCURVE",
"125 -21 CURVE SMOOTH"
);
}
);
width = 242;
}
);
leftKerningGroup = o;
note = o;
rightKerningGroup = o;
unicode = 006F;
},
{
glyphname = p;
layers = (
{
hints = (
{
horizontal = 1;
place = "{-146, 9}";
type = Stem;
},
{
horizontal = 1;
place = "{-29, 27}";
type = Stem;
},
{
horizontal = 1;
place = "{33, 10}";
type = Stem;
},
{
horizontal = 1;
place = "{356, 27}";
type = Stem;
},
{
horizontal = 1;
place = "{418, 10}";
type = Stem;
},
{
place = "{-11, 10}";
type = Stem;
},
{
place = "{35, 9}";
type = Stem;
},
{
place = "{103, 27}";
type = Stem;
},
{
place = "{197, 9}";
type = Stem;
},
{
place = "{265, 27}";
type = Stem;
},
{
horizontal = 1;
place = "{-192, 27}";
type = Stem;
},
{
place = "{-18, 9}";
type = Stem;
},
{
place = "{107, 27}";
type = Stem;
},
{
place = "{157, 26}";
type = Stem;
},
{
horizontal = 1;
place = "{445, 10}";
type = Stem;
},
{
horizontal = 1;
place = "{409, 10}";
type = Stem;
}
);
layerId = "6055A463-9BF1-4E1B-8033-BCCEA0F196EB";
paths = (
{
closed = 1;
nodes = (
"134 312 OFFCURVE",
"144 356 OFFCURVE",
"175 356 CURVE SMOOTH",
"176 356 LINE",
"189 330 OFFCURVE",
"197 280 OFFCURVE",
"197 204 CURVE SMOOTH",
"197 83 OFFCURVE",
"169 43 OFFCURVE",
"156 43 CURVE SMOOTH",
"153 43 OFFCURVE",
"152 43 OFFCURVE",
"149 43 CURVE",
"139 70 OFFCURVE",
"134 118 OFFCURVE",
"134 185 CURVE SMOOTH"
);
},
{
closed = 1;
nodes = (
"-18 -145 LINE",
"-18 -186 LINE",
"4 -203 LINE",
"4 -203 OFFCURVE",
"61 -192 OFFCURVE",
"94 -192 CURVE SMOOTH",
"128 -192 OFFCURVE",
"183 -203 OFFCURVE",
"183 -203 CURVE",
"183 -159 LINE",
"166 -136 LINE",
"166 -136 OFFCURVE",
"147 -133 OFFCURVE",
"130 -132 CURVE",
"130 -19 LINE",
"143 -25 OFFCURVE",
"158 -29 OFFCURVE",
"175 -29 CURVE SMOOTH",
"254 -29 OFFCURVE",
"292 43 OFFCURVE",
"292 185 CURVE SMOOTH",
"292 280 OFFCURVE",
"277 344 OFFCURVE",
"243 378 CURVE SMOOTH",
"242 379 LINE SMOOTH",
"221 411 OFFCURVE",
"193 428 OFFCURVE",
"156 428 CURVE SMOOTH",
"147 428 OFFCURVE",
"138 427 OFFCURVE",
"130 424 CURVE",
"130 443 LINE",
"113 468 LINE",
"113 468 OFFCURVE",
"67 455 OFFCURVE",
"53 455 CURVE SMOOTH",
"41 455 OFFCURVE",
"-11 464 OFFCURVE",
"-11 464 CURVE",
"-11 409 LINE",
"12 392 LINE",
"12 392 OFFCURVE",
"22 391 OFFCURVE",
"35 388 CURVE",
"35 -121 LINE SMOOTH",
"35 -134 OFFCURVE",
"-18 -137 OFFCURVE",
"-18 -137 CURVE"
);
},
{
closed = 1;
nodes = (
"120 383 OFFCURVE",
"107 336 OFFCURVE",
"107 204 CURVE SMOOTH",
"107 93 OFFCURVE",
"125 33 OFFCURVE",
"156 33 CURVE SMOOTH",
"171 33 OFFCURVE",
"206 75 OFFCURVE",
"206 204 CURVE SMOOTH",
"206 321 OFFCURVE",
"188 383 OFFCURVE",
"156 383 CURVE SMOOTH"
);
},
{
closed = 1;
nodes = (
"-9 -146 LINE",
"-9 -146 OFFCURVE",
"41 -141 OFFCURVE",
"44 -129 CURVE",
"44 403 LINE",
"41 415 OFFCURVE",
"-1 419 OFFCURVE",
"-1 419 CURVE",
"-1 451 LINE",
"-1 451 OFFCURVE",
"35 445 OFFCURVE",
"53 445 CURVE SMOOTH",
"71 445 OFFCURVE",
"103 454 OFFCURVE",
"103 454 CURVE",
"103 401 LINE",
"119 411 OFFCURVE",
"135 418 OFFCURVE",
"156 418 CURVE SMOOTH",
"229 418 OFFCURVE",
"265 348 OFFCURVE",
"265 204 CURVE SMOOTH",
"265 68 OFFCURVE",
"228 -2 OFFCURVE",
"156 -2 CURVE SMOOTH",
"135 -2 OFFCURVE",
"119 3 OFFCURVE",
"103 15 CURVE",
"103 -128 LINE",
"106 -141 OFFCURVE",
"157 -146 OFFCURVE",
"157 -146 CURVE",
"157 -174 LINE",
"157 -174 OFFCURVE",
"107 -165 OFFCURVE",
"75 -165 CURVE SMOOTH",
"41 -165 OFFCURVE",
"-9 -174 OFFCURVE",
"-9 -174 CURVE"
);
}
);
width = 274;
}
);
leftKerningGroup = p;
note = p;
rightKerningGroup = p;
unicode = 0070;
},
{
glyphname = q;
layers = (
{
hints = (
{
horizontal = 1;
place = "{-224, 21}";
target = up;
type = BottomGhost;
},
{
horizontal = 1;
place = "{-28, 27}";
type = Stem;
},
{
horizontal = 1;
place = "{33, 10}";
type = Stem;
},
{
horizontal = 1;
place = "{339, 27}";
type = Stem;
},
{
horizontal = 1;
place = "{413, 10}";
type = Stem;
},
{
place = "{5, 10}";
type = Stem;
},
{
place = "{74, 27}";
type = Stem;
},
{
place = "{167, 10}";
type = Stem;
},
{
place = "{236, 28}";
type = Stem;
},
{
place = "{164, 11}";
type = Stem;
},
{
horizontal = 1;
place = "{-242, 27}";
type = Stem;
},
{
place = "{114, 11}";
type = Stem;
},
{
place = "{289, 27}";
type = Stem;
},
{
horizontal = 1;
place = "{-195, 10}";
type = Stem;
},
{
horizontal = 1;
place = "{358, 21}";
type = Stem;
},
{
place = "{283, 25}";
type = Stem;
},
{
horizontal = 1;
place = "{401, 10}";
type = Stem;
}
);
layerId = "6055A463-9BF1-4E1B-8033-BCCEA0F196EB";
paths = (
{
closed = 1;
nodes = (
"101 297 OFFCURVE",
"117 339 OFFCURVE",
"145 339 CURVE SMOOTH",
"152 339 LINE",
"161 319 OFFCURVE",
"164 280 OFFCURVE",
"164 205 CURVE SMOOTH",
"164 101 OFFCURVE",
"150 43 OFFCURVE",
"125 43 CURVE SMOOTH",
"122 43 LINE",
"110 67 OFFCURVE",
"101 111 OFFCURVE",
"101 185 CURVE SMOOTH"
);
},
{
closed = 1;
nodes = (
"114 -236 LINE",
"137 -252 LINE",
"137 -252 OFFCURVE",
"194 -242 OFFCURVE",
"226 -242 CURVE SMOOTH",
"261 -242 OFFCURVE",
"316 -252 OFFCURVE",
"316 -252 CURVE",
"316 -208 LINE",
"300 -185 LINE",
"300 -185 OFFCURVE",
"279 -183 OFFCURVE",
"264 -181 CURVE",
"264 353 LINE",
"266 365 OFFCURVE",
"306 355 OFFCURVE",
"306 355 CURVE",
"310 405 LINE",
"293 428 LINE",
"293 428 OFFCURVE",
"247 423 OFFCURVE",
"227 423 CURVE SMOOTH",
"209 423 OFFCURVE",
"167 431 OFFCURVE",
"167 431 CURVE",
"167 402 LINE",
"155 407 OFFCURVE",
"140 411 OFFCURVE",
"125 411 CURVE SMOOTH",
"45 411 OFFCURVE",
"5 355 OFFCURVE",
"5 205 CURVE SMOOTH",
"5 96 OFFCURVE",
"28 28 OFFCURVE",
"73 2 CURVE",
"77 -2 LINE SMOOTH",
"95 -19 OFFCURVE",
"118 -28 OFFCURVE",
"145 -28 CURVE SMOOTH",
"153 -28 OFFCURVE",
"161 -27 OFFCURVE",
"167 -26 CURVE",
"167 -167 LINE SMOOTH",
"167 -182 OFFCURVE",
"114 -185 OFFCURVE",
"114 -185 CURVE"
);
},
{
closed = 1;
nodes = (
"92 366 OFFCURVE",
"74 322 OFFCURVE",
"74 205 CURVE SMOOTH",
"74 76 OFFCURVE",
"109 33 OFFCURVE",
"125 33 CURVE SMOOTH",
"157 33 OFFCURVE",
"175 94 OFFCURVE",
"175 205 CURVE SMOOTH",
"175 337 OFFCURVE",
"162 366 OFFCURVE",
"125 366 CURVE SMOOTH"
);
},
{
closed = 1;
nodes = (
"125 -195 LINE",
"125 -195 OFFCURVE",
"176 -191 OFFCURVE",
"177 -178 CURVE",
"177 15 LINE",
"162 4 OFFCURVE",
"145 -1 OFFCURVE",
"125 -1 CURVE SMOOTH",
"52 -1 OFFCURVE",
"15 68 OFFCURVE",
"15 205 CURVE SMOOTH",
"15 348 OFFCURVE",
"51 401 OFFCURVE",
"125 401 CURVE SMOOTH",
"145 401 OFFCURVE",
"162 395 OFFCURVE",
"177 384 CURVE",
"177 419 LINE",
"177 419 OFFCURVE",
"209 413 OFFCURVE",
"227 413 CURVE SMOOTH",
"245 413 OFFCURVE",
"283 417 OFFCURVE",
"283 417 CURVE",
"283 379 LINE",
"283 379 OFFCURVE",
"239 386 OFFCURVE",
"236 374 CURVE",
"236 -179 LINE",
"239 -191 OFFCURVE",
"289 -195 OFFCURVE",
"289 -195 CURVE",
"289 -224 LINE",
"289 -224 OFFCURVE",
"239 -215 OFFCURVE",
"207 -215 CURVE SMOOTH",
"175 -215 OFFCURVE",
"125 -224 OFFCURVE",
"125 -224 CURVE"
);
}
);
width = 280;
}
);
leftKerningGroup = q;
note = q;
rightKerningGroup = q;
unicode = 0071;
},
{
glyphname = r;
layers = (
{
hints = (
{
horizontal = 1;
place = "{-14, 20}";
type = Stem;
},
{
horizontal = 1;
place = "{304, 27}";
type = Stem;
},
{
horizontal = 1;
place = "{379, 10}";
type = Stem;
},
{
horizontal = 1;
place = "{450, 10}";
type = Stem;
},
{
place = "{31, 10}";
type = Stem;
},
{
place = "{101, 27}";
type = Stem;
},
{
place = "{174, 9}";
type = Stem;
},
{
horizontal = 1;
place = "{356, 27}";
type = Stem;
},
{
place = "{206, 27}";
type = Stem;
},
{
horizontal = 1;
place = "{417, 10}";
type = Stem;
},
{
place = "{4, 10}";
type = Stem;
},
{
horizontal = 1;
place = "{26, 10}";
type = Stem;
},
{
horizontal = 1;
place = "{-21, 27}";
type = Stem;
},
{
place = "{128, 27}";
type = Stem;
},
{
horizontal = 1;
place = "{-3, 21}";
target = up;
type = BottomGhost;
}
);
layerId = "6055A463-9BF1-4E1B-8033-BCCEA0F196EB";
paths = (
{
closed = 1;
nodes = (
"128 193 LINE SMOOTH",
"128 318 OFFCURVE",
"130 356 OFFCURVE",
"167 356 CURVE SMOOTH",
"173 356 LINE",
"174 321 LINE",
"197 304 LINE",
"241 304 LINE",
"241 304 OFFCURVE",
"233 347 OFFCURVE",
"233 371 CURVE SMOOTH",
"233 394 OFFCURVE",
"241 437 OFFCURVE",
"241 437 CURVE",
"224 460 LINE",
"174 460 LINE",
"174 425 LINE",
"167 427 OFFCURVE",
"161 427 OFFCURVE",
"147 427 CURVE SMOOTH",
"140 427 OFFCURVE",
"130 424 OFFCURVE",
"121 421 CURVE",
"111 440 LINE",
"111 440 OFFCURVE",
"71 430 OFFCURVE",
"59 430 CURVE SMOOTH",
"48 430 OFFCURVE",
"4 440 OFFCURVE",
"4 440 CURVE",
"4 379 LINE",
"31 362 LINE",
"31 42 LINE SMOOTH",
"31 37 OFFCURVE",
"4 36 OFFCURVE",
"4 36 CURVE",
"4 -14 LINE",
"27 -30 LINE",
"27 -30 OFFCURVE",
"62 -21 OFFCURVE",
"86 -21 CURVE SMOOTH",
"112 -21 OFFCURVE",
"155 -32 OFFCURVE",
"155 -32 CURVE",
"155 13 LINE",
"138 36 LINE",
"138 36 OFFCURVE",
"133 36 OFFCURVE",
"128 37 CURVE"
);
},
{
closed = 1;
nodes = (
"41 6 OFFCURVE",
"14 -1 OFFCURVE",
"14 -1 CURVE",
"14 26 LINE",
"14 26 OFFCURVE",
"39 27 OFFCURVE",
"41 42 CURVE",
"41 389 LINE",
"14 389 LINE",
"14 427 LINE",
"14 427 OFFCURVE",
"44 420 OFFCURVE",
"59 420 CURVE SMOOTH",
"73 420 OFFCURVE",
"101 427 OFFCURVE",
"101 427 CURVE",
"101 399 LINE",
"116 411 OFFCURVE",
"130 417 OFFCURVE",
"147 417 CURVE SMOOTH",
"166 417 OFFCURVE",
"175 413 OFFCURVE",
"183 408 CURVE",
"183 450 LINE",
"212 450 LINE",
"212 450 OFFCURVE",
"206 413 OFFCURVE",
"206 391 CURVE SMOOTH",
"206 368 OFFCURVE",
"212 331 OFFCURVE",
"212 331 CURVE",
"183 331 LINE",
"183 367 LINE",
"180 371 OFFCURVE",
"175 383 OFFCURVE",
"148 383 CURVE SMOOTH",
"104 383 OFFCURVE",
"101 343 OFFCURVE",
"101 213 CURVE SMOOTH",
"101 42 LINE",
"103 27 OFFCURVE",
"128 26 OFFCURVE",
"128 26 CURVE",
"128 -3 LINE",
"128 -3 OFFCURVE",
"93 6 OFFCURVE",
"67 6 CURVE SMOOTH"
);
}
);
width = 219;
}
);
leftKerningGroup = r;
note = r;
rightKerningGroup = r;
unicode = 0072;
},
{
glyphname = s;
layers = (
{
hints = (
{
horizontal = 1;
place = "{-14, 21}";
target = up;
type = BottomGhost;
},
{
horizontal = 1;
place = "{143, 10}";
type = Stem;
},
{
horizontal = 1;
place = "{277, 27}";
type = Stem;
},
{
horizontal = 1;
place = "{461, 10}";
type = Stem;
},
{
place = "{12, 9}";
type = Stem;
},
{
place = "{86, 24}";
type = Stem;
},
{
place = "{173, 9}";
type = Stem;
},
{
place = "{227, 27}";
type = Stem;
},
{
place = "{44, 27}";
type = Stem;
},
{
horizontal = 1;
place = "{-41, 27}";
type = Stem;
},
{
horizontal = 1;
place = "{395, 27}";
type = Stem;
},
{
place = "{205, 27}";
type = Stem;
},
{
horizontal = 1;
place = "{447, 10}";
type = Stem;
},
{
place = "{16, 9}";
type = Stem;
},
{
horizontal = 1;
place = "{11, 10}";
type = Stem;
},
{
place = "{159, 10}";
type = Stem;
}
);
layerId = "6055A463-9BF1-4E1B-8033-BCCEA0F196EB";
paths = (
{
closed = 1;
nodes = (
"71 130 LINE",
"55 153 LINE",
"4 153 LINE",
"4 153 OFFCURVE",
"12 97 OFFCURVE",
"12 65 CURVE SMOOTH",
"12 32 OFFCURVE",
"4 -24 OFFCURVE",
"4 -24 CURVE",
"28 -41 LINE",
"71 -41 LINE",
"71 -23 LINE",
"88 -34 OFFCURVE",
"114 -41 OFFCURVE",
"138 -41 CURVE SMOOTH",
"212 -41 OFFCURVE",
"254 6 OFFCURVE",
"254 86 CURVE SMOOTH",
"254 135 OFFCURVE",
"232 169 OFFCURVE",
"205 198 CURVE",
"190 219 OFFCURVE",
"169 237 OFFCURVE",
"151 254 CURVE",
"143 260 LINE",
"123 280 LINE",
"118 288 OFFCURVE",
"115 297 OFFCURVE",
"113 306 CURVE SMOOTH",
"110 317 OFFCURVE",
"110 328 OFFCURVE",
"110 337 CURVE SMOOTH",
"110 356 OFFCURVE",
"115 370 OFFCURVE",
"123 381 CURVE",
"122 381 LINE",
"128 390 OFFCURVE",
"140 395 OFFCURVE",
"155 395 CURVE SMOOTH",
"158 395 OFFCURVE",
"161 394 OFFCURVE",
"164 393 CURVE",
"169 383 OFFCURVE",
"173 368 OFFCURVE",
"173 350 CURVE SMOOTH",
"173 294 LINE",
"196 277 LINE",
"240 277 LINE",
"240 277 OFFCURVE",
"232 333 OFFCURVE",
"232 362 CURVE SMOOTH",
"232 387 OFFCURVE",
"236 419 OFFCURVE",
"237 429 CURVE SMOOTH",
"239 448 LINE",
"222 471 LINE",
"173 471 LINE",
"173 445 LINE",
"161 452 OFFCURVE",
"150 457 OFFCURVE",
"134 457 CURVE SMOOTH",
"59 457 OFFCURVE",
"16 409 OFFCURVE",
"16 324 CURVE SMOOTH",
"16 266 OFFCURVE",
"61 224 OFFCURVE",
"98 186 CURVE SMOOTH",
"128 159 OFFCURVE",
"155 132 OFFCURVE",
"159 104 CURVE",
"161 67 OFFCURVE",
"150 18 OFFCURVE",
"119 21 CURVE SMOOTH",
"102 22 OFFCURVE",
"84 27 OFFCURVE",
"71 36 CURVE"
);
},
{
closed = 1;
nodes = (
"88 -14 OFFCURVE",
"62 -5 OFFCURVE",
"44 12 CURVE",
"44 -14 LINE",
"16 -14 LINE",
"16 -14 OFFCURVE",
"21 34 OFFCURVE",
"21 65 CURVE SMOOTH",
"21 95 OFFCURVE",
"16 143 OFFCURVE",
"16 143 CURVE",
"44 143 LINE",
"44 52 LINE",
"53 24 OFFCURVE",
"89 13 OFFCURVE",
"119 11 CURVE SMOOTH",
"158 8 OFFCURVE",
"173 61 OFFCURVE",
"169 105 CURVE SMOOTH",
"165 136 OFFCURVE",
"137 164 OFFCURVE",
"106 193 CURVE SMOOTH",
"69 229 OFFCURVE",
"25 270 OFFCURVE",
"25 324 CURVE SMOOTH",
"25 403 OFFCURVE",
"65 447 OFFCURVE",
"134 447 CURVE SMOOTH",
"154 447 OFFCURVE",
"170 439 OFFCURVE",
"183 426 CURVE",
"183 461 LINE",
"212 461 LINE",
"210 453 LINE SMOOTH",
"210 452 OFFCURVE",
"205 413 OFFCURVE",
"205 382 CURVE SMOOTH",
"205 352 OFFCURVE",
"212 304 OFFCURVE",
"212 304 CURVE",
"183 304 LINE",
"182 350 LINE SMOOTH",
"182 398 OFFCURVE",
"167 422 OFFCURVE",
"134 422 CURVE SMOOTH",
"119 422 OFFCURVE",
"106 416 OFFCURVE",
"97 405 CURVE SMOOTH",
"83 388 OFFCURVE",
"79 360 OFFCURVE",
"86 325 CURVE SMOOTH",
"91 295 OFFCURVE",
"118 272 OFFCURVE",
"145 247 CURVE SMOOTH",
"183 212 OFFCURVE",
"227 173 OFFCURVE",
"227 106 CURVE SMOOTH",
"227 30 OFFCURVE",
"187 -14 OFFCURVE",
"119 -14 CURVE SMOOTH"
);
}
);
width = 227;
}
);
leftKerningGroup = s;
note = s;
rightKerningGroup = s;
unicode = 0073;
},
{
glyphname = t;
layers = (
{
hints = (
{
horizontal = 1;
place = "{-15, 10}";
type = Stem;
},
{
horizontal = 1;
place = "{117, 10}";
type = Stem;
},
{
horizontal = 1;
place = "{416, 10}";
type = Stem;
},
{
horizontal = 1;
place = "{606, 10}";
type = Stem;
},
{
place = "{42, 10}";
type = Stem;
},
{
place = "{111, 27}";
type = Stem;
},
{
place = "{188, 10}";
type = Stem;
},
{
horizontal = 1;
place = "{362, 27}";
type = Stem;
},
{
place = "{167, 27}";
type = Stem;
},
{
place = "{15, 10}";
type = Stem;
},
{
horizontal = 1;
place = "{575, 10}";
type = Stem;
},
{
place = "{5, 10}";
type = Stem;
},
{
horizontal = 1;
place = "{-66, 27}";
type = Stem;
},
{
place = "{221, 27}";
type = Stem;
}
);
layerId = "6055A463-9BF1-4E1B-8033-BCCEA0F196EB";
paths = (
{
closed = 1;
nodes = (
"144 -5 LINE",
"139 13 OFFCURVE",
"138 39 OFFCURVE",
"138 57 CURVE SMOOTH",
"138 362 LINE",
"194 362 LINE",
"194 403 LINE",
"177 426 LINE",
"138 426 LINE",
"138 607 LINE",
"121 632 LINE",
"102 624 LINE",
"102 624 OFFCURVE",
"85 616 OFFCURVE",
"68 616 CURVE SMOOTH",
"55 616 OFFCURVE",
"15 627 OFFCURVE",
"15 627 CURVE",
"15 575 LINE",
"42 558 LINE",
"42 426 LINE",
"5 426 LINE",
"5 379 LINE",
"28 362 LINE",
"42 362 LINE",
"42 77 LINE SMOOTH",
"43 36 OFFCURVE",
"49 -15 OFFCURVE",
"91 -37 CURVE",
"95 -41 LINE SMOOTH",
"110 -56 OFFCURVE",
"132 -66 OFFCURVE",
"165 -66 CURVE SMOOTH",
"179 -66 OFFCURVE",
"193 -64 OFFCURVE",
"205 -60 CURVE",
"211 -66 LINE",
"254 -66 LINE",
"254 -66 OFFCURVE",
"248 -10 OFFCURVE",
"248 19 CURVE SMOOTH",
"248 46 OFFCURVE",
"254 104 OFFCURVE",
"254 104 CURVE",
"237 127 LINE",
"188 127 LINE",
"188 26 LINE SMOOTH",
"188 5 OFFCURVE",
"167 -5 OFFCURVE",
"146 -5 CURVE SMOOTH"
);
},
{
closed = 1;
nodes = (
"198 -39 LINE",
"198 -24 LINE",
"185 -34 OFFCURVE",
"166 -39 OFFCURVE",
"145 -39 CURVE SMOOTH",
"63 -39 OFFCURVE",
"53 27 OFFCURVE",
"52 77 CURVE SMOOTH",
"52 389 LINE",
"15 389 LINE",
"15 416 LINE",
"52 416 LINE",
"52 570 LINE",
"49 585 OFFCURVE",
"25 585 OFFCURVE",
"25 585 CURVE",
"25 613 LINE",
"25 613 OFFCURVE",
"50 606 OFFCURVE",
"68 606 CURVE SMOOTH",
"86 606 OFFCURVE",
"101 613 OFFCURVE",
"101 613 CURVE",
"111 617 LINE",
"111 416 LINE",
"167 416 LINE",
"167 389 LINE",
"111 389 LINE",
"111 77 LINE SMOOTH",
"111 43 OFFCURVE",
"115 -15 OFFCURVE",
"146 -15 CURVE SMOOTH",
"171 -15 OFFCURVE",
"198 -2 OFFCURVE",
"198 26 CURVE SMOOTH",
"198 117 LINE",
"226 117 LINE",
"226 117 OFFCURVE",
"221 69 OFFCURVE",
"221 39 CURVE SMOOTH",
"221 8 OFFCURVE",
"226 -39 OFFCURVE",
"226 -39 CURVE"
);
}
);
width = 227;
}
);
leftKerningGroup = t;
note = t;
rightKerningGroup = t;
unicode = 0074;
},
{
glyphname = u;
layers = (
{
hints = (
{
horizontal = 1;
place = "{-8, 10}";
type = Stem;
},
{
horizontal = 1;
place = "{33, 10}";
type = Stem;
},
{
horizontal = 1;
place = "{380, 10}";
type = Stem;
},
{
horizontal = 1;
place = "{449, 10}";
type = Stem;
},
{
place = "{-5, 11}";
type = Stem;
},
{
place = "{65, 27}";
type = Stem;
},
{
place = "{156, 11}";
type = Stem;
},
{
place = "{226, 27}";
type = Stem;
},
{
horizontal = 1;
place = "{365, 24}";
type = Stem;
},
{
place = "{253, 27}";
type = Stem;
},
{
horizontal = 1;
place = "{410, 10}";
type = Stem;
},
{
place = "{129, 11}";
type = Stem;
},
{
horizontal = 1;
place = "{404, 24}";
type = Stem;
},
{
place = "{92, 25}";
type = Stem;
},
{
place = "{-32, 11}";
type = Stem;
},
{
horizontal = 1;
place = "{418, 10}";
type = Stem;
},
{
horizontal = 1;
place = "{-28, 27}";
type = Stem;
},
{
horizontal = 1;
place = "{-56, 27}";
type = Stem;
}
);
layerId = "6055A463-9BF1-4E1B-8033-BCCEA0F196EB";
paths = (
{
closed = 1;
nodes = (
"253 353 LINE",
"255 368 OFFCURVE",
"276 365 OFFCURVE",
"276 365 CURVE",
"280 411 LINE",
"263 436 LINE",
"263 436 OFFCURVE",
"222 420 OFFCURVE",
"201 420 CURVE SMOOTH",
"177 420 OFFCURVE",
"129 432 OFFCURVE",
"129 432 CURVE",
"129 380 LINE",
"139 380 OFFCURVE",
"156 362 OFFCURVE",
"156 362 CURVE",
"156 203 LINE SMOOTH",
"156 58 OFFCURVE",
"128 43 OFFCURVE",
"115 43 CURVE SMOOTH",
"111 43 OFFCURVE",
"109 44 OFFCURVE",
"106 45 CURVE",
"96 70 OFFCURVE",
"92 114 OFFCURVE",
"92 183 CURVE SMOOTH",
"92 392 LINE",
"95 406 OFFCURVE",
"115 404 OFFCURVE",
"115 404 CURVE",
"119 449 LINE",
"102 474 LINE",
"102 474 OFFCURVE",
"62 459 OFFCURVE",
"39 459 CURVE SMOOTH",
"16 459 OFFCURVE",
"-32 471 OFFCURVE",
"-32 471 CURVE",
"-32 418 LINE",
"-32 418 OFFCURVE",
"-28 417 OFFCURVE",
"-24 416 CURVE",
"-5 401 LINE",
"-5 203 LINE SMOOTH",
"-5 104 OFFCURVE",
"8 30 OFFCURVE",
"57 2 CURVE SMOOTH",
"62 -1 LINE",
"79 -18 OFFCURVE",
"102 -28 OFFCURVE",
"134 -28 CURVE SMOOTH",
"142 -28 OFFCURVE",
"150 -27 OFFCURVE",
"156 -26 CURVE",
"156 -55 LINE",
"156 -55 OFFCURVE",
"159 -53 OFFCURVE",
"180 -70 CURVE",
"180 -70 OFFCURVE",
"216 -56 OFFCURVE",
"230 -56 CURVE SMOOTH",
"246 -56 OFFCURVE",
"280 -69 OFFCURVE",
"280 -69 CURVE",
"280 -21 LINE",
"263 2 LINE",
"253 2 LINE"
);
},
{
closed = 1;
nodes = (
"192 -29 OFFCURVE",
"167 -39 OFFCURVE",
"167 -39 CURVE",
"167 15 LINE",
"152 4 OFFCURVE",
"134 -1 OFFCURVE",
"115 -1 CURVE SMOOTH",
"25 -1 OFFCURVE",
"6 80 OFFCURVE",
"6 203 CURVE SMOOTH",
"6 413 LINE",
"2 427 OFFCURVE",
"-21 428 OFFCURVE",
"-21 428 CURVE",
"-21 458 LINE",
"-21 458 OFFCURVE",
"14 449 OFFCURVE",
"39 449 CURVE SMOOTH",
"65 449 OFFCURVE",
"92 459 OFFCURVE",
"92 459 CURVE",
"92 428 LINE",
"92 428 OFFCURVE",
"68 427 OFFCURVE",
"65 413 CURVE",
"65 203 LINE SMOOTH",
"65 82 OFFCURVE",
"80 33 OFFCURVE",
"115 33 CURVE SMOOTH",
"131 33 OFFCURVE",
"167 49 OFFCURVE",
"167 203 CURVE SMOOTH",
"167 374 LINE",
"164 389 OFFCURVE",
"140 390 OFFCURVE",
"140 390 CURVE",
"140 419 LINE",
"140 419 OFFCURVE",
"174 410 OFFCURVE",
"201 410 CURVE SMOOTH",
"227 410 OFFCURVE",
"253 420 OFFCURVE",
"253 420 CURVE",
"253 389 LINE",
"253 389 OFFCURVE",
"228 389 OFFCURVE",
"226 374 CURVE",
"226 374 OFFCURVE",
"226 104 OFFCURVE",
"226 12 CURVE SMOOTH",
"226 -8 OFFCURVE",
"253 -8 OFFCURVE",
"253 -8 CURVE",
"253 -39 LINE",
"253 -39 OFFCURVE",
"228 -29 OFFCURVE",
"210 -29 CURVE SMOOTH"
);
}
);
width = 256;
}
);
leftKerningGroup = u;
note = u;
rightKerningGroup = u;
unicode = 0075;
},
{
glyphname = v;
layers = (
{
hints = (
{
horizontal = 1;
place = "{1, 21}";
target = up;
type = BottomGhost;
},
{
horizontal = 1;
place = "{407, 10}";
type = Stem;
},
{
horizontal = 1;
place = "{450, 10}";
type = Stem;
},
{
place = "{-8, 10}";
type = Stem;
},
{
place = "{63, 9}";
type = Stem;
},
{
place = "{148, 10}";
type = Stem;
},
{
place = "{194, 27}";
type = Stem;
},
{
place = "{270, 25}";
type = Stem;
},
{
horizontal = 1;
place = "{-14, 21}";
target = up;
type = BottomGhost;
},
{
horizontal = 1;
place = "{30, 10}";
type = Stem;
},
{
horizontal = 1;
place = "{-18, 27}";
type = Stem;
},
{
horizontal = 1;
place = "{376, 10}";
type = Stem;
},
{
horizontal = 1;
place = "{405, 24}";
type = Stem;
},
{
place = "{116, 25}";
type = Stem;
},
{
horizontal = 1;
place = "{419, 10}";
type = Stem;
}
);
layerId = "6055A463-9BF1-4E1B-8033-BCCEA0F196EB";
paths = (
{
closed = 1;
nodes = (
"86 35 OFFCURVE",
"63 40 OFFCURVE",
"63 40 CURVE",
"64 -14 LINE",
"86 -30 LINE",
"86 -30 OFFCURVE",
"123 -18 OFFCURVE",
"149 -18 CURVE SMOOTH",
"176 -18 OFFCURVE",
"221 -28 OFFCURVE",
"221 -28 CURVE",
"221 17 LINE",
"204 40 LINE",
"197 40 LINE",
"215 142 OFFCURVE",
"234 246 OFFCURVE",
"253 348 CURVE",
"260 359 OFFCURVE",
"294 363 OFFCURVE",
"294 363 CURVE",
"297 407 LINE",
"280 432 LINE",
"280 432 OFFCURVE",
"240 417 OFFCURVE",
"219 417 CURVE SMOOTH",
"194 417 OFFCURVE",
"148 429 OFFCURVE",
"148 429 CURVE",
"148 376 LINE",
"171 359 LINE",
"171 359 OFFCURVE",
"176 359 OFFCURVE",
"185 358 CURVE",
"165 254 LINE SMOOTH",
"161 237 OFFCURVE",
"158 220 OFFCURVE",
"154 203 CURVE",
"143 266 OFFCURVE",
"132 319 OFFCURVE",
"119 393 CURVE",
"122 408 OFFCURVE",
"139 405 OFFCURVE",
"139 405 CURVE",
"143 450 LINE",
"126 475 LINE",
"126 475 OFFCURVE",
"86 460 OFFCURVE",
"64 460 CURVE SMOOTH",
"40 460 OFFCURVE",
"-8 472 OFFCURVE",
"-8 472 CURVE",
"-8 419 LINE",
"-1 419 LINE",
"26 400 LINE",
"46 284 OFFCURVE",
"69 164 OFFCURVE",
"90 49 CURVE"
);
},
{
closed = 1;
nodes = (
"73 30 LINE",
"73 30 OFFCURVE",
"96 31 OFFCURVE",
"100 45 CURVE",
"33 413 LINE SMOOTH",
"31 429 OFFCURVE",
"2 429 OFFCURVE",
"2 429 CURVE",
"2 459 LINE",
"2 459 OFFCURVE",
"37 450 OFFCURVE",
"64 450 CURVE SMOOTH",
"89 450 OFFCURVE",
"116 460 OFFCURVE",
"116 460 CURVE",
"116 429 LINE",
"116 429 OFFCURVE",
"95 429 OFFCURVE",
"92 414 CURVE",
"149 106 LINE",
"197 371 LINE",
"193 386 OFFCURVE",
"158 386 OFFCURVE",
"158 386 CURVE",
"158 416 LINE",
"158 416 OFFCURVE",
"193 407 OFFCURVE",
"219 407 CURVE SMOOTH",
"243 407 OFFCURVE",
"270 417 OFFCURVE",
"270 417 CURVE",
"270 387 LINE",
"270 387 OFFCURVE",
"233 380 OFFCURVE",
"226 369 CURVE",
"167 45 LINE",
"171 31 OFFCURVE",
"194 30 OFFCURVE",
"194 30 CURVE",
"194 1 LINE",
"194 1 OFFCURVE",
"158 9 OFFCURVE",
"130 9 CURVE SMOOTH",
"101 9 OFFCURVE",
"73 0 OFFCURVE",
"73 0 CURVE"
);
}
);
width = 260;
}
);
note = v;
unicode = 0076;
},
{
glyphname = w;
layers = (
{
hints = (
{
horizontal = 1;
place = "{-3, 21}";
target = up;
type = BottomGhost;
},
{
horizontal = 1;
place = "{386, 10}";
type = Stem;
},
{
horizontal = 1;
place = "{450, 10}";
type = Stem;
},
{
place = "{5, 10}";
type = Stem;
},
{
place = "{76, 9}";
type = Stem;
},
{
place = "{153, 10}";
type = Stem;
},
{
place = "{216, 10}";
type = Stem;
},
{
place = "{297, 10}";
type = Stem;
},
{
place = "{348, 27}";
type = Stem;
},
{
place = "{420, 25}";
type = Stem;
},
{
horizontal = 1;
place = "{-9, 8}";
type = Stem;
},
{
place = "{208, 27}";
type = Stem;
},
{
horizontal = 1;
place = "{-21, 27}";
type = Stem;
},
{
horizontal = 1;
place = "{26, 14}";
type = Stem;
},
{
horizontal = 1;
place = "{419, 10}";
type = Stem;
},
{
place = "{129, 25}";
type = Stem;
},
{
horizontal = 1;
place = "{355, 10}";
type = Stem;
},
{
horizontal = 1;
place = "{405, 24}";
type = Stem;
},
{
place = "{190, 7}";
type = Stem;
},
{
place = "{276, 24}";
type = Stem;
},
{
horizontal = 1;
place = "{341, 24}";
type = Stem;
},
{
horizontal = 1;
place = "{378, 10}";
type = Stem;
},
{
horizontal = 1;
place = "{409, 10}";
type = Stem;
},
{
horizontal = 1;
place = "{-57, 27}";
type = Stem;
},
{
place = "{244, 10}";
type = Stem;
},
{
horizontal = 1;
place = "{-9, 21}";
target = up;
type = BottomGhost;
}
);
layerId = "6055A463-9BF1-4E1B-8033-BCCEA0F196EB";
paths = (
{
closed = 1;
nodes = (
"210 36 LINE",
"224 118 LINE",
"244 8 LINE",
"242 2 OFFCURVE",
"239 0 OFFCURVE",
"235 -1 CURVE",
"235 13 LINE",
"218 30 LINE"
);
},
{
closed = 1;
nodes = (
"320 361 LINE",
"320 361 OFFCURVE",
"326 360 OFFCURVE",
"335 359 CURVE",
"306 181 LINE",
"280 329 LINE",
"283 344 OFFCURVE",
"299 341 OFFCURVE",
"299 341 CURVE",
"302 378 LINE"
);
},
{
closed = 1;
nodes = (
"404 349 LINE",
"411 359 OFFCURVE",
"444 365 OFFCURVE",
"444 365 CURVE",
"447 410 LINE",
"430 435 LINE",
"430 435 OFFCURVE",
"389 419 OFFCURVE",
"368 419 CURVE SMOOTH",
"344 419 OFFCURVE",
"297 431 OFFCURVE",
"297 431 CURVE",
"297 392 LINE",
"286 411 LINE",
"286 411 OFFCURVE",
"246 396 OFFCURVE",
"224 396 CURVE SMOOTH",
"200 396 OFFCURVE",
"153 408 OFFCURVE",
"153 408 CURVE",
"153 355 LINE",
"176 338 LINE",
"176 338 OFFCURVE",
"180 338 OFFCURVE",
"186 337 CURVE",
"190 316 LINE",
"183 277 OFFCURVE",
"175 237 OFFCURVE",
"167 198 CURVE",
"156 263 OFFCURVE",
"145 317 OFFCURVE",
"132 393 CURVE",
"136 408 OFFCURVE",
"152 405 OFFCURVE",
"152 405 CURVE",
"156 450 LINE",
"139 475 LINE",
"139 475 OFFCURVE",
"99 460 OFFCURVE",
"76 460 CURVE SMOOTH",
"52 460 OFFCURVE",
"5 472 OFFCURVE",
"5 472 CURVE",
"6 419 LINE",
"6 419 OFFCURVE",
"8 419 OFFCURVE",
"12 418 CURVE",
"12 418 OFFCURVE",
"33 401 OFFCURVE",
"39 400 CURVE",
"102 49 LINE",
"99 35 OFFCURVE",
"77 40 OFFCURVE",
"77 40 CURVE",
"76 -19 LINE",
"99 -34 LINE",
"99 -34 OFFCURVE",
"135 -21 OFFCURVE",
"162 -21 CURVE SMOOTH",
"179 -21 OFFCURVE",
"200 -24 OFFCURVE",
"216 -27 CURVE",
"216 -53 LINE",
"239 -69 LINE",
"239 -69 OFFCURVE",
"278 -57 OFFCURVE",
"302 -57 CURVE SMOOTH",
"329 -57 OFFCURVE",
"375 -67 OFFCURVE",
"375 -67 CURVE",
"375 -22 LINE",
"358 1 LINE",
"358 1 OFFCURVE",
"354 1 OFFCURVE",
"349 2 CURVE"
);
},
{
closed = 1;
nodes = (
"226 -9 LINE",
"226 -9 OFFCURVE",
"250 -8 OFFCURVE",
"254 6 CURVE",
"215 237 LINE",
"181 41 LINE",
"184 27 OFFCURVE",
"208 26 OFFCURVE",
"208 26 CURVE",
"208 -3 LINE",
"208 -3 OFFCURVE",
"171 6 OFFCURVE",
"142 6 CURVE SMOOTH",
"114 6 OFFCURVE",
"86 -4 OFFCURVE",
"86 -4 CURVE",
"86 26 LINE",
"86 26 OFFCURVE",
"110 27 OFFCURVE",
"113 41 CURVE",
"47 413 LINE SMOOTH",
"44 429 OFFCURVE",
"16 429 OFFCURVE",
"16 429 CURVE",
"15 459 LINE",
"15 459 OFFCURVE",
"50 450 OFFCURVE",
"76 450 CURVE SMOOTH",
"102 450 OFFCURVE",
"129 460 OFFCURVE",
"129 460 CURVE",
"129 429 LINE",
"129 429 OFFCURVE",
"109 429 OFFCURVE",
"105 414 CURVE",
"161 103 LINE",
"200 316 LINE",
"194 351 LINE SMOOTH",
"191 365 OFFCURVE",
"163 365 OFFCURVE",
"163 365 CURVE",
"163 395 LINE",
"163 395 OFFCURVE",
"198 386 OFFCURVE",
"224 386 CURVE SMOOTH",
"249 386 OFFCURVE",
"276 396 OFFCURVE",
"276 396 CURVE",
"276 365 LINE",
"276 365 OFFCURVE",
"256 365 OFFCURVE",
"253 350 CURVE",
"301 83 LINE",
"347 373 LINE",
"343 387 OFFCURVE",
"307 388 OFFCURVE",
"307 388 CURVE",
"307 418 LINE",
"307 418 OFFCURVE",
"342 409 OFFCURVE",
"368 409 CURVE SMOOTH",
"394 409 OFFCURVE",
"420 419 OFFCURVE",
"420 419 CURVE",
"420 389 LINE",
"420 389 OFFCURVE",
"384 382 OFFCURVE",
"377 372 CURVE",
"320 7 LINE",
"323 -8 OFFCURVE",
"348 -9 OFFCURVE",
"348 -9 CURVE",
"348 -38 LINE",
"348 -38 OFFCURVE",
"311 -30 OFFCURVE",
"282 -30 CURVE SMOOTH",
"255 -30 OFFCURVE",
"226 -39 OFFCURVE",
"226 -39 CURVE"
);
}
);
width = 414;
}
);
note = w;
unicode = 0077;
},
{
glyphname = x;
layers = (
{
hints = (
{
horizontal = 1;
place = "{-9, 10}";
type = Stem;
},
{
horizontal = 1;
place = "{360, 28}";
type = Stem;
},
{
horizontal = 1;
place = "{449, 10}";
type = Stem;
},
{
place = "{-19, 10}";
type = Stem;
},
{
place = "{147, 11}";
type = Stem;
},
{
place = "{271, 27}";
type = Stem;
},
{
place = "{121, 10}";
type = Stem;
},
{
horizontal = 1;
place = "{404, 24}";
type = Stem;
},
{
horizontal = 1;
place = "{-21, 27}";
type = Stem;
},
{
horizontal = 1;
place = "{26, 10}";
type = Stem;
},
{
horizontal = 1;
place = "{-56, 27}";
type = Stem;
},
{
horizontal = 1;
place = "{409, 10}";
type = Stem;
},
{
place = "{244, 25}";
type = Stem;
},
{
horizontal = 1;
place = "{26, 16}";
type = Stem;
},
{
horizontal = 1;
place = "{418, 10}";
type = Stem;
},
{
horizontal = 1;
place = "{-3, 21}";
target = up;
type = BottomGhost;
}
);
layerId = "6055A463-9BF1-4E1B-8033-BCCEA0F196EB";
paths = (
{
closed = 1;
nodes = (
"144 361 LINE",
"144 361 OFFCURVE",
"147 360 OFFCURVE",
"153 360 CURVE",
"148 347 OFFCURVE",
"142 336 OFFCURVE",
"137 324 CURVE",
"110 396 LINE",
"112 402 OFFCURVE",
"117 404 OFFCURVE",
"121 404 CURVE",
"121 378 LINE"
);
},
{
closed = 1;
nodes = (
"-19 -18 LINE",
"4 -34 LINE",
"4 -34 OFFCURVE",
"39 -21 OFFCURVE",
"63 -21 CURVE SMOOTH",
"88 -21 OFFCURVE",
"131 -32 OFFCURVE",
"131 -32 CURVE",
"131 13 LINE",
"114 36 LINE",
"114 36 OFFCURVE",
"107 36 OFFCURVE",
"99 37 CURVE",
"127 111 LINE",
"167 8 LINE",
"164 -4 OFFCURVE",
"146 -1 OFFCURVE",
"146 -1 CURVE",
"148 -54 LINE",
"171 -69 LINE",
"171 -69 OFFCURVE",
"206 -56 OFFCURVE",
"230 -56 CURVE SMOOTH",
"255 -56 OFFCURVE",
"298 -67 OFFCURVE",
"298 -67 CURVE",
"298 -22 LINE",
"281 1 LINE",
"281 1 OFFCURVE",
"270 1 OFFCURVE",
"260 4 CURVE",
"175 225 LINE",
"226 347 LINE SMOOTH",
"231 359 OFFCURVE",
"268 365 OFFCURVE",
"268 365 CURVE",
"271 409 LINE",
"254 434 LINE",
"254 434 OFFCURVE",
"214 419 OFFCURVE",
"192 419 CURVE SMOOTH",
"174 419 OFFCURVE",
"143 425 OFFCURVE",
"129 429 CURVE",
"131 449 LINE",
"114 474 LINE",
"114 474 OFFCURVE",
"74 459 OFFCURVE",
"52 459 CURVE SMOOTH",
"28 459 OFFCURVE",
"-19 471 OFFCURVE",
"-19 471 CURVE",
"-19 418 LINE",
"-13 418 LINE",
"17 400 LINE",
"39 339 OFFCURVE",
"67 268 OFFCURVE",
"90 208 CURVE",
"79 182 OFFCURVE",
"68 154 OFFCURVE",
"58 128 CURVE SMOOTH",
"47 101 OFFCURVE",
"39 79 OFFCURVE",
"28 52 CURVE SMOOTH",
"24 43 OFFCURVE",
"-19 42 OFFCURVE",
"-19 42 CURVE"
);
},
{
closed = 1;
nodes = (
"-9 26 LINE",
"-9 26 OFFCURVE",
"30 33 OFFCURVE",
"35 44 CURVE SMOOTH",
"101 208 LINE",
"24 411 LINE SMOOTH",
"19 427 OFFCURVE",
"-9 428 OFFCURVE",
"-9 428 CURVE",
"-9 458 LINE",
"-9 458 OFFCURVE",
"26 449 OFFCURVE",
"52 449 CURVE SMOOTH",
"77 449 OFFCURVE",
"104 459 OFFCURVE",
"104 459 CURVE",
"104 428 LINE",
"104 428 OFFCURVE",
"86 427 OFFCURVE",
"82 416 CURVE",
"132 284 LINE",
"170 374 LINE",
"165 388 OFFCURVE",
"131 388 OFFCURVE",
"131 388 CURVE",
"131 418 LINE",
"131 418 OFFCURVE",
"166 409 OFFCURVE",
"192 409 CURVE SMOOTH",
"217 409 OFFCURVE",
"244 419 OFFCURVE",
"244 419 CURVE",
"244 389 LINE",
"244 389 OFFCURVE",
"205 382 OFFCURVE",
"200 370 CURVE SMOOTH",
"147 244 LINE",
"238 9 LINE",
"243 -8 OFFCURVE",
"271 -9 OFFCURVE",
"271 -9 CURVE",
"271 -38 LINE",
"271 -38 OFFCURVE",
"236 -29 OFFCURVE",
"210 -29 CURVE SMOOTH",
"185 -29 OFFCURVE",
"158 -39 OFFCURVE",
"158 -39 CURVE",
"158 -9 LINE",
"158 -9 OFFCURVE",
"176 -8 OFFCURVE",
"180 4 CURVE",
"116 169 LINE",
"65 41 LINE",
"70 27 OFFCURVE",
"104 26 OFFCURVE",
"104 26 CURVE",
"104 -3 LINE",
"104 -3 OFFCURVE",
"69 6 OFFCURVE",
"43 6 CURVE SMOOTH",
"18 6 OFFCURVE",
"-9 -4 OFFCURVE",
"-9 -4 CURVE"
);
}
);
width = 242;
}
);
leftKerningGroup = x;
note = x;
rightKerningGroup = x;
unicode = 0078;
},
{
glyphname = y;
layers = (
{
hints = (
{
horizontal = 1;
place = "{-3, 21}";
target = up;
type = BottomGhost;
},
{
horizontal = 1;
place = "{364, 28}";
type = Stem;
},
{
horizontal = 1;
place = "{449, 10}";
type = Stem;
},
{
place = "{5, 11}";
type = Stem;
},
{
place = "{112, 10}";
type = Stem;
},
{
place = "{180, 27}";
type = Stem;
},
{
place = "{287, 27}";
type = Stem;
},
{
horizontal = 1;
place = "{413, 10}";
type = Stem;
},
{
horizontal = 1;
place = "{25, 11}";
type = Stem;
},
{
place = "{209, 27}";
type = Stem;
},
{
horizontal = 1;
place = "{-21, 27}";
type = Stem;
},
{
place = "{85, 10}";
type = Stem;
},
{
horizontal = 1;
place = "{25, 14}";
type = Stem;
},
{
horizontal = 1;
place = "{418, 10}";
type = Stem;
},
{
place = "{129, 25}";
type = Stem;
},
{
horizontal = 1;
place = "{404, 24}";
type = Stem;
},
{
horizontal = 1;
place = "{382, 10}";
type = Stem;
},
{
place = "{165, 9}";
type = Stem;
}
);
layerId = "6055A463-9BF1-4E1B-8033-BCCEA0F196EB";
paths = (
{
closed = 1;
nodes = (
"260 413 OFFCURVE",
"287 423 OFFCURVE",
"287 423 CURVE",
"287 392 LINE",
"287 392 OFFCURVE",
"250 386 OFFCURVE",
"243 374 CURVE",
"180 199 LINE",
"180 42 LINE",
"184 27 OFFCURVE",
"209 25 OFFCURVE",
"209 25 CURVE",
"209 19 LINE",
"209 -3 LINE",
"209 -3 OFFCURVE",
"174 6 OFFCURVE",
"147 6 CURVE SMOOTH",
"121 6 OFFCURVE",
"95 -4 OFFCURVE",
"95 -4 CURVE",
"95 25 LINE",
"95 25 OFFCURVE",
"118 27 OFFCURVE",
"122 42 CURVE",
"122 199 LINE",
"46 411 LINE",
"44 428 OFFCURVE",
"16 428 OFFCURVE",
"16 428 CURVE",
"16 458 LINE",
"16 458 OFFCURVE",
"50 449 OFFCURVE",
"76 449 CURVE SMOOTH",
"102 449 OFFCURVE",
"129 459 OFFCURVE",
"129 459 CURVE",
"129 428 LINE",
"129 428 OFFCURVE",
"108 427 OFFCURVE",
"106 413 CURVE",
"164 252 LINE",
"214 376 LINE",
"210 392 OFFCURVE",
"174 392 OFFCURVE",
"174 392 CURVE",
"174 422 LINE",
"174 422 OFFCURVE",
"210 413 OFFCURVE",
"236 413 CURVE SMOOTH"
);
},
{
closed = 1;
nodes = (
"211 423 OFFCURVE",
"165 434 OFFCURVE",
"165 434 CURVE",
"165 382 LINE",
"188 365 LINE",
"188 365 OFFCURVE",
"192 365 OFFCURVE",
"197 364 CURVE",
"189 343 OFFCURVE",
"179 324 OFFCURVE",
"171 302 CURVE SMOOTH",
"170 298 OFFCURVE",
"170 295 OFFCURVE",
"167 293 CURVE",
"133 392 LINE",
"135 406 OFFCURVE",
"152 404 OFFCURVE",
"152 404 CURVE",
"156 449 LINE",
"138 473 LINE",
"138 473 OFFCURVE",
"98 459 OFFCURVE",
"76 459 CURVE SMOOTH",
"53 459 OFFCURVE",
"5 470 OFFCURVE",
"5 470 CURVE",
"5 418 LINE",
"12 418 LINE",
"28 401 LINE",
"28 401 OFFCURVE",
"32 401 OFFCURVE",
"39 400 CURVE",
"57 344 OFFCURVE",
"81 279 OFFCURVE",
"102 223 CURVE SMOOTH",
"112 195 LINE",
"112 54 LINE",
"108 39 OFFCURVE",
"85 39 OFFCURVE",
"85 39 CURVE",
"85 -21 LINE",
"108 -35 LINE",
"108 -35 OFFCURVE",
"144 -21 OFFCURVE",
"167 -21 CURVE SMOOTH",
"192 -21 OFFCURVE",
"236 -33 OFFCURVE",
"236 -33 CURVE",
"236 12 LINE",
"219 36 LINE",
"219 36 OFFCURVE",
"214 36 OFFCURVE",
"207 37 CURVE",
"207 176 LINE",
"270 352 LINE",
"277 358 OFFCURVE",
"314 366 OFFCURVE",
"314 366 CURVE",
"314 413 LINE",
"297 437 LINE",
"297 437 OFFCURVE",
"259 423 OFFCURVE",
"236 423 CURVE SMOOTH"
);
}
);
width = 258;
}
);
leftKerningGroup = y;
note = y;
rightKerningGroup = y;
unicode = 0079;
},
{
glyphname = z;
layers = (
{
hints = (
{
horizontal = 1;
place = "{-13, 21}";
target = up;
type = BottomGhost;
},
{
horizontal = 1;
place = "{32, 11}";
type = Stem;
},
{
horizontal = 1;
place = "{129, 10}";
type = Stem;
},
{
horizontal = 1;
place = "{259, 27}";
type = Stem;
},
{
horizontal = 1;
place = "{411, 10}";
type = Stem;
},
{
place = "{40, 10}";
type = Stem;
},
{
place = "{226, 10}";
type = Stem;
},
{
horizontal = 1;
place = "{-23, 27}";
type = Stem;
},
{
place = "{258, 27}";
type = Stem;
},
{
horizontal = 1;
place = "{363, 27}";
type = Stem;
},
{
place = "{73, 27}";
type = Stem;
},
{
horizontal = 1;
place = "{430, 9}";
type = Stem;
},
{
horizontal = 1;
place = "{26, 11}";
type = Stem;
},
{
horizontal = 1;
place = "{355, 27}";
type = Stem;
},
{
place = "{5, 9}";
type = Stem;
},
{
horizontal = 1;
place = "{-14, 21}";
target = up;
type = BottomGhost;
}
);
layerId = "6055A463-9BF1-4E1B-8033-BCCEA0F196EB";
paths = (
{
closed = 1;
nodes = (
"188 -23 OFFCURVE",
"232 -24 OFFCURVE",
"232 -24 CURVE",
"249 -41 LINE",
"292 -41 LINE",
"292 -41 OFFCURVE",
"285 9 OFFCURVE",
"285 38 CURVE SMOOTH",
"285 66 OFFCURVE",
"292 116 OFFCURVE",
"292 116 CURVE",
"275 139 LINE",
"226 139 LINE",
"226 43 LINE",
"138 43 LINE",
"278 349 LINE SMOOTH",
"280 353 OFFCURVE",
"292 363 OFFCURVE",
"304 363 CURVE SMOOTH",
"325 363 LINE",
"316 406 LINE",
"299 429 LINE",
"299 429 OFFCURVE",
"206 421 OFFCURVE",
"157 421 CURVE SMOOTH",
"130 421 OFFCURVE",
"108 421 OFFCURVE",
"93 422 CURVE",
"84 433 LINE",
"83 439 LINE",
"33 439 LINE",
"33 439 OFFCURVE",
"40 389 OFFCURVE",
"40 358 CURVE SMOOTH",
"40 327 OFFCURVE",
"33 276 OFFCURVE",
"33 276 CURVE",
"56 259 LINE",
"100 259 LINE",
"100 355 LINE",
"173 355 LINE",
"96 184 LINE SMOOTH",
"76 139 OFFCURVE",
"53 92 OFFCURVE",
"33 48 CURVE SMOOTH",
"27 35 OFFCURVE",
"6 37 OFFCURVE",
"6 37 CURVE",
"5 -13 LINE",
"28 -29 LINE",
"28 -29 OFFCURVE",
"111 -23 OFFCURVE",
"164 -23 CURVE SMOOTH"
);
},
{
closed = 1;
nodes = (
"236 -1 LINE",
"222 0 OFFCURVE",
"188 4 OFFCURVE",
"144 4 CURVE SMOOTH",
"91 4 OFFCURVE",
"15 -1 OFFCURVE",
"15 -1 CURVE",
"15 26 LINE",
"15 26 OFFCURVE",
"36 31 OFFCURVE",
"42 44 CURVE SMOOTH",
"197 382 LINE",
"73 382 LINE",
"73 286 LINE",
"44 286 LINE",
"44 286 OFFCURVE",
"50 330 OFFCURVE",
"50 358 CURVE SMOOTH",
"50 385 OFFCURVE",
"44 430 OFFCURVE",
"44 430 CURVE",
"73 430 LINE",
"73 416 LINE",
"85 415 OFFCURVE",
"116 411 OFFCURVE",
"157 411 CURVE SMOOTH",
"209 411 OFFCURVE",
"290 417 OFFCURVE",
"290 417 CURVE",
"296 390 LINE",
"284 390 LINE SMOOTH",
"269 390 OFFCURVE",
"254 376 OFFCURVE",
"252 372 CURVE SMOOTH",
"97 32 LINE",
"236 32 LINE",
"236 129 LINE",
"264 129 LINE",
"264 129 OFFCURVE",
"258 85 OFFCURVE",
"258 58 CURVE SMOOTH",
"258 30 OFFCURVE",
"264 -14 OFFCURVE",
"264 -14 CURVE",
"236 -14 LINE"
);
}
);
width = 281;
}
);
leftKerningGroup = z;
note = z;
rightKerningGroup = z;
unicode = 007A;
},
{
glyphname = one;
layers = (
{
hints = (
{
horizontal = 1;
place = "{-11, 21}";
target = up;
type = BottomGhost;
},
{
horizontal = 1;
place = "{29, 9}";
type = Stem;
},
{
horizontal = 1;
place = "{609, 10}";
type = Stem;
},
{
place = "{5, 10}";
type = Stem;
},
{
place = "{58, 10}";
type = Stem;
},
{
place = "{126, 27}";
type = Stem;
},
{
horizontal = 1;
place = "{-19, 27}";
type = Stem;
},
{
place = "{179, 27}";
type = Stem;
},
{
place = "{11, 10}";
type = Stem;
},
{
horizontal = 1;
place = "{578, 10}";
type = Stem;
}
);
layerId = "6055A463-9BF1-4E1B-8033-BCCEA0F196EB";
paths = (
{
closed = 1;
nodes = (
"58 53 LINE",
"55 42 OFFCURVE",
"5 38 OFFCURVE",
"5 38 CURVE",
"5 -11 LINE",
"28 -28 LINE",
"28 -28 OFFCURVE",
"84 -19 OFFCURVE",
"117 -19 CURVE SMOOTH",
"150 -19 OFFCURVE",
"206 -28 OFFCURVE",
"206 -28 CURVE",
"206 16 LINE",
"189 39 LINE",
"189 39 OFFCURVE",
"168 40 OFFCURVE",
"153 42 CURVE",
"153 608 LINE",
"136 632 LINE",
"136 632 OFFCURVE",
"92 619 OFFCURVE",
"77 619 CURVE SMOOTH",
"61 619 OFFCURVE",
"11 626 OFFCURVE",
"11 626 CURVE",
"11 578 LINE",
"34 561 LINE",
"34 561 OFFCURVE",
"46 560 OFFCURVE",
"58 558 CURVE"
);
},
{
closed = 1;
nodes = (
"15 29 LINE",
"15 29 OFFCURVE",
"65 33 OFFCURVE",
"68 45 CURVE",
"68 573 LINE",
"64 585 OFFCURVE",
"21 588 OFFCURVE",
"21 588 CURVE",
"21 616 LINE",
"30 616 OFFCURVE",
"58 609 OFFCURVE",
"77 609 CURVE SMOOTH",
"95 609 OFFCURVE",
"126 618 OFFCURVE",
"126 618 CURVE",
"126 45 LINE",
"128 33 OFFCURVE",
"179 29 OFFCURVE",
"179 29 CURVE",
"179 0 LINE",
"179 0 OFFCURVE",
"129 8 OFFCURVE",
"97 8 CURVE SMOOTH",
"65 8 OFFCURVE",
"15 0 OFFCURVE",
"15 0 CURVE"
);
}
);
width = 194;
}
);
note = one;
unicode = 0031;
},
{
glyphname = two;
layers = (
{
hints = (
{
horizontal = 1;
place = "{-19, 27}";
type = Stem;
},
{
horizontal = 1;
place = "{51, 10}";
type = Stem;
},
{
horizontal = 1;
place = "{214, 10}";
type = Stem;
},
{
horizontal = 1;
place = "{347, 27}";
type = Stem;
},
{
horizontal = 1;
place = "{605, 10}";
type = Stem;
},
{
place = "{5, 10}";
type = Stem;
},
{
place = "{46, 11}";
type = Stem;
},
{
place = "{93, 27}";
type = Stem;
},
{
place = "{233, 9}";
type = Stem;
},
{
place = "{283, 27}";
type = Stem;
},
{
horizontal = 1;
place = "{-45, 27}";
type = Stem;
},
{
place = "{265, 27}";
type = Stem;
},
{
horizontal = 1;
place = "{617, 10}";
type = Stem;
},
{
place = "{107, 29}";
type = Stem;
},
{
place = "{80, 10}";
type = Stem;
},
{
horizontal = 1;
place = "{-11, 21}";
target = up;
type = BottomGhost;
},
{
horizontal = 1;
place = "{29, 11}";
type = Stem;
},
{
horizontal = 1;
place = "{559, 27}";
type = Stem;
},
{
place = "{218, 9}";
type = Stem;
}
);
layerId = "6055A463-9BF1-4E1B-8033-BCCEA0F196EB";
paths = (
{
closed = 1;
nodes = (
"238 -28 LINE",
"256 -45 LINE",
"300 -45 LINE",
"300 -45 OFFCURVE",
"292 36 OFFCURVE",
"292 78 CURVE SMOOTH",
"292 120 OFFCURVE",
"300 201 OFFCURVE",
"300 201 CURVE",
"283 224 LINE",
"233 224 LINE",
"233 61 LINE",
"136 61 LINE",
"140 83 OFFCURVE",
"147 110 OFFCURVE",
"156 138 CURVE SMOOTH",
"170 190 OFFCURVE",
"215 247 OFFCURVE",
"256 298 CURVE SMOOTH",
"265 311 LINE SMOOTH",
"292 349 OFFCURVE",
"310 399 OFFCURVE",
"310 444 CURVE SMOOTH",
"310 474 OFFCURVE",
"301 510 OFFCURVE",
"287 538 CURVE SMOOTH",
"281 549 OFFCURVE",
"273 560 OFFCURVE",
"265 569 CURVE",
"242 603 OFFCURVE",
"206 627 OFFCURVE",
"174 627 CURVE SMOOTH",
"143 627 OFFCURVE",
"120 617 OFFCURVE",
"102 596 CURVE",
"90 615 LINE",
"40 615 LINE",
"40 615 OFFCURVE",
"46 536 OFFCURVE",
"46 490 CURVE SMOOTH",
"46 443 OFFCURVE",
"40 364 OFFCURVE",
"40 364 CURVE",
"63 347 LINE",
"120 347 LINE",
"120 347 OFFCURVE",
"112 559 OFFCURVE",
"193 559 CURVE SMOOTH",
"196 559 OFFCURVE",
"197 558 OFFCURVE",
"199 558 CURVE",
"203 552 OFFCURVE",
"206 546 OFFCURVE",
"209 539 CURVE SMOOTH",
"215 520 OFFCURVE",
"218 502 OFFCURVE",
"218 484 CURVE SMOOTH",
"218 440 OFFCURVE",
"202 394 OFFCURVE",
"174 361 CURVE SMOOTH",
"97 270 OFFCURVE",
"55 176 OFFCURVE",
"50 61 CURVE SMOOTH",
"49 39 OFFCURVE",
"15 39 OFFCURVE",
"5 40 CURVE",
"5 -11 LINE",
"28 -28 LINE",
"28 -28 OFFCURVE",
"108 -19 OFFCURVE",
"157 -19 CURVE SMOOTH",
"180 -19 OFFCURVE",
"210 -19 OFFCURVE",
"233 -21 CURVE"
);
},
{
closed = 1;
nodes = (
"242 2 LINE",
"225 4 OFFCURVE",
"176 8 OFFCURVE",
"136 8 CURVE SMOOTH",
"86 8 OFFCURVE",
"15 0 OFFCURVE",
"15 0 CURVE",
"15 29 LINE",
"15 29 OFFCURVE",
"54 32 OFFCURVE",
"58 43 CURVE",
"58 51 LINE SMOOTH",
"64 163 OFFCURVE",
"106 265 OFFCURVE",
"180 354 CURVE SMOOTH",
"224 406 OFFCURVE",
"238 479 OFFCURVE",
"219 542 CURVE SMOOTH",
"210 570 OFFCURVE",
"193 586 OFFCURVE",
"174 586 CURVE SMOOTH",
"85 586 OFFCURVE",
"93 374 OFFCURVE",
"93 374 CURVE",
"50 374 LINE",
"50 374 OFFCURVE",
"57 442 OFFCURVE",
"57 490 CURVE SMOOTH",
"57 537 OFFCURVE",
"50 605 OFFCURVE",
"50 605 CURVE",
"80 605 LINE",
"80 527 LINE",
"95 588 OFFCURVE",
"126 617 OFFCURVE",
"174 617 CURVE SMOOTH",
"207 617 OFFCURVE",
"242 593 OFFCURVE",
"261 555 CURVE SMOOTH",
"297 486 OFFCURVE",
"288 399 OFFCURVE",
"239 335 CURVE SMOOTH",
"229 322 LINE SMOOTH",
"189 271 OFFCURVE",
"143 213 OFFCURVE",
"129 160 CURVE SMOOTH",
"116 118 OFFCURVE",
"109 78 OFFCURVE",
"107 51 CURVE",
"242 51 LINE",
"242 214 LINE",
"272 214 LINE",
"272 214 OFFCURVE",
"265 145 OFFCURVE",
"265 98 CURVE SMOOTH",
"265 51 OFFCURVE",
"272 -18 OFFCURVE",
"272 -18 CURVE",
"242 -18 LINE"
);
}
);
width = 298;
}
);
note = two;
unicode = 0032;
},
{
glyphname = three;
layers = (
{
hints = (
{
horizontal = 1;
place = "{0, 21}";
target = up;
type = BottomGhost;
},
{
horizontal = 1;
place = "{32, 10}";
type = Stem;
},
{
horizontal = 1;
place = "{244, 10}";
type = Stem;
},
{
horizontal = 1;
place = "{347, 27}";
type = Stem;
},
{
horizontal = 1;
place = "{605, 10}";
type = Stem;
},
{
place = "{10, 10}";
type = Stem;
},
{
place = "{53, 26}";
type = Stem;
},
{
place = "{177, 9}";
type = Stem;
},
{
place = "{236, 27}";
type = Stem;
},
{
horizontal = 1;
place = "{-43, 27}";
type = Stem;
},
{
place = "{43, 27}";
type = Stem;
},
{
horizontal = 1;
place = "{-26, 27}";
type = Stem;
},
{
place = "{243, 27}";
type = Stem;
},
{
horizontal = 1;
place = "{617, 10}";
type = Stem;
},
{
place = "{43, 10}";
type = Stem;
},
{
horizontal = 1;
place = "{234, 27}";
type = Stem;
},
{
horizontal = 1;
place = "{559, 27}";
type = Stem;
},
{
place = "{183, 10}";
type = Stem;
},
{
horizontal = 1;
place = "{-16, 21}";
target = up;
type = BottomGhost;
}
);
layerId = "6055A463-9BF1-4E1B-8033-BCCEA0F196EB";
paths = (
{
closed = 1;
nodes = (
"35 -43 LINE",
"70 -43 LINE",
"70 0 LINE",
"72 0 OFFCURVE",
"73 -1 OFFCURVE",
"75 -2 CURVE",
"79 -6 LINE SMOOTH",
"94 -21 OFFCURVE",
"114 -26 OFFCURVE",
"142 -26 CURVE SMOOTH",
"227 -26 OFFCURVE",
"270 23 OFFCURVE",
"270 122 CURVE SMOOTH",
"270 169 OFFCURVE",
"253 201 OFFCURVE",
"233 222 CURVE",
"221 243 OFFCURVE",
"206 257 OFFCURVE",
"191 266 CURVE",
"219 303 OFFCURVE",
"263 375 OFFCURVE",
"263 446 CURVE SMOOTH",
"263 515 OFFCURVE",
"245 554 OFFCURVE",
"223 576 CURVE SMOOTH",
"221 578 LINE",
"195 620 OFFCURVE",
"155 627 OFFCURVE",
"134 627 CURVE SMOOTH",
"108 627 OFFCURVE",
"83 616 OFFCURVE",
"64 597 CURVE",
"53 609 LINE",
"53 615 LINE",
"4 615 LINE",
"4 615 OFFCURVE",
"10 537 OFFCURVE",
"10 490 CURVE SMOOTH",
"10 442 OFFCURVE",
"4 364 OFFCURVE",
"4 364 CURVE",
"27 347 LINE",
"80 347 LINE",
"80 347 OFFCURVE",
"67 559 OFFCURVE",
"154 559 CURVE SMOOTH",
"156 559 OFFCURVE",
"158 558 OFFCURVE",
"161 557 CURVE",
"164 552 OFFCURVE",
"166 546 OFFCURVE",
"168 539 CURVE SMOOTH",
"172 526 OFFCURVE",
"177 507 OFFCURVE",
"177 485 CURVE SMOOTH",
"177 434 OFFCURVE",
"157 361 OFFCURVE",
"72 276 CURVE",
"80 251 LINE",
"102 234 LINE",
"118 234 OFFCURVE",
"132 228 OFFCURVE",
"144 220 CURVE",
"168 195 OFFCURVE",
"183 161 OFFCURVE",
"183 138 CURVE SMOOTH",
"183 94 OFFCURVE",
"173 42 OFFCURVE",
"122 42 CURVE SMOOTH",
"114 42 OFFCURVE",
"107 44 OFFCURVE",
"101 48 CURVE",
"82 84 OFFCURVE",
"79 145 OFFCURVE",
"79 185 CURVE SMOOTH",
"79 208 OFFCURVE",
"80 231 OFFCURVE",
"80 231 CURVE",
"63 254 LINE",
"5 254 LINE",
"5 254 OFFCURVE",
"10 168 OFFCURVE",
"10 114 CURVE SMOOTH",
"10 61 OFFCURVE",
"3 -24 OFFCURVE",
"3 -24 CURVE"
);
},
{
closed = 1;
nodes = (
"15 -16 LINE",
"15 -16 OFFCURVE",
"20 61 OFFCURVE",
"20 114 CURVE SMOOTH",
"20 168 OFFCURVE",
"15 244 OFFCURVE",
"15 244 CURVE",
"53 244 LINE",
"53 244 OFFCURVE",
"37 32 OFFCURVE",
"122 32 CURVE SMOOTH",
"181 32 OFFCURVE",
"193 90 OFFCURVE",
"193 138 CURVE SMOOTH",
"193 180 OFFCURVE",
"152 261 OFFCURVE",
"88 261 CURVE",
"83 273 LINE",
"207 397 OFFCURVE",
"191 503 OFFCURVE",
"178 542 CURVE SMOOTH",
"170 570 OFFCURVE",
"153 586 OFFCURVE",
"134 586 CURVE SMOOTH",
"40 586 OFFCURVE",
"53 374 OFFCURVE",
"53 374 CURVE",
"15 374 LINE",
"15 374 OFFCURVE",
"20 442 OFFCURVE",
"20 490 CURVE SMOOTH",
"20 537 OFFCURVE",
"15 605 OFFCURVE",
"15 605 CURVE",
"43 605 LINE",
"43 540 LINE",
"60 592 OFFCURVE",
"90 617 OFFCURVE",
"134 617 CURVE SMOOTH",
"164 617 OFFCURVE",
"236 602 OFFCURVE",
"236 466 CURVE SMOOTH",
"236 382 OFFCURVE",
"173 298 OFFCURVE",
"152 272 CURVE",
"178 263 OFFCURVE",
"243 232 OFFCURVE",
"243 142 CURVE SMOOTH",
"243 48 OFFCURVE",
"202 1 OFFCURVE",
"122 1 CURVE SMOOTH",
"82 1 OFFCURVE",
"58 16 OFFCURVE",
"43 53 CURVE",
"43 -16 LINE"
);
}
);
width = 258;
}
);
note = three;
unicode = 0033;
},
{
glyphname = four;
layers = (
{
hints = (
{
horizontal = 1;
place = "{-11, 21}";
target = up;
type = BottomGhost;
},
{
horizontal = 1;
place = "{29, 10}";
type = Stem;
},
{
horizontal = 1;
place = "{87, 27}";
type = Stem;
},
{
horizontal = 1;
place = "{151, 27}";
type = Stem;
},
{
horizontal = 1;
place = "{212, 10}";
type = Stem;
},
{
horizontal = 1;
place = "{274, 10}";
type = Stem;
},
{
horizontal = 1;
place = "{609, 10}";
type = Stem;
},
{
place = "{99, 10}";
type = Stem;
},
{
place = "{152, 10}";
type = Stem;
},
{
place = "{220, 25}";
type = Stem;
},
{
horizontal = 1;
place = "{-19, 27}";
type = Stem;
},
{
place = "{273, 27}";
type = Stem;
},
{
place = "{267, 27}";
type = Stem;
},
{
place = "{105, 10}";
type = Stem;
},
{
horizontal = 1;
place = "{29, 14}";
type = Stem;
},
{
horizontal = 1;
place = "{578, 10}";
type = Stem;
}
);
layerId = "6055A463-9BF1-4E1B-8033-BCCEA0F196EB";
paths = (
{
closed = 1;
nodes = (
"152 222 LINE",
"102 222 LINE",
"152 348 LINE"
);
},
{
closed = 1;
nodes = (
"99 -11 LINE",
"122 -28 LINE",
"122 -28 OFFCURVE",
"178 -19 OFFCURVE",
"211 -19 CURVE SMOOTH",
"244 -19 OFFCURVE",
"300 -28 OFFCURVE",
"300 -28 CURVE",
"300 16 LINE",
"283 39 LINE",
"283 39 OFFCURVE",
"262 40 OFFCURVE",
"247 42 CURVE",
"247 98 LINE",
"258 87 LINE",
"301 87 LINE",
"301 87 OFFCURVE",
"294 144 OFFCURVE",
"294 174 CURVE SMOOTH",
"294 205 OFFCURVE",
"301 261 OFFCURVE",
"301 261 CURVE",
"284 284 LINE",
"247 284 LINE",
"247 608 LINE",
"230 632 LINE",
"208 625 LINE",
"208 625 OFFCURVE",
"184 619 OFFCURVE",
"171 619 CURVE SMOOTH",
"158 619 OFFCURVE",
"105 629 OFFCURVE",
"105 629 CURVE",
"105 578 LINE",
"128 561 LINE",
"128 561 OFFCURVE",
"135 560 OFFCURVE",
"144 559 CURVE",
"1 168 LINE",
"25 151 LINE",
"152 151 LINE",
"152 59 LINE",
"149 47 OFFCURVE",
"99 43 OFFCURVE",
"99 43 CURVE"
);
},
{
closed = 1;
nodes = (
"162 467 LINE",
"64 212 LINE",
"162 212 LINE"
);
},
{
closed = 1;
nodes = (
"109 29 LINE",
"109 29 OFFCURVE",
"159 33 OFFCURVE",
"162 45 CURVE",
"162 178 LINE",
"15 178 LINE",
"161 574 LINE",
"157 585 OFFCURVE",
"115 588 OFFCURVE",
"115 588 CURVE",
"115 616 LINE",
"115 616 OFFCURVE",
"152 609 OFFCURVE",
"171 609 CURVE SMOOTH",
"189 609 OFFCURVE",
"211 615 OFFCURVE",
"211 615 CURVE",
"220 618 LINE",
"220 212 LINE",
"245 212 LINE",
"245 274 LINE",
"273 274 LINE",
"273 274 OFFCURVE",
"267 226 OFFCURVE",
"267 194 CURVE SMOOTH",
"267 163 OFFCURVE",
"273 114 OFFCURVE",
"273 114 CURVE",
"245 114 LINE",
"245 178 LINE",
"220 178 LINE",
"220 45 LINE",
"222 33 OFFCURVE",
"273 29 OFFCURVE",
"273 29 CURVE",
"273 0 LINE",
"273 0 OFFCURVE",
"223 8 OFFCURVE",
"191 8 CURVE SMOOTH",
"159 8 OFFCURVE",
"109 0 OFFCURVE",
"109 0 CURVE"
);
}
);
width = 288;
}
);
note = four;
unicode = 0034;
},
{
glyphname = five;
layers = (
{
hints = (
{
horizontal = 1;
place = "{-7, 10}";
type = Stem;
},
{
horizontal = 1;
place = "{48, 10}";
type = Stem;
},
{
horizontal = 1;
place = "{170, 10}";
type = Stem;
},
{
horizontal = 1;
place = "{229, 27}";
type = Stem;
},
{
horizontal = 1;
place = "{290, 27}";
type = Stem;
},
{
horizontal = 1;
place = "{355, 10}";
type = Stem;
},
{
horizontal = 1;
place = "{441, 27}";
type = Stem;
},
{
horizontal = 1;
place = "{540, 27}";
type = Stem;
},
{
horizontal = 1;
place = "{610, 10}";
type = Stem;
},
{
place = "{15, 10}";
type = Stem;
},
{
place = "{84, 28}";
type = Stem;
},
{
place = "{233, 10}";
type = Stem;
},
{
place = "{301, 27}";
type = Stem;
},
{
horizontal = 1;
place = "{636, 10}";
type = Stem;
},
{
place = "{266, 26}";
type = Stem;
},
{
place = "{5, 10}";
type = Stem;
},
{
horizontal = 1;
place = "{579, 10}";
type = Stem;
},
{
place = "{37, 11}";
type = Stem;
},
{
place = "{73, 27}";
type = Stem;
},
{
place = "{220, 10}";
type = Stem;
},
{
place = "{59, 27}";
type = Stem;
},
{
horizontal = 1;
place = "{-24, 27}";
type = Stem;
},
{
place = "{47, 27}";
type = Stem;
}
);
layerId = "6055A463-9BF1-4E1B-8033-BCCEA0F196EB";
paths = (
{
closed = 1;
nodes = (
"118 540 LINE",
"233 540 LINE",
"233 458 LINE",
"256 441 LINE",
"300 441 LINE",
"300 441 OFFCURVE",
"292 501 OFFCURVE",
"292 532 CURVE SMOOTH",
"292 563 OFFCURVE",
"300 623 OFFCURVE",
"300 623 CURVE",
"283 646 LINE",
"233 646 LINE",
"233 626 LINE",
"233 626 OFFCURVE",
"173 620 OFFCURVE",
"136 620 CURVE SMOOTH",
"86 620 OFFCURVE",
"5 629 OFFCURVE",
"5 629 CURVE",
"5 579 LINE",
"28 562 LINE",
"28 562 OFFCURVE",
"37 561 OFFCURVE",
"46 560 CURVE",
"29 246 LINE",
"52 229 LINE",
"100 229 LINE",
"100 238 LINE",
"123 271 OFFCURVE",
"153 290 OFFCURVE",
"182 290 CURVE SMOOTH",
"185 290 OFFCURVE",
"189 289 OFFCURVE",
"191 288 CURVE",
"207 268 OFFCURVE",
"220 230 OFFCURVE",
"220 173 CURVE SMOOTH",
"220 82 OFFCURVE",
"184 58 OFFCURVE",
"162 58 CURVE SMOOTH",
"136 58 OFFCURVE",
"119 66 OFFCURVE",
"105 79 CURVE",
"86 115 OFFCURVE",
"86 157 OFFCURVE",
"86 157 CURVE",
"69 180 LINE",
"9 181 LINE",
"9 181 OFFCURVE",
"15 121 OFFCURVE",
"15 87 CURVE SMOOTH",
"15 51 OFFCURVE",
"9 -7 OFFCURVE",
"9 -7 CURVE",
"32 -24 LINE",
"74 -24 LINE",
"74 24 LINE",
"80 20 OFFCURVE",
"85 16 OFFCURVE",
"91 13 CURVE",
"114 -10 OFFCURVE",
"146 -24 OFFCURVE",
"182 -24 CURVE SMOOTH",
"252 -24 OFFCURVE",
"328 31 OFFCURVE",
"328 153 CURVE SMOOTH",
"328 216 OFFCURVE",
"309 269 OFFCURVE",
"275 303 CURVE",
"248 341 OFFCURVE",
"208 365 OFFCURVE",
"162 365 CURVE SMOOTH",
"144 365 OFFCURVE",
"125 360 OFFCURVE",
"108 352 CURVE"
);
},
{
closed = 1;
nodes = (
"113 3 OFFCURVE",
"72 29 OFFCURVE",
"47 75 CURVE",
"47 3 LINE",
"19 3 LINE",
"19 3 OFFCURVE",
"25 53 OFFCURVE",
"25 87 CURVE SMOOTH",
"25 120 OFFCURVE",
"19 171 OFFCURVE",
"19 171 CURVE",
"59 170 LINE",
"59 170 OFFCURVE",
"59 48 OFFCURVE",
"162 48 CURVE SMOOTH",
"188 48 OFFCURVE",
"230 74 OFFCURVE",
"230 173 CURVE SMOOTH",
"230 272 OFFCURVE",
"190 317 OFFCURVE",
"162 317 CURVE SMOOTH",
"130 317 OFFCURVE",
"98 297 OFFCURVE",
"73 261 CURVE",
"73 256 LINE",
"40 256 LINE",
"58 575 LINE",
"54 587 OFFCURVE",
"15 589 OFFCURVE",
"15 589 CURVE",
"15 618 LINE",
"15 618 OFFCURVE",
"86 610 OFFCURVE",
"136 610 CURVE SMOOTH",
"176 610 OFFCURVE",
"225 615 OFFCURVE",
"243 616 CURVE",
"243 636 LINE",
"271 636 LINE",
"271 636 OFFCURVE",
"266 585 OFFCURVE",
"266 552 CURVE SMOOTH",
"266 519 OFFCURVE",
"271 468 OFFCURVE",
"271 468 CURVE",
"243 468 LINE",
"243 567 LINE",
"92 567 LINE",
"77 319 LINE",
"100 342 OFFCURVE",
"131 355 OFFCURVE",
"162 355 CURVE SMOOTH",
"243 355 OFFCURVE",
"301 278 OFFCURVE",
"301 173 CURVE SMOOTH",
"301 56 OFFCURVE",
"230 3 OFFCURVE",
"162 3 CURVE SMOOTH"
);
}
);
width = 316;
}
);
note = five;
unicode = 0035;
},
{
glyphname = six;
layers = (
{
hints = (
{
horizontal = 1;
place = "{-24, 27}";
type = Stem;
},
{
horizontal = 1;
place = "{35, 10}";
type = Stem;
},
{
horizontal = 1;
place = "{358, 27}";
type = Stem;
},
{
horizontal = 1;
place = "{421, 10}";
type = Stem;
},
{
horizontal = 1;
place = "{473, 27}";
type = Stem;
},
{
horizontal = 1;
place = "{617, 10}";
type = Stem;
},
{
place = "{5, 10}";
type = Stem;
},
{
place = "{76, 27}";
type = Stem;
},
{
place = "{206, 10}";
type = Stem;
},
{
place = "{277, 27}";
type = Stem;
},
{
horizontal = 1;
place = "{565, 27}";
type = Stem;
},
{
place = "{179, 10}";
type = Stem;
},
{
place = "{211, 27}";
type = Stem;
}
);
layerId = "6055A463-9BF1-4E1B-8033-BCCEA0F196EB";
paths = (
{
closed = 1;
nodes = (
"103 294 OFFCURVE",
"125 358 OFFCURVE",
"164 358 CURVE SMOOTH",
"168 358 OFFCURVE",
"173 357 OFFCURVE",
"177 355 CURVE",
"195 328 OFFCURVE",
"206 275 OFFCURVE",
"206 205 CURVE SMOOTH",
"206 87 OFFCURVE",
"175 45 OFFCURVE",
"144 45 CURVE SMOOTH",
"136 45 OFFCURVE",
"129 47 OFFCURVE",
"123 52 CURVE",
"109 79 OFFCURVE",
"103 125 OFFCURVE",
"103 185 CURVE SMOOTH"
);
},
{
closed = 1;
nodes = (
"179 565 LINE",
"179 490 LINE",
"185 490 LINE",
"202 473 LINE",
"247 473 LINE",
"247 473 OFFCURVE",
"238 521 OFFCURVE",
"238 539 CURVE SMOOTH",
"238 558 OFFCURVE",
"247 604 OFFCURVE",
"247 604 CURVE",
"229 621 LINE",
"231 627 LINE",
"179 627 LINE",
"179 624 LINE",
"171 627 OFFCURVE",
"164 627 OFFCURVE",
"154 627 CURVE SMOOTH",
"59 627 OFFCURVE",
"33 500 OFFCURVE",
"23 447 CURVE SMOOTH",
"8 364 OFFCURVE",
"5 276 OFFCURVE",
"5 205 CURVE SMOOTH",
"5 102 OFFCURVE",
"40 39 OFFCURVE",
"84 11 CURVE",
"107 -12 OFFCURVE",
"136 -24 OFFCURVE",
"164 -24 CURVE SMOOTH",
"231 -24 OFFCURVE",
"304 41 OFFCURVE",
"304 185 CURVE SMOOTH",
"304 266 OFFCURVE",
"281 333 OFFCURVE",
"243 371 CURVE",
"218 409 OFFCURVE",
"184 431 OFFCURVE",
"144 431 CURVE SMOOTH",
"133 431 OFFCURVE",
"123 429 OFFCURVE",
"113 426 CURVE",
"127 518 OFFCURVE",
"150 565 OFFCURVE",
"178 565 CURVE SMOOTH"
);
},
{
closed = 1;
nodes = (
"101 385 OFFCURVE",
"76 318 OFFCURVE",
"76 205 CURVE SMOOTH",
"76 99 OFFCURVE",
"101 35 OFFCURVE",
"144 35 CURVE SMOOTH",
"179 35 OFFCURVE",
"216 80 OFFCURVE",
"216 205 CURVE SMOOTH",
"216 316 OFFCURVE",
"189 385 OFFCURVE",
"144 385 CURVE SMOOTH"
);
},
{
closed = 1;
nodes = (
"80 3 OFFCURVE",
"15 65 OFFCURVE",
"15 205 CURVE SMOOTH",
"15 277 OFFCURVE",
"17 361 OFFCURVE",
"33 445 CURVE SMOOTH",
"42 492 OFFCURVE",
"66 617 OFFCURVE",
"154 617 CURVE SMOOTH",
"166 617 OFFCURVE",
"178 614 OFFCURVE",
"189 608 CURVE",
"189 617 LINE",
"218 617 LINE",
"218 617 OFFCURVE",
"211 581 OFFCURVE",
"211 559 CURVE SMOOTH",
"211 537 OFFCURVE",
"218 500 OFFCURVE",
"218 500 CURVE",
"189 500 LINE",
"189 582 LINE",
"180 591 OFFCURVE",
"166 592 OFFCURVE",
"158 592 CURVE SMOOTH",
"122 592 OFFCURVE",
"93 519 OFFCURVE",
"80 395 CURVE",
"99 412 OFFCURVE",
"121 421 OFFCURVE",
"144 421 CURVE SMOOTH",
"221 421 OFFCURVE",
"277 330 OFFCURVE",
"277 205 CURVE SMOOTH",
"277 66 OFFCURVE",
"208 3 OFFCURVE",
"144 3 CURVE SMOOTH"
);
}
);
width = 292;
}
);
note = six;
unicode = 0036;
},
{
glyphname = seven;
layers = (
{
hints = (
{
horizontal = 1;
place = "{-11, 21}";
target = up;
type = BottomGhost;
},
{
horizontal = 1;
place = "{29, 9}";
type = Stem;
},
{
horizontal = 1;
place = "{435, 27}";
type = Stem;
},
{
horizontal = 1;
place = "{534, 27}";
type = Stem;
},
{
horizontal = 1;
place = "{604, 10}";
type = Stem;
},
{
place = "{11, 9}";
type = Stem;
},
{
place = "{207, 27}";
type = Stem;
},
{
place = "{32, 10}";
type = Stem;
},
{
horizontal = 1;
place = "{-19, 27}";
type = Stem;
},
{
horizontal = 1;
place = "{559, 24}";
type = Stem;
},
{
place = "{158, 27}";
type = Stem;
},
{
place = "{216, 27}";
type = Stem;
},
{
place = "{258, 26}";
type = Stem;
},
{
place = "{43, 27}";
type = Stem;
},
{
horizontal = 1;
place = "{630, 10}";
type = Stem;
}
);
layerId = "6055A463-9BF1-4E1B-8033-BCCEA0F196EB";
paths = (
{
closed = 1;
nodes = (
"33 -11 LINE",
"56 -28 LINE",
"56 -28 OFFCURVE",
"112 -19 OFFCURVE",
"145 -19 CURVE SMOOTH",
"177 -19 OFFCURVE",
"234 -28 OFFCURVE",
"234 -28 CURVE",
"234 16 LINE",
"217 39 LINE",
"217 39 OFFCURVE",
"200 39 OFFCURVE",
"185 41 CURVE",
"194 98 OFFCURVE",
"213 286 OFFCURVE",
"229 416 CURVE SMOOTH",
"233 459 OFFCURVE",
"239 505 OFFCURVE",
"243 548 CURVE",
"248 559 OFFCURVE",
"283 559 OFFCURVE",
"283 559 CURVE",
"285 599 LINE",
"269 622 LINE",
"269 622 OFFCURVE",
"186 614 OFFCURVE",
"137 614 CURVE SMOOTH",
"114 614 OFFCURVE",
"90 615 OFFCURVE",
"70 616 CURVE",
"70 617 LINE",
"54 640 LINE",
"3 640 LINE",
"3 640 OFFCURVE",
"11 580 OFFCURVE",
"11 546 CURVE SMOOTH",
"11 511 OFFCURVE",
"3 452 OFFCURVE",
"3 452 CURVE",
"27 435 LINE",
"70 435 LINE",
"70 534 LINE",
"144 534 LINE",
"89 53 LINE",
"86 40 OFFCURVE",
"32 38 OFFCURVE",
"32 38 CURVE"
);
},
{
closed = 1;
nodes = (
"43 29 LINE",
"43 29 OFFCURVE",
"97 35 OFFCURVE",
"99 46 CURVE SMOOTH",
"157 561 LINE",
"43 561 LINE",
"43 462 LINE",
"15 462 LINE",
"15 462 OFFCURVE",
"20 513 OFFCURVE",
"20 546 CURVE SMOOTH",
"20 579 OFFCURVE",
"15 630 OFFCURVE",
"15 630 CURVE",
"43 630 LINE",
"43 610 LINE",
"59 608 OFFCURVE",
"99 604 OFFCURVE",
"137 604 CURVE SMOOTH",
"186 604 OFFCURVE",
"258 611 OFFCURVE",
"258 611 CURVE",
"258 583 LINE",
"258 583 OFFCURVE",
"221 580 OFFCURVE",
"216 569 CURVE",
"213 549 OFFCURVE",
"157 36 OFFCURVE",
"158 36 CURVE",
"159 32 OFFCURVE",
"207 29 OFFCURVE",
"207 29 CURVE",
"207 0 LINE",
"207 0 OFFCURVE",
"157 8 OFFCURVE",
"124 8 CURVE SMOOTH",
"92 8 OFFCURVE",
"43 0 OFFCURVE",
"43 0 CURVE"
);
}
);
width = 274;
}
);
note = seven;
unicode = 0037;
},
{
glyphname = eight;
layers = (
{
hints = (
{
horizontal = 1;
place = "{30, 10}";
type = Stem;
},
{
horizontal = 1;
place = "{326, 10}";
type = Stem;
},
{
horizontal = 1;
place = "{617, 10}";
type = Stem;
},
{
place = "{20, 10}";
type = Stem;
},
{
place = "{72, 27}";
type = Stem;
},
{
place = "{241, 10}";
type = Stem;
},
{
place = "{321, 27}";
type = Stem;
},
{
horizontal = 1;
place = "{566, 27}";
type = Stem;
},
{
place = "{84, 27}";
type = Stem;
},
{
horizontal = 1;
place = "{270, 27}";
type = Stem;
},
{
place = "{252, 11}";
type = Stem;
},
{
place = "{305, 27}";
type = Stem;
},
{
horizontal = 1;
place = "{-24, 27}";
type = Stem;
},
{
place = "{4, 10}";
type = Stem;
}
);
layerId = "6055A463-9BF1-4E1B-8033-BCCEA0F196EB";
paths = (
{
closed = 1;
nodes = (
"111 525 OFFCURVE",
"151 566 OFFCURVE",
"188 566 CURVE SMOOTH",
"196 566 OFFCURVE",
"205 564 OFFCURVE",
"213 560 CURVE",
"229 539 OFFCURVE",
"241 505 OFFCURVE",
"241 455 CURVE SMOOTH",
"241 367 OFFCURVE",
"197 336 OFFCURVE",
"165 336 CURVE SMOOTH",
"152 336 OFFCURVE",
"138 341 OFFCURVE",
"128 351 CURVE",
"116 371 OFFCURVE",
"111 398 OFFCURVE",
"111 435 CURVE SMOOTH"
);
},
{
closed = 1;
nodes = (
"99 230 OFFCURVE",
"143 270 OFFCURVE",
"186 270 CURVE SMOOTH",
"200 270 OFFCURVE",
"210 267 OFFCURVE",
"222 261 CURVE",
"242 236 OFFCURVE",
"252 197 OFFCURVE",
"252 159 CURVE SMOOTH",
"252 101 OFFCURVE",
"225 40 OFFCURVE",
"165 40 CURVE SMOOTH",
"148 40 OFFCURVE",
"130 46 OFFCURVE",
"116 60 CURVE",
"104 78 OFFCURVE",
"99 104 OFFCURVE",
"99 139 CURVE SMOOTH"
);
},
{
closed = 1;
nodes = (
"332 486 OFFCURVE",
"314 531 OFFCURVE",
"286 561 CURVE",
"259 602 OFFCURVE",
"216 627 OFFCURVE",
"165 627 CURVE SMOOTH",
"80 627 OFFCURVE",
"20 555 OFFCURVE",
"20 455 CURVE SMOOTH",
"20 392 OFFCURVE",
"43 343 OFFCURVE",
"85 316 CURVE",
"35 287 OFFCURVE",
"4 228 OFFCURVE",
"4 159 CURVE SMOOTH",
"4 107 OFFCURVE",
"26 52 OFFCURVE",
"72 20 CURVE SMOOTH",
"75 18 LINE",
"101 -8 OFFCURVE",
"138 -24 OFFCURVE",
"186 -24 CURVE SMOOTH",
"264 -24 OFFCURVE",
"348 27 OFFCURVE",
"348 139 CURVE SMOOTH",
"348 191 OFFCURVE",
"331 234 OFFCURVE",
"303 265 CURVE",
"294 279 OFFCURVE",
"282 291 OFFCURVE",
"268 302 CURVE",
"304 325 OFFCURVE",
"332 368 OFFCURVE",
"332 435 CURVE SMOOTH"
);
},
{
closed = 1;
nodes = (
"128 593 OFFCURVE",
"84 550 OFFCURVE",
"84 455 CURVE SMOOTH",
"84 366 OFFCURVE",
"125 326 OFFCURVE",
"165 326 CURVE SMOOTH",
"201 326 OFFCURVE",
"251 360 OFFCURVE",
"251 455 CURVE SMOOTH",
"251 550 OFFCURVE",
"209 593 OFFCURVE",
"168 593 CURVE SMOOTH"
);
},
{
closed = 1;
nodes = (
"120 297 OFFCURVE",
"72 255 OFFCURVE",
"72 159 CURVE SMOOTH",
"72 64 OFFCURVE",
"122 30 OFFCURVE",
"165 30 CURVE SMOOTH",
"232 30 OFFCURVE",
"263 97 OFFCURVE",
"263 159 CURVE SMOOTH",
"263 226 OFFCURVE",
"232 297 OFFCURVE",
"165 297 CURVE SMOOTH"
);
},
{
closed = 1;
nodes = (
"62 3 OFFCURVE",
"14 84 OFFCURVE",
"14 159 CURVE SMOOTH",
"14 233 OFFCURVE",
"50 292 OFFCURVE",
"108 315 CURVE",
"58 337 OFFCURVE",
"30 388 OFFCURVE",
"30 455 CURVE SMOOTH",
"30 549 OFFCURVE",
"86 617 OFFCURVE",
"165 617 CURVE SMOOTH",
"246 617 OFFCURVE",
"305 549 OFFCURVE",
"305 455 CURVE SMOOTH",
"305 379 OFFCURVE",
"265 334 OFFCURVE",
"223 315 CURVE",
"283 291 OFFCURVE",
"321 233 OFFCURVE",
"321 159 CURVE SMOOTH",
"321 52 OFFCURVE",
"241 3 OFFCURVE",
"165 3 CURVE SMOOTH"
);
}
);
width = 336;
}
);
note = eight;
unicode = 0038;
},
{
glyphname = nine;
layers = (
{
hints = (
{
horizontal = 1;
place = "{-25, 27}";
type = Stem;
},
{
horizontal = 1;
place = "{118, 10}";
type = Stem;
},
{
horizontal = 1;
place = "{172, 27}";
type = Stem;
},
{
horizontal = 1;
place = "{235, 9}";
type = Stem;
},
{
horizontal = 1;
place = "{556, 27}";
type = Stem;
},
{
horizontal = 1;
place = "{616, 10}";
type = Stem;
},
{
place = "{6, 9}";
type = Stem;
},
{
place = "{55, 10}";
type = Stem;
},
{
place = "{207, 10}";
type = Stem;
},
{
place = "{277, 27}";
type = Stem;
},
{
place = "{75, 27}";
type = Stem;
},
{
horizontal = 1;
place = "{26, 10}";
type = Stem;
},
{
place = "{88, 27}";
type = Stem;
},
{
horizontal = 1;
place = "{-9, 11}";
type = Stem;
}
);
layerId = "6055A463-9BF1-4E1B-8033-BCCEA0F196EB";
paths = (
{
closed = 1;
nodes = (
"190 547 LINE",
"191 547 OFFCURVE",
"191 547 OFFCURVE",
"191 546 CURVE"
);
},
{
closed = 1;
nodes = (
"102 514 OFFCURVE",
"136 556 OFFCURVE",
"168 556 CURVE SMOOTH",
"172 556 OFFCURVE",
"176 555 OFFCURVE",
"178 554 CURVE",
"196 529 OFFCURVE",
"207 480 OFFCURVE",
"207 414 CURVE SMOOTH",
"207 307 OFFCURVE",
"185 244 OFFCURVE",
"148 244 CURVE SMOOTH",
"140 244 OFFCURVE",
"132 246 OFFCURVE",
"127 251 CURVE",
"110 280 OFFCURVE",
"102 330 OFFCURVE",
"102 394 CURVE SMOOTH"
);
},
{
closed = 1;
nodes = (
"173 172 OFFCURVE",
"181 172 OFFCURVE",
"190 174 CURVE",
"173 101 OFFCURVE",
"148 36 OFFCURVE",
"118 36 CURVE SMOOTH",
"115 36 LINE",
"115 105 LINE",
"99 128 LINE",
"47 128 LINE",
"47 128 OFFCURVE",
"55 80 OFFCURVE",
"55 60 CURVE SMOOTH",
"55 34 OFFCURVE",
"48 -9 OFFCURVE",
"48 -9 CURVE",
"72 -25 LINE",
"115 -25 LINE",
"115 -21 LINE",
"123 -24 OFFCURVE",
"135 -25 OFFCURVE",
"142 -25 CURVE SMOOTH",
"244 -25 OFFCURVE",
"304 132 OFFCURVE",
"304 394 CURVE SMOOTH",
"304 477 OFFCURVE",
"281 534 OFFCURVE",
"248 567 CURVE",
"221 607 OFFCURVE",
"185 626 OFFCURVE",
"148 626 CURVE SMOOTH",
"79 626 OFFCURVE",
"6 560 OFFCURVE",
"6 414 CURVE SMOOTH",
"6 316 OFFCURVE",
"38 238 OFFCURVE",
"91 205 CURVE",
"113 183 OFFCURVE",
"139 172 OFFCURVE",
"168 172 CURVE SMOOTH"
);
},
{
closed = 1;
nodes = (
"114 583 OFFCURVE",
"75 540 OFFCURVE",
"75 414 CURVE SMOOTH",
"75 303 OFFCURVE",
"104 235 OFFCURVE",
"148 235 CURVE SMOOTH",
"190 235 OFFCURVE",
"217 302 OFFCURVE",
"217 414 CURVE SMOOTH",
"217 520 OFFCURVE",
"190 583 OFFCURVE",
"148 583 CURVE SMOOTH"
);
},
{
closed = 1;
nodes = (
"110 2 OFFCURVE",
"99 4 OFFCURVE",
"88 11 CURVE",
"88 2 LINE",
"60 2 LINE",
"60 2 OFFCURVE",
"65 38 OFFCURVE",
"65 60 CURVE SMOOTH",
"65 82 OFFCURVE",
"60 118 OFFCURVE",
"60 118 CURVE",
"88 118 LINE",
"88 36 LINE",
"97 28 OFFCURVE",
"110 26 OFFCURVE",
"118 26 CURVE SMOOTH",
"160 26 OFFCURVE",
"193 127 OFFCURVE",
"208 220 CURVE",
"190 205 OFFCURVE",
"169 199 OFFCURVE",
"148 199 CURVE SMOOTH",
"70 199 OFFCURVE",
"15 289 OFFCURVE",
"15 414 CURVE SMOOTH",
"15 553 OFFCURVE",
"83 616 OFFCURVE",
"148 616 CURVE SMOOTH",
"213 616 OFFCURVE",
"277 554 OFFCURVE",
"277 414 CURVE SMOOTH",
"277 155 OFFCURVE",
"220 2 OFFCURVE",
"123 2 CURVE SMOOTH"
);
}
);
width = 292;
}
);
note = nine;
unicode = 0039;
},
{
glyphname = zero;
layers = (
{
hints = (
{
horizontal = 1;
place = "{-24, 27}";
type = Stem;
},
{
horizontal = 1;
place = "{555, 27}";
type = Stem;
},
{
horizontal = 1;
place = "{614, 10}";
type = Stem;
},
{
place = "{5, 10}";
type = Stem;
},
{
place = "{73, 27}";
type = Stem;
},
{
place = "{253, 10}";
type = Stem;
},
{
place = "{321, 27}";
type = Stem;
},
{
horizontal = 1;
place = "{31, 10}";
type = Stem;
}
);
layerId = "6055A463-9BF1-4E1B-8033-BCCEA0F196EB";
paths = (
{
closed = 1;
nodes = (
"100 460 OFFCURVE",
"143 555 OFFCURVE",
"186 555 CURVE SMOOTH",
"190 555 OFFCURVE",
"195 554 OFFCURVE",
"200 551 CURVE",
"229 514 OFFCURVE",
"253 428 OFFCURVE",
"253 299 CURVE SMOOTH",
"253 110 OFFCURVE",
"200 41 OFFCURVE",
"166 41 CURVE SMOOTH",
"158 41 OFFCURVE",
"151 43 OFFCURVE",
"143 49 CURVE",
"118 89 OFFCURVE",
"100 166 OFFCURVE",
"100 279 CURVE SMOOTH"
);
},
{
closed = 1;
nodes = (
"106 12 LINE",
"130 -12 OFFCURVE",
"158 -24 OFFCURVE",
"186 -24 CURVE SMOOTH",
"298 -24 OFFCURVE",
"348 133 OFFCURVE",
"348 279 CURVE SMOOTH",
"348 407 OFFCURVE",
"316 510 OFFCURVE",
"265 563 CURVE",
"238 602 OFFCURVE",
"204 624 OFFCURVE",
"166 624 CURVE SMOOTH",
"71 624 OFFCURVE",
"5 490 OFFCURVE",
"5 299 CURVE SMOOTH",
"5 142 OFFCURVE",
"50 50 OFFCURVE",
"105 12 CURVE"
);
},
{
closed = 1;
nodes = (
"120 582 OFFCURVE",
"73 485 OFFCURVE",
"73 299 CURVE SMOOTH",
"73 123 OFFCURVE",
"120 31 OFFCURVE",
"166 31 CURVE SMOOTH",
"204 31 OFFCURVE",
"263 103 OFFCURVE",
"263 299 CURVE SMOOTH",
"263 483 OFFCURVE",
"213 582 OFFCURVE",
"166 582 CURVE SMOOTH"
);
},
{
closed = 1;
nodes = (
"91 3 OFFCURVE",
"15 94 OFFCURVE",
"15 299 CURVE SMOOTH",
"15 484 OFFCURVE",
"77 614 OFFCURVE",
"166 614 CURVE SMOOTH",
"256 614 OFFCURVE",
"321 481 OFFCURVE",
"321 299 CURVE SMOOTH",
"321 156 OFFCURVE",
"273 3 OFFCURVE",
"166 3 CURVE SMOOTH"
);
}
);
width = 336;
}
);
note = zero;
unicode = 0030;
},
{
glyphname = exclam;
layers = (
{
hints = (
{
horizontal = 1;
place = "{-24, 27}";
type = Stem;
},
{
horizontal = 1;
place = "{101, 19}";
type = Stem;
},
{
horizontal = 1;
place = "{610, 10}";
type = Stem;
},
{
place = "{15, 10}";
type = Stem;
},
{
place = "{83, 27}";
type = Stem;
},
{
place = "{5, 10}";
type = Stem;
},
{
place = "{92, 27}";
type = Stem;
}
);
layerId = "6055A463-9BF1-4E1B-8033-BCCEA0F196EB";
paths = (
{
closed = 1;
nodes = (
"24 110 LINE",
"29 110 LINE",
"33 106 LINE",
"16 96 OFFCURVE",
"5 76 OFFCURVE",
"5 52 CURVE SMOOTH",
"5 26 OFFCURVE",
"18 4 OFFCURVE",
"38 -4 CURVE",
"45 -11 LINE SMOOTH",
"53 -19 OFFCURVE",
"63 -24 OFFCURVE",
"74 -24 CURVE SMOOTH",
"99 -24 OFFCURVE",
"119 1 OFFCURVE",
"119 32 CURVE SMOOTH",
"119 50 OFFCURVE",
"112 66 OFFCURVE",
"102 76 CURVE SMOOTH",
"95 82 LINE",
"89 93 LINE",
"101 93 LINE",
"110 560 LINE SMOOTH",
"110 570 OFFCURVE",
"106 579 OFFCURVE",
"99 586 CURVE SMOOTH",
"90 595 LINE",
"88 599 OFFCURVE",
"85 604 OFFCURVE",
"81 608 CURVE SMOOTH",
"74 615 OFFCURVE",
"65 620 OFFCURVE",
"54 620 CURVE SMOOTH",
"43 620 OFFCURVE",
"34 614 OFFCURVE",
"26 608 CURVE",
"20 600 OFFCURVE",
"15 591 OFFCURVE",
"15 580 CURVE SMOOTH"
);
},
{
closed = 1;
nodes = (
"25 580 LINE SMOOTH",
"25 588 OFFCURVE",
"28 595 OFFCURVE",
"33 601 CURVE",
"39 606 OFFCURVE",
"46 610 OFFCURVE",
"54 610 CURVE SMOOTH",
"62 610 OFFCURVE",
"69 606 OFFCURVE",
"74 601 CURVE SMOOTH",
"80 595 OFFCURVE",
"83 588 OFFCURVE",
"83 580 CURVE SMOOTH",
"74 120 LINE",
"34 120 LINE"
);
},
{
closed = 1;
nodes = (
"33 3 OFFCURVE",
"15 25 OFFCURVE",
"15 52 CURVE SMOOTH",
"15 79 OFFCURVE",
"33 101 OFFCURVE",
"54 101 CURVE SMOOTH",
"75 101 OFFCURVE",
"92 79 OFFCURVE",
"92 52 CURVE SMOOTH",
"92 25 OFFCURVE",
"75 3 OFFCURVE",
"54 3 CURVE SMOOTH"
);
}
);
width = 107;
}
);
note = exclam;
unicode = 0021;
},
